<svg aria-hidden="true" style="position: absolute; width: 0; height: 0; overflow: hidden;" version="1.1" xmlns="http://www.w3.org/2000/svg" xmlns:xlink="http://www.w3.org/1999/xlink">
<defs>
<symbol id="icon-url" viewBox="0 0 512 512">
<title>url</title>
<path d="m469.693 42.448c-27.679-27.12-64.38-41.811-103.392-41.438-38.994.398-75.405 15.861-102.524 43.54l-79.823 81.47c-8.423 8.596-15.551 17.984-21.409 27.914-19.134 8.7-24.618 12.468-41.278 29.471l-79.822 81.469c-27.12 27.679-41.835 64.397-41.437 103.392.398 38.995 15.861 75.405 43.54 102.524 27.314 26.762 63.43 41.445 101.85 41.445.513 0 1.028-.003 1.542-.008 38.994-.398 75.405-15.861 102.524-43.54l79.823-81.47c8.365-8.537 15.453-17.855 21.288-27.71 19.119-8.303 24.438-12.364 41.4-29.676l79.822-81.469c27.12-27.679 41.835-64.397 41.437-103.392-.398-38.992-15.861-75.402-43.541-102.522zm-283.635 289.489c10.87 10.65 22.479 19.096 35.102 25.54l-44.363 45.278c-8.843 9.026-20.736 14.068-33.489 14.198-12.72.162-24.747-4.667-33.772-13.511-9.025-8.843-14.067-20.736-14.198-33.489-.13-12.753 4.668-24.747 13.551-33.813l46.556-47.877c7.214 15.895 17.416 30.744 30.613 43.674zm41.977 115.757c-21.511 21.955-50.42 34.22-81.402 34.537-30.957.309-60.135-11.356-82.091-32.868-21.955-21.511-34.22-50.42-34.537-81.402-.316-30.982 11.356-60.136 32.868-82.091l79.822-81.469c.685-.699 1.333-1.358 1.965-1.999-3.123 17.683-2.967 35.827.452 53.452l-57.692 59.332c-14.451 14.749-22.293 34.308-22.081 55.074s8.452 40.16 23.201 54.611c14.556 14.262 33.792 22.086 54.254 22.085.272 0 .548-.001.82-.004 20.766-.212 40.161-8.452 54.612-23.201l85.085-86.841c44.257-47.199 17.896-115.107-38.4-131.342 2.883-5.638 20.231-22.029 24.744-26.916 79.228 33.343 92.326 132.792 38.203 187.572zm13.584-211.362c16.476 6.198 31.395 21.217 33.379 40.182-18.731-1.958-35.587-21.889-36.951-41.616 2.06.733 3.257 1.283 3.572 1.434zm85.565-55.029c-10.34-10.13-22.299-18.695-35.276-25.363l44.537-45.456c8.843-9.025 20.736-14.067 33.489-14.198 12.728-.131 24.747 4.667 33.772 13.511 9.025 8.843 14.067 20.736 14.198 33.489.13 12.752-4.668 24.747-13.551 33.812l-46.556 47.876c-7.215-15.892-17.417-30.741-30.613-43.671zm123.184 46.067-79.822 81.469c-.685.699-1.333 1.359-1.966 2.002 3.124-17.684 2.968-35.83-.452-53.457l57.694-59.33c14.451-14.75 22.293-34.309 22.081-55.074-.212-20.766-8.452-40.16-23.201-54.611-14.749-14.452-34.297-22.282-55.074-22.081-20.766.212-40.161 8.452-54.612 23.201l-85.085 86.841c-43.632 44.397-18.457 119.548 39.404 129.643-3.265 7.039-20.503 22.905-25.863 28.732-13.415-5.348-25.155-13.162-36.418-24.198-21.955-21.511-34.22-50.42-34.537-81.402-.204-19.989 4.589-39.213 13.789-56.238.138-.249.279-.497.403-.753 4.993-9.077 11.247-17.518 18.675-25.099l79.823-81.47c21.511-21.955 50.42-34.22 81.402-34.537 30.981-.295 60.136 11.356 82.091 32.868 21.955 21.511 34.22 50.42 34.537 81.402.315 30.983-11.358 60.137-32.869 82.092z"/>
</symbol>
<symbol id="icon-broken-link" viewBox="0 0 512 512">
<title>broken-link</title>
<path d="m187.026 150.534 45.121 45.252c2.814 2.822 6.636 4.409 10.622 4.409s7.808-1.586 10.622-4.409l84.407-84.654c8.397-8.421 19.558-13.059 31.427-13.059s23.03 4.638 31.427 13.06c17.363 17.413 17.363 45.747 0 63.16l-84.407 84.654c-5.837 5.854-5.837 15.328 0 21.183l45.121 45.252c2.814 2.822 6.636 4.409 10.622 4.409s7.808-1.586 10.622-4.409l88.473-88.73c53.888-54.046 53.888-141.984 0-196.03-26.12-26.196-60.85-40.622-97.792-40.622-.002 0 .001 0 0 0-36.941 0-71.674 14.428-97.792 40.621l-88.473 88.73c-5.837 5.855-5.837 15.328 0 21.183zm109.717-88.731c20.449-20.509 47.634-31.803 76.548-31.803 28.913 0 56.098 11.294 76.547 31.803 42.242 42.366 42.242 111.3 0 153.665l-77.851 78.078-23.938-24.008 73.847-74.063c29.009-29.093 29.009-76.432 0-105.526-14.067-14.107-32.772-21.876-52.671-21.876-19.898 0-38.604 7.769-52.671 21.876l-73.785 74.001-23.938-24.008z"/><path d="m322.183 364.802-45.121-45.252c-2.814-2.822-6.636-4.409-10.622-4.409s-7.808 1.586-10.622 4.409l-81.348 81.585c-8.396 8.421-19.557 13.059-31.426 13.059s-23.03-4.638-31.427-13.059c-17.363-17.414-17.363-45.748 0-63.161l81.348-81.585c5.837-5.854 5.837-15.328 0-21.183l-45.121-45.252c-2.814-2.822-6.636-4.409-10.622-4.409s-7.808 1.586-10.622 4.409l-85.413 85.662c-53.889 54.046-53.889 141.984 0 196.03 26.119 26.195 60.849 40.621 97.792 40.621s71.673-14.426 97.792-40.621l85.413-85.662c5.836-5.854 5.836-15.328-.001-21.182zm-106.658 85.662c-20.449 20.509-47.634 31.804-76.547 31.804-28.914 0-56.099-11.295-76.548-31.804-42.243-42.366-42.243-111.299 0-153.665l74.791-75.009 23.938 24.008-70.788 70.994c-29.009 29.093-29.009 76.432 0 105.526 14.067 14.107 32.772 21.876 52.671 21.876s38.604-7.77 52.67-21.876l70.726-70.933 23.938 24.008z"/><path d="m15.081 169.598 69.464 17.417c19.92 3.874 25.582-23.994 7.296-29.1l-69.464-17.417c-20.278-3.806-25.329 23.976-7.296 29.1z"/><path d="m119.829 140.675c15.151 13.779 34.116-7.528 21.244-21.183l-53.835-53.992c-15.203-13.632-34.083 7.372-21.244 21.183z"/><path d="m158.154 91.331c6.035 19.623 32.992 11.216 29.109-7.256l-17.366-69.667c-6.183-19.683-33.075-11.067-29.109 7.256z"/><path d="m497.187 342.669-69.464-17.417c-8.037-2.017-16.183 2.866-18.198 10.902-2.015 8.035 2.866 16.183 10.902 18.198l69.464 17.417c19.92 3.874 25.582-23.994 7.296-29.1z"/><path d="m392.439 371.592c-15.203-13.632-34.083 7.372-21.244 21.183l53.835 53.992c15.151 13.779 34.116-7.528 21.244-21.183z"/><path d="m354.114 420.936c-6.184-19.683-33.075-11.067-29.109 7.256l17.366 69.667c6.035 19.623 32.992 11.216 29.109-7.256z"/>
</symbol>
<symbol id="icon-view" viewBox="0 0 512 512">
<title>view</title>
<path d="m197.515 231.513c0 32.877 26.689 59.624 59.495 59.624s59.495-26.747 59.495-59.624-26.689-59.624-59.495-59.624-59.495 26.747-59.495 59.624zm89.097 0c0 16.335-13.279 29.624-29.601 29.624s-29.601-13.289-29.601-29.624 13.279-29.624 29.601-29.624 29.601 13.289 29.601 29.624z"/><path d="m350.017 400.688c-9.778-18.186-34.446-4.598-27.123 12.614l20.965 45.401c9.447 18.036 34.427 4.9 27.123-12.614z"/><path d="m258.158 407.531c-8.255 0-14.947 6.716-14.947 15v50.109c1.238 20.595 29.311 18.739 29.894 0v-50.109c0-8.284-6.692-15-14.947-15z"/><path d="m186.313 392.675c-7.491-3.482-16.375-.213-19.846 7.303l-20.965 45.4c-7.55 18.278 17.895 29.935 27.123 12.614l20.965-45.4c3.47-7.517.212-16.434-7.277-19.917z"/><path d="m5.36 147.657c2.797 2.347 6.198 3.493 9.58 3.493 4.274 0 8.518-1.831 11.474-5.379 104.565-113.611 344.545-128.876 457.254-.686 5.026 6.572 14.41 7.81 20.958 2.765 6.548-5.044 7.781-14.461 2.755-21.032-125.632-145.14-388.805-127.051-503.9-.29-5.296 6.355-4.454 15.815 1.879 21.129z"/><path d="m509.899 223.85c-115.527-176.007-400.13-169.055-505.819.07-2.76 4.715-2.745 10.565.041 15.265 115.44 175.923 400.05 169.137 505.819-.07 2.761-4.715 2.745-10.565-.041-15.265zm-146.082 7.663c0 58.867-47.733 106.776-106.474 106.957-.818-.005-1.633-.012-2.446-.023-57.922-1.132-104.693-48.664-104.693-106.935-.146-59.705 49.892-108.738 109.77-106.918 57.528 1.578 103.843 48.933 103.843 106.919zm-328.967-.075c17.074-29.094 77.406-77.588 119.118-89.826-46.432 53.178-42.644 129.84-1.367 178.198-67.745-25.591-104.972-70.429-117.751-88.372zm393.548 52.403c-20.959 16.046-43.792 28.584-68.356 37.585 46.438-53.173 42.661-129.834 1.388-178.198 67.739 25.593 104.963 70.426 117.741 88.368-7.692 11.026-24.176 31.883-50.773 52.245z"/>
</symbol>
<symbol id="icon-cloud" viewBox="0 0 512 512">
<title>cloud</title>
<path d="m459.064 392.615v-47.049c0-8.284-6.716-15-15-15h-172.926v-29.63h111.454c53.288 0 96.642-43.353 96.642-96.642 0-53.288-43.354-96.641-96.642-96.641h-4.713c-7.42-60.581-59.187-107.653-121.741-107.653s-114.321 47.072-121.741 107.654h-4.713c-53.288 0-96.642 43.353-96.642 96.641 0 53.289 43.354 96.642 96.642 96.642h111.454v29.63h-172.926c-8.284 0-15 6.716-15 15v47.049c-26.278 6.696-45.77 30.559-45.77 58.892 0 33.508 27.261 60.769 60.77 60.769 33.508 0 60.769-27.261 60.769-60.769 0-28.333-19.492-52.195-45.769-58.892v-32.049h157.926v32.049c-26.278 6.696-45.77 30.559-45.77 58.892 0 33.508 27.261 60.769 60.77 60.769s60.77-27.261 60.77-60.769c0-28.333-19.492-52.196-45.77-58.892v-32.049h157.926v32.049c-26.277 6.696-45.769 30.559-45.769 58.892 0 33.508 27.261 60.769 60.769 60.769 33.509 0 60.77-27.261 60.77-60.769-.001-28.334-19.492-52.196-45.77-58.893zm-396.022-188.32c0-36.746 29.896-66.641 66.642-66.641h18.801c8.284 0 15-6.716 15-15 0-51.089 41.564-92.654 92.653-92.654s92.653 41.564 92.653 92.654c0 8.284 6.716 15 15 15h18.801c36.746 0 66.642 29.895 66.642 66.641 0 36.747-29.896 66.642-66.642 66.642h-252.908c-36.746 0-66.642-29.895-66.642-66.642zm35.939 247.212c0 16.966-13.803 30.769-30.769 30.769-16.967 0-30.77-13.803-30.77-30.769s13.803-30.769 30.77-30.769c16.966 0 30.769 13.803 30.769 30.769zm187.927 0c0 16.966-13.803 30.769-30.77 30.769s-30.77-13.803-30.77-30.769 13.803-30.769 30.77-30.769 30.77 13.803 30.77 30.769zm157.156 30.769c-16.966 0-30.769-13.803-30.769-30.769s13.803-30.769 30.769-30.769c16.967 0 30.77 13.803 30.77 30.769s-13.803 30.769-30.77 30.769z"/>
</symbol>
<symbol id="icon-send" viewBox="0 0 512 512">
<title>send</title>
<path d="m499.093 24.4c-5.861-5.396-15.697-9.973-25.633-9.929h-435.285c-20.054-.065-38.187 16.684-38.175 38.247v261.572c.07 20.398 16.606 38.152 38.175 38.248h65.29l-2.221 1.754c-5.989 4.73-9.397 11.825-9.35 19.465.046 7.64 3.54 14.693 9.585 19.351l129.798 99.99c11.475 9.857 32.776.73 32.234-15.907v-42.979h128.171c14.464.321 28.437-12.725 28.059-28.243l-.247-53.431h53.967c20.043.085 38.234-16.75 38.175-38.248v-261.572c-.002-11.214-4.844-21.316-12.543-28.318zm-181.071 160.52 163.67-125.135v247.805zm-288.079 122.67v-247.805l163.699 125.157zm198.516-133.766c-2.372-1.813-167.003-127.683-169.19-129.354h393.095l-176.555 134.986c-14.929 11.813-34.655 6.489-47.35-5.632zm-168.467 148.713 158.413-118.687c21.48 15.989 52.448 16.682 74.856-.022l158.385 118.709h-34.181c-4.036-10.16-13.952-17.374-25.492-17.374h-127.029v-40.6c.478-14.882-18.382-25.09-31.019-15.073l-92.479 73.046h-81.454zm188.547 81.674c-8.268 0-14.972 6.716-14.972 15v37.808l-108.347-83.464 109.78-86.711v33.32c0 8.284 6.703 15 14.972 15h139.496l.319 69.047z"/>
</symbol>
<symbol id="icon-download" viewBox="0 0 512 512">
<title>download</title>
<path d="m362.172 0h-212.512c-24.962 0-45.271 20.309-45.271 45.271v421.291c0 24.962 20.309 45.271 45.271 45.271h212.512c24.963 0 45.271-20.309 45.271-45.271v-421.291c.001-24.962-20.308-45.271-45.271-45.271zm15.272 466.562c0 8.42-6.851 15.271-15.271 15.271h-212.513c-8.42 0-15.271-6.851-15.271-15.271v-421.291c0-8.421 6.851-15.271 15.271-15.271h212.512c8.421 0 15.271 6.851 15.271 15.271v421.291z"/><circle cx="255.578" cy="436.977" r="15.099"/><path d="m230.392 89.195h50.372c8.284 0 15-6.716 15-15s-6.716-15-15-15h-50.372c-8.284 0-15 6.716-15 15s6.716 15 15 15z"/><path d="m306.48 186.302c-6.32-21.961-26.596-38.072-50.563-38.072s-44.242 16.111-50.563 38.072c-20.977 3.1-37.126 21.225-37.126 43.05 0 23.996 19.522 43.518 43.518 43.518h60.706v40.224l-1.129-1.094c-5.945-5.768-15.442-5.625-21.211.322-5.768 5.946-5.624 15.442.322 21.211l25.972 25.195c4.905 5.511 14.893 6.875 21.576.618l26.51-25.837c5.933-5.782 6.055-15.279.272-21.211-5.782-5.934-15.279-6.055-21.212-.273l-1.102 1.074v-40.294c22.901-1.232 41.154-20.249 41.154-43.451.002-21.827-16.148-39.952-37.124-43.052zm-6.392 56.568h-88.343c-7.454 0-13.518-6.064-13.518-13.518s6.064-13.518 13.518-13.518h6.567c8.284 0 15-6.716 15-15 0-12.464 10.14-22.604 22.604-22.604s22.604 10.14 22.604 22.604c0 8.284 6.716 15 15 15h6.567c7.454 0 13.518 6.064 13.518 13.518.001 7.454-6.063 13.518-13.517 13.518z"/>
</symbol>
<symbol id="icon-buy" viewBox="0 0 512 512">
<title>buy</title>
<path d="m463.177.549h-414.157c-27.03 0-49.02 21.991-49.02 49.021v309.19c0 27.03 21.99 49.02 49.02 49.02h122.792l-11.587 73.791h-22.776c-8.284 0-15 6.716-15 15s6.716 15 15 15c50.257.114 187.28.09 237.298 0 8.284 0 15-6.716 15-15s-6.716-15-15-15h-24.83l-10.4-73.791h123.66c27.029 0 49.02-21.99 49.02-49.02v-309.19c-.001-27.03-21.991-49.021-49.02-49.021zm-414.157 30h414.157c10.487 0 19.02 8.532 19.02 19.02v226.088h-452.197v-226.087c0-10.488 8.532-19.021 19.02-19.021zm270.6 451.021h-129.027l11.587-73.791h107.04zm143.557-103.791h-414.157c-10.488 0-19.02-8.532-19.02-19.02v-53.102h452.196v53.102c0 10.488-8.532 19.02-19.019 19.02z"/><ellipse cx="223.839" cy="212.738" rx="14.633" ry="14.633" transform="matrix(.987 -.16 .16 .987 -31.187 38.602)"/><ellipse cx="282.839" cy="212.738" rx="14.633" ry="14.633" transform="matrix(.987 -.16 .16 .987 -30.425 48.053)"/><path d="m173 112.701h7.605l17.501 64.644c2.494 9.217 10.906 15.655 20.455 15.655h68.165c9.839 0 18.257-6.695 20.472-16.283l9.748-42.216c2.684-10.518-5.87-23.503-18.528-23.396l-87.26-.352-4.595-16.972c-1.771-6.539-7.705-11.08-14.479-11.08h-19.084c-20.595 1.24-18.738 29.416 0 30zm111.646 28.348-5.069 21.95h-54.273l-6.014-22.213z"/>
</symbol>
<symbol id="icon-teamwork" viewBox="0 0 512 512">
<title>teamwork</title>
<path d="m255.696 254.244c45.931 0 83.299-37.368 83.299-83.299s-37.368-83.299-83.299-83.299c-45.932 0-83.3 37.368-83.3 83.299s37.369 83.299 83.3 83.299zm0-136.598c29.389 0 53.299 23.91 53.299 53.299s-23.91 53.299-53.299 53.299c-29.39 0-53.3-23.91-53.3-53.299s23.911-53.299 53.3-53.299z"/><path d="m416.08 251.236c34.925 0 63.339-28.414 63.339-63.338s-28.414-63.338-63.339-63.338-63.338 28.414-63.338 63.338 28.413 63.338 63.338 63.338zm0-96.677c18.383 0 33.339 14.956 33.339 33.338s-14.956 33.338-33.339 33.338-33.338-14.956-33.338-33.338 14.955-33.338 33.338-33.338z"/><path d="m447.458 268.566h-62.755c-18.088 0-35.512 8.188-47.67 21.703-13.029-7.225-28.007-11.347-43.931-11.347h-74.812c-16.056 0-31.149 4.19-44.253 11.527-11.922-13.315-29.017-21.149-47.477-21.149h-62.754c-35.183 0-63.806 28.623-63.806 63.806v23.738c0 8.284 6.716 15 15 15h112.402v36.774c0 8.284 6.716 15 15 15h226.587c8.284 0 15-6.716 15-15v-37.508h112.274c8.284 0 15-6.716 15-15v-23.737c.001-35.184-28.622-63.807-63.805-63.807zm-417.458 64.54c0-18.641 15.165-33.806 33.806-33.806h62.755c9.196 0 17.744 3.682 23.988 9.987-8.344 9.329-14.792 20.384-18.738 32.557h-101.811zm323.989 60.511h-196.587v-23.808c0-33.573 27.314-60.887 60.888-60.887h74.812c33.573 0 60.888 27.314 60.888 60.887v23.808zm127.275-52.508h-101.922c-4.003-11.997-10.443-22.888-18.731-32.084 6.468-6.477 15.266-10.46 24.092-10.46h62.755c18.641 0 33.806 15.166 33.806 33.806z"/><path d="m94.806 251.236c34.925 0 63.338-28.414 63.338-63.338s-28.413-63.338-63.338-63.338-63.339 28.414-63.339 63.338 28.414 63.338 63.339 63.338zm0-96.677c18.383 0 33.338 14.956 33.338 33.338s-14.955 33.338-33.338 33.338-33.339-14.956-33.339-33.338 14.956-33.338 33.339-33.338z"/>
</symbol>
<symbol id="icon-connection" viewBox="0 0 512 512">
<title>connection</title>
<path d="m473.104 423.03c6.514-9.351 10.348-20.702 10.348-32.938 0-23.892-14.577-44.443-35.303-53.228 10.61-25.936 16.349-53.956 16.349-80.597 0-114.486-92.769-207.699-207.081-208.449-.191-.006-.381-.008-.572-.007-.271-.001-.541-.01-.813-.01-41.24 0-83.716 13.521-118.911 37.489 4.45-8.185 6.98-17.558 6.98-27.511 0-31.86-25.919-57.779-57.779-57.779-31.858 0-57.777 25.919-57.777 57.778 0 12.235 3.834 23.586 10.348 32.938-22.644 9.809-38.529 32.368-38.529 58.574v15.393c0 8.284 6.716 15 15 15h47.011c-9.616 24.811-14.809 51.309-14.809 76.585 0 114.922 93.474 208.421 208.385 208.465.023 0 .045.002.068.002.009 0 .018-.002.028-.002 34.474-.002 69.479-9.354 100.595-26.357-10.499 11.377-16.927 26.563-16.927 43.227v15.393c0 8.284 6.716 15 15 15h141.919c8.284 0 15-6.716 15-15v-15.393c-.001-26.206-15.887-48.764-38.53-58.573zm-45.53-5.233h-3.8c-14.434-.981-25.878-13.028-25.878-27.706 0-15.317 12.461-27.778 27.778-27.778 15.316 0 27.777 12.461 27.777 27.778 0 14.678-11.444 26.726-25.877 27.706zm-171.039-335.231c35.576 41.629 49.298 81.123 54.327 158.701h-108.748c4.002-86.182 28.933-130.444 54.421-158.701zm54.305 188.702c-4.002 86.182-28.933 130.445-54.421 158.701-35.576-41.629-49.298-81.123-54.327-158.701zm30.026 0h92.902c-1.937 20.685-7.741 42.245-16.646 61.683-27.818 4.145-49.228 28.187-49.228 57.141 0 1.663.087 3.306.225 4.934-21.659 17.028-47.023 29.106-73.323 35.194 20.032-28.75 43.399-79.023 46.07-158.952zm92.995-30h-92.974c-2.588-80.272-26.051-130.554-46.147-159.226 75.117 16.677 132.565 80.826 139.121 159.226zm-347.539-211.268c15.317 0 27.778 12.461 27.778 27.778 0 14.678-11.445 26.725-25.878 27.706h-3.8c-14.432-.981-25.877-13.028-25.877-27.706 0-15.317 12.461-27.778 27.777-27.778zm-55.959 119.29c0-18.641 15.165-33.806 33.806-33.806 12.103.009 31.641.012 44.307 0 18.641 0 33.807 15.166 33.807 33.806v.393h-111.92zm126.919 30.393c8.284 0 15-6.716 15-15v-15.393c0-15.726-5.73-30.131-15.197-41.265 18.75-12.242 39.715-21.094 61.232-25.941-20.066 28.711-43.551 79.041-46.23 159.183h-93.79c1.939-20.642 7.74-42.152 16.647-61.585h62.338zm-79.08 91.585h93.866c2.595 80.485 26.176 130.822 46.307 159.455-75.632-16.31-133.587-80.69-140.173-159.455zm403.431 210.728h-111.919v-.393c0-18.641 15.166-33.806 33.807-33.806 12.103.009 31.641.012 44.307 0 18.641 0 33.806 15.166 33.806 33.806v.393z"/>
</symbol>
<symbol id="icon-boss" viewBox="0 0 512 512">
<title>boss</title>
<path d="m467.199 210.968c-19.715 0-36.517 12.709-42.709 30.383h-17.85c-3.088-31.429-15.776-60.066-35.069-82.921l15.906-15.971c5.266 2.155 11.019 3.353 17.048 3.353 24.957 0 45.261-20.358 45.261-45.383s-20.304-45.383-45.261-45.383-45.261 20.358-45.261 45.383c0 8.012 2.09 15.541 5.739 22.082l-14.941 15.001c-22.095-17.61-49.191-29.157-78.771-32.108v-16.692c17.605-6.22 30.261-23.057 30.261-42.81 0-25.024-20.304-45.383-45.261-45.383s-45.261 20.358-45.261 45.383c0 19.754 12.656 36.59 30.261 42.81v16.682c-30.609 3.028-58.566 15.253-81.078 33.884l-12.502-12.552c2.868-5.954 4.477-12.627 4.477-19.671 0-25.024-20.304-45.383-45.261-45.383s-45.26 20.358-45.26 45.383 20.304 45.383 45.261 45.383c7.015 0 13.661-1.609 19.593-4.477l12.576 12.627c-18.142 22.31-30.098 49.874-33.208 80.038h-17.92c-6.192-17.673-22.993-30.383-42.709-30.383-24.956 0-45.26 20.359-45.26 45.383s20.304 45.383 45.261 45.383c19.715 0 36.517-12.709 42.709-30.383h17.785c2.959 31.668 15.657 60.534 35.051 83.549l-15.762 15.825c-5.266-2.155-11.019-3.353-17.048-3.353-24.957 0-45.261 20.358-45.261 45.383s20.304 45.383 45.261 45.383 45.261-20.358 45.261-45.383c0-8.012-2.09-15.541-5.739-22.082l14.779-14.839c22.129 17.667 49.283 29.248 78.933 32.193v16.446c-17.605 6.22-30.261 23.057-30.261 42.81 0 25.024 20.304 45.383 45.261 45.383s45.261-20.358 45.261-45.383c0-19.754-12.656-36.59-30.261-42.81v-16.446c30.66-3.046 58.656-15.321 81.182-34.016l12.398 12.448c-2.868 5.954-4.477 12.627-4.477 19.671 0 25.024 20.304 45.383 45.261 45.383s45.261-20.358 45.261-45.383-20.304-45.383-45.261-45.383c-7.014 0-13.661 1.609-19.593 4.477l-12.503-12.554c18.21-22.459 30.158-50.224 33.142-80.595h17.85c6.192 17.673 22.993 30.383 42.709 30.383 24.957 0 45.261-20.358 45.261-45.383s-20.304-45.382-45.261-45.382zm-62.673-125.921c8.415 0 15.261 6.901 15.261 15.383s-6.846 15.383-15.261 15.383c-3.535 0-6.784-1.229-9.374-3.27-.285-.26-.573-.512-.872-.746-3.072-2.816-5.015-6.862-5.015-11.367 0-8.482 6.846-15.383 15.261-15.383zm-148.234-54.528c8.415 0 15.261 6.901 15.261 15.383s-6.846 15.383-15.261 15.383-15.261-6.901-15.261-15.383 6.846-15.383 15.261-15.383zm-164.625 76.536c0-8.482 6.846-15.383 15.261-15.383s15.261 6.901 15.261 15.383c0 4.129-1.631 7.876-4.267 10.642-.064.062-.133.114-.196.177-.083.082-.152.172-.232.256-2.745 2.661-6.465 4.308-10.565 4.308-8.416 0-15.262-6.901-15.262-15.383zm-46.406 163.954c-8.415 0-15.261-6.901-15.261-15.383s6.846-15.383 15.261-15.383 15.261 6.901 15.261 15.383-6.846 15.383-15.261 15.383zm62.735 156.404c-8.415 0-15.261-6.901-15.261-15.383s6.846-15.383 15.261-15.383c3.532 0 6.778 1.227 9.367 3.265.288.263.58.518.883.755 3.07 2.816 5.011 6.86 5.011 11.364 0 8.481-6.846 15.382-15.261 15.382zm148.234 54.528c-8.415 0-15.261-6.901-15.261-15.383s6.846-15.383 15.261-15.383 15.261 6.901 15.261 15.383-6.846 15.383-15.261 15.383zm164.625-76.535c0 8.482-6.846 15.383-15.261 15.383s-15.261-6.901-15.261-15.383c0-4.131 1.632-7.879 4.271-10.646.063-.06.131-.112.193-.174.081-.081.149-.169.228-.252 2.745-2.664 6.467-4.312 10.569-4.312 8.415.001 15.261 6.902 15.261 15.384zm-164.625-27.357c-66.802 0-121.149-54.593-121.149-121.698s54.348-121.698 121.149-121.698 121.149 54.593 121.149 121.698-54.347 121.698-121.149 121.698zm210.969-106.315c-8.415 0-15.261-6.901-15.261-15.383s6.846-15.383 15.261-15.383 15.261 6.901 15.261 15.383-6.846 15.383-15.261 15.383z"/><path d="m294.741 248.283c5.179-7.523 8.219-16.626 8.219-26.429 0-25.767-20.963-46.73-46.73-46.73s-46.73 20.963-46.73 46.73c0 9.803 3.041 18.906 8.219 26.429-17.487 11.119-29.123 30.653-29.123 52.867 0 8.284 6.716 15 15 15h105.267c8.284 0 15-6.716 15-15 0-22.214-11.636-41.748-29.122-52.867zm-38.511-43.159c9.225 0 16.73 7.505 16.73 16.73 0 8.867-6.939 16.125-15.67 16.676h-2.12c-8.731-.551-15.67-7.809-15.67-16.676 0-9.225 7.505-16.73 16.73-16.73zm-33.976 81.025c5.439-10.46 16.379-17.619 28.961-17.619 2.717.012 5.776.041 10.03 0 12.582 0 23.522 7.159 28.961 17.619z"/>
</symbol>
<symbol id="icon-brainstorming" viewBox="0 0 512 512">
<title>brainstorming</title>
<path d="m451.508 181.598c24.126-46.248-16.809-95.449-63.58-86.284.477-22.522-12.718-47.139-33.504-58.471-24.111-13.854-53.591-11.075-74.523 5.428-12.646-27.644-41.875-45.218-73.499-41.862-29.645 3.139-53.229 23.577-61.563 50.419-7.853-4.153-16.515-6.771-25.591-7.647-36.087-4.308-72.607 24.855-75.219 62.115-1.141 12.102.856 23.97 5.705 34.711-28.767 10.365-49.392 37.935-49.392 70.229v.641c0 41.143 33.473 74.616 74.616 74.616h74.563c9.138 15.358 24.639 26.493 42.844 29.763l-6.799 24.314c-1.264 4.519-.34 9.368 2.496 13.106s7.258 5.934 11.95 5.934h40.595l-31.984 134.376c-1.676 7.041 1.915 14.274 8.536 17.196 1.958.864 4.017 1.278 6.05 1.278 4.841 0 9.54-2.349 12.407-6.562l81.643-119.966c55.651 20.583 113.75-14.785 123.333-68.669h2.96c37.255 0 67.564-30.31 67.564-67.565.001-34.566-26.086-63.152-59.608-67.1zm-180.141 152.713c-2.845-3.601-7.181-5.702-11.771-5.702h-39.814l30.375-108.62h67.66l-27.921 65.575c-1.973 4.633-1.489 9.948 1.288 14.148 2.777 4.201 7.477 6.728 12.513 6.728h30.69l-77.701 114.174 17.502-73.532c1.063-4.465.024-9.17-2.821-12.771zm78.213 26.569c-4.663 0-9.655-.664-14.661-1.898l29.073-42.72h45.895c-6.986 25.638-31.373 44.618-60.307 44.618zm93.973-74.618c-12.422-.007-53.998.002-66.735 0-.23-.625-.501-1.239-.818-1.837-2.599-4.913-7.701-7.985-13.259-7.985h-36.353l27.921-65.575c1.973-4.633 1.489-9.948-1.288-14.148-2.777-4.201-7.477-6.728-12.513-6.728h-101.731c-6.729 0-12.634 4.48-14.446 10.96l-23.818 85.172c-16.674-1.508-29.784-15.556-29.784-32.616 0-8.284-6.716-15-15-15s-15 6.716-15 15c0 .666.03 1.326.05 1.987h-65.82c-24.602 0-44.616-20.015-44.616-44.616v-.641c0-24.602 20.015-44.616 44.616-44.616 11.602.348 19.87-14.807 11.366-24.788l-3.177-3.689c-6.967-8.091-10.252-18.401-9.25-29.031 1.001-10.63 6.155-20.146 14.511-26.792 16.494-13.122 40.131-10.838 53.81 5.2l3.381 3.963c8.326 10.349 27.259 3.85 26.381-10.701l-.297-4.605c-1.47-22.791 15.169-42.527 37.88-44.932 22.432-2.374 42.806 13.215 46.371 35.495l1.652 10.327c1.604 12.116 18.712 17.324 26.871 6.551l7.222-9.763c11.086-14.987 31.637-19.287 47.8-9.997 8.651 4.971 14.783 13.031 17.265 22.695s.994 19.68-4.19 28.206c-10.683 14.359 5.626 31.135 19.752 22.473l10.92-7.181c13.297-8.744 30.876-5.388 40.019 7.639 4.635 6.606 6.321 14.603 4.745 22.517-1.576 7.915-6.195 14.656-13.007 18.983-21.274 9.321-19.138 30.584-.277 32.946h28.847c51.865 3.123 47.565 73.905-.001 75.127z"/><path d="m242.833 123.097c-1.648-.337-16.656-3.196-35.55.239-26.17 4.758-46.94 19.257-60.067 41.93-4.151 7.169-1.704 16.346 5.466 20.497 2.367 1.37 4.951 2.021 7.501 2.021 5.177 0 10.215-2.684 12.996-7.487 20.606-35.591 61.795-28.164 63.708-27.795 8.09 1.618 15.981-3.609 17.637-11.703 1.659-8.116-3.575-16.042-11.691-17.702z"/>
</symbol>
<symbol id="icon-idea" viewBox="0 0 512 512">
<title>idea</title>
<path d="m378.197 50.497c-32.598-32.564-75.939-50.497-122.037-50.497s-89.438 17.934-122.035 50.497c-32.602 32.567-50.556 75.869-50.556 121.928-.001 32.409 9.054 63.996 26.185 91.346 14.997 23.943 35.601 43.815 59.952 57.915v25.814 80.136c0 46.696 37.99 84.686 84.686 84.686h2.292c46.752 0 84.788-37.99 84.788-84.686v-80.135l-.001-25.167c24.643-14.016 45.511-33.909 60.724-57.977 17.375-27.489 26.559-59.278 26.559-91.931-.002-46.06-17.956-89.362-50.557-121.929zm-178.491 348.006v-36.002h111.765v36.002zm56.977 83.819h-2.292c-29.863 0-54.197-24.065-54.664-53.819h111.721c-.466 29.754-24.846 53.819-54.765 53.819zm120.151-233.994c-13.966 22.096-33.697 39.936-57.06 51.589-5.089 2.539-8.305 7.736-8.305 13.423l.001 19.161h-111.763v-19.728c0-5.643-3.167-10.808-8.195-13.368-48.078-24.474-77.944-73.129-77.942-126.979 0-38.041 14.83-73.805 41.758-100.705 26.931-26.904 62.741-41.721 100.832-41.721 38.092 0 73.902 14.816 100.835 41.721 26.928 26.9 41.758 62.664 41.758 100.705-.001 26.97-7.58 53.217-21.919 75.902z"/><path d="m288.999 160.49h-38.225l34.718-54.095c4.475-6.972 2.45-16.251-4.522-20.726-6.971-4.474-16.25-2.451-20.726 4.521l-49.544 77.198c-2.963 4.616-3.169 10.481-.54 15.295 2.63 4.813 7.678 7.807 13.163 7.807h38.408l-41.638 65.688c-4.435 6.997-2.358 16.265 4.639 20.7 2.492 1.579 5.27 2.333 8.017 2.333 4.967 0 9.828-2.466 12.684-6.971l56.236-88.719c2.929-4.62 3.11-10.468.474-15.261-2.639-4.793-7.675-7.77-13.144-7.77z"/>
</symbol>
<symbol id="icon-good" viewBox="0 0 512 512">
<title>good</title>
<path d="m496.567 223.127h-76.857c-8.284 0-15 6.716-15 15v26.762h-22.889c-5.859 0-11.297-2.936-14.545-7.853-11.221-16.985-31.79-41.995-66.058-64.68-13.67-9.049-22.128-24.121-22.626-40.316-1.363-44.196-2.461-108.6-2.472-109.245-.131-7.723-6.104-14.083-13.804-14.698-4.125-.332-41.001-2.597-64.44 19.044-11.731 10.832-17.933 25.94-17.933 43.693v88.176c0 12.671-10.272 22.943-22.943 22.943h-109.747c-25.468 0-46.793 20.164-47.246 45.628-.221 12.459 4.493 23.833 12.308 32.308-7.638 8.283-12.315 19.338-12.315 31.468s4.677 23.184 12.315 31.468c-7.638 8.284-12.315 19.338-12.315 31.468s4.677 23.184 12.315 31.468c-7.814 8.475-12.529 19.849-12.308 32.308.452 25.464 21.778 45.629 47.246 45.629h261.068c16.77 0 33.329-.982 51.531-12.844 10.938-7.127 23.69-10.895 36.88-10.895h7.978v8.739c0 8.284 6.716 15 15 15h76.857c8.284 0 15-6.716 15-15v-230.57c0-8.285-6.715-15.001-15-15.001zm-466.567 151.166c0-9.081 7.388-16.468 16.468-16.468h61.188c9.081 0 16.469 7.387 16.469 16.468s-7.388 16.468-16.469 16.468h-61.188c-9.08 0-16.468-7.388-16.468-16.468zm0-62.936c0-9.081 7.388-16.468 16.468-16.468h61.188c9.081 0 16.469 7.387 16.469 16.468s-7.388 16.468-16.469 16.468h-61.188c-9.08 0-16.468-7.388-16.468-16.468zm16.468-79.404h61.188c9.081 0 16.469 7.387 16.469 16.468s-7.388 16.468-16.469 16.468h-61.188c-9.08 0-16.468-7.388-16.468-16.468 0-9.081 7.388-16.468 16.468-16.468zm-16.468 205.276c0-9.081 7.388-16.468 16.468-16.468h61.188c9.081 0 16.469 7.387 16.469 16.468s-7.388 16.468-16.469 16.468h-61.188c-9.08 0-16.468-7.388-16.468-16.468zm366.732-7.271c-19.02 0-37.437 5.45-53.259 15.761-11.391 7.423-21.313 7.978-35.152 7.978h-157.222c6.103-14.569 2.452-36.104-9.291-47.936 15.635-15.576 16.465-46.454 0-62.936 15.635-15.576 16.465-46.454 0-62.936 11.187-11.663 15.709-31.502 9.291-47.936h20.902c20.955 0 37.943-16.988 37.943-37.943v-103.177c0-9.39 2.689-16.453 8.222-21.594 7.302-6.785 18.781-9.696 28.233-10.791.411 21.907 1.242 63.227 2.207 94.514.798 25.913 14.275 49.991 36.052 64.408 30.054 19.895 47.904 41.543 57.587 56.201 8.817 13.348 23.612 21.317 39.576 21.317h22.889v135.069h-7.978zm84.835 23.739h-46.857v-200.57h46.857z"/><path d="m308.321 342.841c-26.431 0-48.867-11.942-66.686-35.496-14.058-18.581-19.929-37.715-20.072-38.189-7.008-19.386-33.485-9.668-28.782 8.459.283.968 7.136 23.962 24.283 46.97 23.529 31.57 55.085 48.257 91.257 48.257 20.595-1.242 18.738-29.418 0-30.001z"/>
</symbol>
<symbol id="icon-accreditation" viewBox="0 0 512 512">
<title>accreditation</title>
><path d="m496.27 177.325h-190.109v-7.768c29.627-9.928 54.796-25.856 73.248-46.499 22.938-25.661 35.063-58.283 35.063-94.34 0-8.284-6.716-15-15-15s-15 6.716-15 15c0 28.972-9.229 53.985-27.43 74.347-13.004 14.547-30.374 26.284-50.882 34.54v-14.668c0-30.663-24.946-55.609-55.609-55.609s-55.609 24.946-55.609 55.609v14.728c-20.561-8.213-37.958-19.935-50.956-34.495-18.152-20.332-27.355-45.381-27.355-74.451 0-8.284-6.716-15-15-15s-15 6.716-15 15c0 36.147 12.095 68.801 34.976 94.43 18.447 20.662 43.645 36.57 73.336 46.438v7.738h-179.943c-8.284 0-15 6.716-15 15v290.227c0 8.284 6.716 15 15 15h481.27c8.284 0 15-6.716 15-15v-290.227c0-8.284-6.716-15-15-15zm-271.328-54.388c0-14.121 11.488-25.609 25.609-25.609s25.609 11.488 25.609 25.609v60.475c0 1.935-.223 3.817-.631 5.63-.026.116-.057.229-.08.346-2.7 11.247-12.835 19.634-24.898 19.634-12.059 0-22.191-8.38-24.895-19.621-.026-.134-.062-.263-.092-.396-.403-1.801-.623-3.671-.623-5.592v-60.476zm256.328 344.614h-451.27v-260.226h170.356c8.958 18.727 28.089 31.696 50.196 31.696s41.238-12.969 50.196-31.696h180.522z"/><path d="m206.554 346.689c6.514-9.351 10.348-20.702 10.348-32.938 0-31.859-25.919-57.778-57.777-57.778-31.859 0-57.778 25.919-57.778 57.778 0 12.235 3.834 23.587 10.348 32.938-22.644 9.81-38.53 32.367-38.53 58.574v15.393c0 8.284 6.716 15 15 15h141.919c8.284 0 15-6.716 15-15v-15.393c-.001-26.206-15.887-48.764-38.53-58.574zm-47.43-60.716c15.316 0 27.777 12.461 27.777 27.778 0 14.678-11.445 26.725-25.877 27.706h-3.8c-14.434-.981-25.878-13.028-25.878-27.706 0-15.316 12.461-27.778 27.778-27.778zm55.959 119.683h-111.919v-.393c0-18.641 15.166-33.806 33.807-33.806 12.103.009 31.641.012 44.307 0 18.641 0 33.806 15.166 33.806 33.806v.393z"/><path d="m300.156 264.35c-8.284 0-15 6.716-15 15s6.716 15 15 15h125.154c8.284 0 15-6.716 15-15s-6.716-15-15-15z"/><path d="m425.311 330.814h-125.155c-8.284 0-15 6.716-15 15s6.716 15 15 15h125.154c8.284 0 15-6.716 15-15s-6.715-15-14.999-15z"/><path d="m425.311 397.279h-125.155c-8.284 0-15 6.716-15 15s6.716 15 15 15h125.154c8.284 0 15-6.716 15-15s-6.715-15-14.999-15z"/>
</symbol>
<symbol id="icon-clock" viewBox="0 0 512 512">
<title>clock</title>
<circle cx="256.325" cy="73.973" r="15.099"/><circle cx="256.325" cy="438.763" r="15.099"/><circle cx="74.575" cy="256.325" r="15.099"/><circle cx="437.365" cy="256.325" r="15.099"/><path d="m437.575 75.076c-48.414-48.413-112.783-75.076-181.25-75.076s-132.835 26.663-181.249 75.076c-48.413 48.414-75.076 112.783-75.076 181.249s26.663 132.836 75.076 181.25c48.414 48.413 112.782 75.076 181.249 75.076s132.836-26.663 181.25-75.076c48.414-48.414 75.076-112.783 75.076-181.25s-26.663-132.835-75.076-181.249zm-21.213 341.286c-42.748 42.747-99.583 66.289-160.037 66.289s-117.289-23.542-160.036-66.289-66.289-99.583-66.289-160.037 23.542-117.289 66.289-160.036c42.748-42.747 99.583-66.289 160.036-66.289s117.289 23.542 160.037 66.289c42.747 42.747 66.289 99.583 66.289 160.036s-23.542 117.29-66.289 160.037z"/><path d="m268.61 214.056c-18.25-5.304-37.215 1.795-47.838 16.316l-92.011-26.741c-20.122-4.557-26.203 23.018-8.373 28.808l91.991 26.736c.66 11.671 7.239 25.096 18.069 32.788l-14.568 51.63c-4.597 19.449 22.686 26.555 28.873 8.146l14.531-51.499c17.91-1.225 34.017-13.413 39.31-31.629 3.282-11.291 1.97-23.183-3.693-33.487-5.663-10.305-15-17.787-26.291-21.068zm1.177 46.182c-2.157 7.423-9.954 11.705-17.375 9.549-3.595-1.045-6.569-3.428-8.373-6.709-1.525-2.824-2.394-7.706-.6-12.246 2.219-5.214 7.358-8.526 12.892-8.526 7.914-.145 16.186 8.111 13.456 17.932z"/>
</symbol>
<symbol id="icon-wristwatch" viewBox="0 0 512 512">
<title>wristwatch</title>
<path d="m390.029 242.991h-10.641c-4.351-39.634-25.727-74.221-56.644-96.256v-131.735c0-8.284-6.716-15-15-15h-128.133c-8.284 0-15 6.716-15 15v131.735c-34.761 24.775-57.471 65.413-57.471 111.256s22.711 86.481 57.471 111.256v127.922c0 8.284 6.716 15 15 15h128.133c8.284 0 15-6.716 15-15v-127.922c30.917-22.035 52.293-56.622 56.644-96.256h10.641c8.284 0 15-6.716 15-15s-6.716-15-15-15zm-195.418-212.991h98.133v100.578c-15.236-5.887-31.779-9.124-49.066-9.124s-33.831 3.237-49.066 9.125v-100.579zm98.133 452.169h-98.133v-96.765c15.236 5.887 31.779 9.125 49.066 9.125s33.831-3.237 49.066-9.124v96.764zm-49.066-117.641c-58.745 0-106.538-47.792-106.538-106.538s47.792-106.538 106.538-106.538c58.562 0 106.234 47.496 106.531 105.989-.007.184-.028.363-.028.549s.021.365.028.549c-.297 58.494-47.97 105.989-106.531 105.989z"/><path d="m243.439 179.785h-.059c-8.284.032-14.974 6.772-14.943 15.057l.218 57.497-30.317 34.322c-5.484 6.209-4.897 15.688 1.312 21.173 2.853 2.52 6.396 3.758 9.925 3.758 4.152 0 8.284-1.713 11.248-5.069l34.097-38.601c2.435-2.756 3.771-6.31 3.758-9.987l-.24-63.206c-.031-8.266-6.741-14.944-14.999-14.944z"/><circle cx="243.678" cy="75.641" r="15.099"/>
</symbol>
<symbol id="icon-briefcase" viewBox="0 0 512 512">
<title>briefcase</title>
<path d="m511.684 105.598c.189-7.672-6.42-15.43-15-15.225h-134.241v-49.433c0-8.284-6.716-15-15-15h-183.197c-8.284 0-15 6.716-15 15v49.433h-134.241c-7.642-.098-15.219 6.618-15 15v365.375c0 8.284 6.716 15 15 15h481.68c8.284 0 15-6.716 15-15v-365.081c0-.023-.001-.046-.001-.069zm-172.133 178.571c-6.421-22.945-27.504-39.83-52.471-39.83h-62.47c-24.967 0-46.051 16.884-52.472 39.83h-58.844c-12.603 0-23.812-7.989-27.893-19.878l-49.39-143.917h439.901l-47.592 143.622c-3.999 12.066-15.248 20.173-27.992 20.173zm-52.471 39.155h-62.47c-13.505 0-24.492-10.987-24.492-24.492s10.987-24.492 24.492-24.492h62.47c13.505 0 24.491 10.987 24.491 24.492s-10.986 24.492-24.491 24.492zm-107.834-267.384h153.197v34.433h-153.197zm-149.241 399.808v-260.457l27.022 78.738c8.24 24.009 30.852 40.14 56.268 40.14h59.036c6.642 22.601 27.558 39.155 52.28 39.155h62.47c24.722 0 45.637-16.554 52.279-39.155h60.969c25.701 0 48.395-16.371 56.469-40.737l24.888-75.106v257.422z"/>
</symbol>
<symbol id="icon-web-design" viewBox="0 0 512 512">
<title>web-design</title>
<path d="m462.662 0h-413.502c-26.986 0-48.942 22.021-48.942 49.09v309.629c0 27.068 21.955 49.09 48.942 49.09h122.598l-11.568 73.895h-22.74c-8.271 0-14.976 6.725-14.976 15.021s6.705 15.021 14.976 15.021c50.178.115 186.983.09 236.923 0 8.271 0 14.976-6.725 14.976-15.021s-6.705-15.021-14.976-15.021h-24.791l-10.384-73.895h123.465c26.988 0 48.943-22.021 48.943-49.09v-309.629c-.001-27.069-21.956-49.09-48.944-49.09zm-413.502 30.043h413.502c10.472 0 18.99 8.544 18.99 19.047v226.409h-451.481v-226.409c0-10.503 8.518-19.047 18.989-19.047zm270.172 451.66h-128.823l11.568-73.895h106.871zm143.33-103.937h-413.502c-10.471 0-18.989-8.544-18.989-19.047v-53.177h451.482v53.177c-.001 10.502-8.519 19.047-18.991 19.047z"/><path d="m66.566 232.007c.659 7.049 6.799 13.745 14.905 13.609h152.93c7.541.132 15.238-6.628 14.976-15.021v-150.382c.053-7.675-6.512-15.207-14.976-15.021h-152.93c-7.547-.129-15.234 6.633-14.976 15.021v150.382c.021.534.019.381.071 1.412zm152.859-37.175-40.096-39.428 40.096-39.428zm-21.692 20.741h-79.594l39.797-39.134zm-39.797-81.205-39.797-39.134h79.594zm-21.392 21.036-40.096 39.428v-78.856z"/><path d="m330.26 93.231h100.061c8.271 0 14.976-6.725 14.976-15.021s-6.705-15.021-14.976-15.021h-100.061c-8.271 0-14.976 6.725-14.976 15.021s6.705 15.021 14.976 15.021z"/><path d="m330.26 245.616h100.061c8.271 0 14.976-6.725 14.976-15.021v-90.695c0-8.296-6.705-15.021-14.976-15.021h-100.061c-8.271 0-14.976 6.725-14.976 15.021v90.695c0 8.295 6.705 15.021 14.976 15.021zm14.977-90.695h70.109v60.652h-70.109z"/>
</symbol>
<symbol id="icon-process" viewBox="0 0 512 512">
<title>process</title>
<path d="m496.709 199.298h-47.39c-3.255-10.658-7.387-21.023-12.356-30.994l37.176-37.177c2.813-2.813 4.394-6.628 4.394-10.606 0-3.979-1.58-7.793-4.394-10.606l-66.149-66.149c-5.857-5.858-15.355-5.858-21.213 0l-36.002 36.001c-10.123-5.393-20.684-9.908-31.574-13.501v-51.102c0-8.284-6.716-15-15-15h-93.548c-8.284 0-15 6.716-15 15v50.013c-11.408 3.54-22.478 8.091-33.096 13.605l-32.405-32.405c-5.857-5.858-15.355-5.857-21.213 0l-66.148 66.148c-5.858 5.857-5.858 15.355 0 21.213l32.654 32.655c-5.416 10.573-9.878 21.579-13.341 32.905h-47.104c-8.284 0-15 6.716-15 15v93.548c0 8.284 6.716 15 15 15h48.738c3.547 10.595 7.969 20.874 13.223 30.737l-34.823 34.822c-2.813 2.813-4.394 6.628-4.394 10.607 0 3.978 1.58 7.793 4.394 10.606l66.148 66.148c5.857 5.858 15.355 5.858 21.213 0l35.996-35.996c9.123 4.549 18.57 8.397 28.259 11.51v45.265c0 8.284 6.716 15 15 15h93.548c8.284 0 15-6.716 15-15v-45.15c10.495-3.351 20.709-7.565 30.543-12.603l37.301 37.3c5.856 5.857 15.354 5.858 21.213 0l66.149-66.148c2.813-2.813 4.394-6.628 4.394-10.607 0-3.978-1.58-7.793-4.394-10.606l-37.053-37.053c4.819-9.284 8.908-18.924 12.228-28.833h49.026c8.284 0 15-6.716 15-15v-93.548c0-8.283-6.716-14.999-15-14.999zm-15 93.548h-45.146c-6.768 0-12.696 4.531-14.474 11.061-4.075 14.974-10.176 29.34-18.133 42.699-3.513 5.898-2.573 13.428 2.281 18.282l34.45 34.45-44.937 44.935-34.649-34.649c-4.832-4.831-12.314-5.788-18.203-2.328-13.89 8.158-28.799 14.308-44.315 18.276-6.639 1.698-11.282 7.68-11.282 14.532v41.44h-63.548v-41.533c0-6.841-4.629-12.815-11.253-14.524-14.775-3.812-29.007-9.601-42.298-17.207-5.873-3.362-13.271-2.374-18.057 2.413l-33.254 33.253-44.936-44.935 32.312-32.31c4.899-4.899 5.806-12.515 2.193-18.427-8.443-13.82-14.88-28.748-19.13-44.367-1.776-6.53-7.706-11.062-14.474-11.062h-44.856v-63.548h43.546c6.926 0 12.951-4.742 14.58-11.474 3.942-16.301 10.273-31.941 18.815-46.485 3.46-5.89 2.503-13.373-2.327-18.203l-30.004-30.004 44.936-44.935 29.803 29.802c4.854 4.855 12.383 5.794 18.282 2.281 14.546-8.664 30.23-15.107 46.617-19.151 6.698-1.653 11.405-7.663 11.405-14.563v-46.401h63.548v47.276c0 6.793 4.565 12.739 11.129 14.492 15.9 4.248 31.086 10.754 45.137 19.338 5.912 3.611 13.528 2.705 18.427-2.194l33.49-33.49 44.936 44.935-34.434 34.434c-4.786 4.786-5.774 12.183-2.412 18.057 8.025 14.023 14.021 29.101 17.823 44.813 1.628 6.731 7.653 11.473 14.579 11.473h43.833z"/><path d="m142.404 236.42c3.081 4.825 9.663 8.186 16.273 6.409l26.568-6.712c8.032-2.029 12.898-10.185 10.869-18.217-1.742-6.896-8.005-11.446-14.823-11.313 16.242-24.174 43.84-39.583 74.093-39.583 38.881 0 72.994 24.844 84.888 61.82 2.537 7.886 10.982 12.225 18.872 9.687 7.887-2.537 12.224-10.986 9.687-18.872-15.897-49.426-61.488-82.635-113.446-82.635-43.021 0-82.044 23.314-103.021 59.266-4.705-5.953-13.242-7.507-19.793-3.352-6.996 4.437-9.07 13.706-4.633 20.701l14.398 22.701c.022.034.046.066.068.1z"/><path d="m369.514 275.613c-3.065-4.894-9.498-8.594-16.483-6.733l-26.568 6.711c-8.032 2.029-12.898 10.185-10.869 18.217 1.718 6.799 7.825 11.33 14.532 11.33.095 0 .191-.007.286-.009-16.243 24.17-43.839 39.575-74.088 39.575-38.88 0-72.993-24.844-84.888-61.82-2.537-7.886-10.987-12.225-18.873-9.686-7.886 2.537-12.223 10.986-9.686 18.873 15.898 49.426 61.489 82.634 113.446 82.634 43.021 0 82.044-23.314 103.021-59.265 4.705 5.953 13.243 7.506 19.793 3.352 6.996-4.438 9.07-13.706 4.633-20.701z"/>
</symbol>
<symbol id="icon-graphic" viewBox="0 0 512 512">
<title>graphic</title>
<path d="m436.007 74.807c-48.24-48.24-112.378-74.807-180.6-74.807s-132.36 26.567-180.6 74.807c-48.24 48.24-74.807 112.378-74.807 180.6 0 34.598 6.802 68.159 20.217 99.75 40.151 94.558 132.469 155.657 235.189 155.657 8.284 0 15-6.716 15-15 0-.037-.005-.073-.006-.109 0-.037.006-.072.006-.109v-225.189h225.104c.051 0 .1-.007.151-.008.051 0 .1.008.151.008 8.284 0 15-6.716 15-15 .002-68.222-26.565-132.36-74.805-180.6zm44.304 165.6h-209.904v-209.904c54.562 3.561 105.368 26.499 144.387 65.517s61.955 89.825 65.517 144.387zm-384.291-144.387c39.018-39.018 89.825-61.956 144.387-65.517v217.042l-178.538 123.523c-5.251-8.797-9.954-18.018-14.039-27.636-11.831-27.863-17.83-57.479-17.83-88.025 0-60.209 23.447-116.813 66.02-159.387zm-17.095 299.728 161.482-111.723v196.285c-64.089-4.23-122.421-35.399-161.482-84.562z"/><path d="m468.815 299.594h-154.159c-8.284 0-15 6.716-15 15v154.158c0 8.284 6.716 15 15 15 93.274 0 169.158-75.884 169.158-169.158.001-8.284-6.715-15-14.999-15zm-139.159 153.355v-123.355h123.355c-6.973 64.775-58.579 116.381-123.355 123.355z"/>
</symbol>
<symbol id="icon-target" viewBox="0 0 512 512">
<title>target</title>
<path d="m507.662 107.829c3.51-3.509 5.056-8.527 4.13-13.403-.925-4.876-4.203-8.979-8.754-10.958l-50.566-21.993-17.745-51.242c-1.691-4.883-5.777-8.552-10.813-9.71-5.035-1.156-10.313.358-13.968 4.012l-28.604 28.604c-38.487-21.293-82.598-32.929-125.489-32.929-68.341 0-132.591 26.613-180.916 74.938s-74.937 112.574-74.937 180.914 26.613 132.591 74.938 180.915c48.324 48.324 112.575 74.938 180.916 74.938s132.591-26.613 180.916-74.938c48.324-48.324 74.938-112.574 74.938-180.915 0-42.573-10.59-84.351-30.71-121.567zm-105.065 62.64-31-8.319 72.206-71.731 27.07 11.774zm-5.649 85.593c0 77.8-63.295 141.095-141.095 141.095s-141.095-63.295-141.095-141.095 63.295-141.095 141.095-141.095c23.427 0 43.393 4.622 62.508 14.492l7.735 35.604-19.021 18.896c-14.465-10.306-32.148-16.373-51.223-16.373-48.787 0-88.477 39.69-88.477 88.477s39.69 88.477 88.477 88.477 88.477-39.69 88.477-88.477c0-18.903-5.962-36.439-16.1-50.831l18.75-18.627 36.891 9.9c8.906 18.238 13.078 37.258 13.078 59.557zm-82.618 0c0 32.244-26.233 58.477-58.477 58.477s-58.477-26.233-58.477-58.477 26.233-58.477 58.477-58.477c10.738 0 20.801 2.922 29.459 7.994l-40.554 40.287c-5.877 5.838-5.908 15.336-.07 21.213 2.932 2.951 6.786 4.428 10.642 4.428 3.822 0 7.646-1.452 10.571-4.358l40.573-40.306c4.986 8.605 7.856 18.58 7.856 29.219zm99.888-213.374 8.975 25.916-71.846 71.374-6.143-28.275zm67.488 213.374c0 60.328-23.493 117.044-66.151 159.702s-99.375 66.15-159.702 66.15-117.044-23.493-159.702-66.15c-42.658-42.658-66.151-99.374-66.151-159.702s23.493-117.044 66.151-159.701c42.658-42.658 99.375-66.151 159.702-66.151 35.067 0 71.102 8.835 103.301 25.116l-40.954 40.954c-.04.04-.075.082-.115.122-19.245-7.671-39.768-11.435-62.233-11.435-94.342 0-171.095 76.753-171.095 171.095s76.753 171.095 171.095 171.095 171.095-76.753 171.095-171.095c0-21.124-3.138-39.913-9.738-57.826.157-.144.322-.277.474-.429l41.048-41.048c15.076 30.778 22.975 64.742 22.975 99.303z"/>
</symbol>
<symbol id="icon-video" viewBox="0 0 512 512">
<title>video</title>
<path d="m466.562 104.389h-421.291c-24.962 0-45.271 20.309-45.271 45.271v212.512c0 24.962 20.309 45.271 45.271 45.271h421.291c24.962 0 45.271-20.309 45.271-45.271v-212.512c0-24.962-20.309-45.271-45.271-45.271zm15.271 257.784c0 8.42-6.851 15.271-15.271 15.271h-421.291c-8.421 0-15.271-6.851-15.271-15.271v-212.513c0-8.421 6.851-15.271 15.271-15.271h421.291c8.42 0 15.271 6.851 15.271 15.271z"/><circle cx="436.977" cy="256.255" r="15.099"/><path d="m75.194 216.069c-8.284 0-15 6.716-15 15v50.372c0 8.284 6.716 15 15 15s15-6.716 15-15v-50.372c0-8.284-6.715-15-15-15z"/><path d="m307.772 240.633-88.863-50.619c-8.403-5.184-22.629 1.055-22.424 13.034v105.736c.183 10.47 11.612 19.243 22.906 12.747l88.864-55.118c8.909-5.167 9.59-20.032-.483-25.78zm-81.288 41.197v-52.975l44.521 25.36z"/>
</symbol>
<symbol id="icon-investigate" viewBox="0 0 512 512">
<title>investigate</title>
<path d="m512.76 161.778c-.05-89.155-72.623-161.729-161.779-161.778h-.091c-43.161 0-83.729 16.799-114.236 47.306-30.522 30.523-47.321 71.115-47.305 114.302v.009.017c.021 39.224 14.08 75.237 37.413 103.278l-36.945 36.986-13.838-13.854c-2.813-2.817-6.632-4.4-10.612-4.4-.001 0-.001 0-.001 0-3.98 0-7.799 1.583-10.612 4.399l-138.824 138.962c-20.288 20.308-21.087 52.554-1.782 71.883 9.047 9.058 21.244 14.047 34.345 14.048h.003c13.855 0 27.566-5.77 37.615-15.828l40.553-40.594c.106-.1.212-.203.316-.307.108-.108.213-.216.316-.326l97.581-97.678c5.85-5.856 5.851-15.345.001-21.202l-13.861-13.878 36.969-37.01c28.021 23.264 63.981 37.277 103.141 37.299h.092c43.16 0 83.728-16.798 114.234-47.304 30.523-30.523 47.323-71.116 47.307-114.303 0-.003 0-.006 0-.009zm-447.874 314.127c-4.464 4.468-10.438 7.031-16.393 7.03-5.08 0-9.739-1.864-13.119-5.248-7.629-7.637-6.83-20.862 1.779-29.479l30.292-30.322 27.715 27.714zm51.476-51.528-27.715-27.715 76.717-76.794 27.698 27.731zm365.539-277.599-63.014-.035c-2.294-52.921-16.544-88.647-30.435-111.29 49.803 14.833 87.384 58.372 93.449 111.325zm-261.693 29.856 63.69.035c2.303 53.11 16.647 88.902 30.584 111.533-50.213-14.596-88.177-58.323-94.274-111.568zm131.228 111.425c-4.15-4.695-9.376-11.559-14.573-20.938-9.569-17.268-20.802-46.469-22.928-90.435l74.915.041c-2.124 43.797-13.297 72.97-22.829 90.262-5.202 9.434-10.433 16.343-14.585 21.07zm-37.501-141.374c2.123-43.797 13.297-72.97 22.829-90.262 5.201-9.435 10.432-16.345 14.584-21.071 4.15 4.695 9.376 11.559 14.574 20.938 9.569 17.268 20.801 46.469 22.928 90.436zm-56.068-78.166c16.025-16.026 35.459-27.404 56.671-33.463-13.933 22.629-28.325 58.464-30.639 111.613l-63.722-.035c3.306-29.507 16.396-56.821 37.69-78.115zm186.373 186.375c-15.818 15.818-34.957 27.109-55.849 33.224 13.887-22.641 28.187-58.412 30.493-111.375l63.046.035c-3.304 29.506-16.396 56.821-37.69 78.116z"/>
</symbol>
<symbol id="icon-computer-mouse" viewBox="0 0 512 512">
<title>computer-mouse</title>
<path d="m496.824 114.316h-66.044c-8.284 0-15 6.716-15 15v135.112c0 21.242 13.869 39.295 33.022 45.61v140.3c0 17.781-14.466 32.247-32.247 32.247-17.78 0-32.246-14.466-32.246-32.247v-353.61c0-53.336-43.391-96.728-96.727-96.728h-45.326c-46.08 0-84.731 32.39-94.396 75.597-82.176 6.479-147.061 75.416-147.061 159.227v118.069c0 88.075 71.654 159.729 159.729 159.729s159.729-71.654 159.729-159.729v-118.069c0-81.899-61.961-149.587-141.466-158.679 8.697-26.749 33.852-46.145 63.465-46.145h45.326c36.794 0 66.728 29.934 66.728 66.728v353.61c0 34.323 27.924 62.247 62.246 62.247 34.323 0 62.247-27.924 62.247-62.247v-140.3c19.154-6.315 33.021-24.368 33.021-45.61v-135.112c0-8.284-6.716-15-15-15zm-336.296 127.852c-15.093 0-27.371-12.278-27.371-27.371s12.278-27.371 27.371-27.371 27.371 12.279 27.371 27.371-12.278 27.371-27.371 27.371zm-15-136.201v53.461c-24.381 6.612-42.371 28.923-42.371 55.369 0 26.445 17.99 48.756 42.371 55.368v37.143h-114.729v-72.484c0-66.459 50.237-121.397 114.729-128.857zm15 376.656c-71.533 0-129.729-58.196-129.729-129.729v-15.585h259.459v15.585c0 71.532-58.197 129.729-129.73 129.729zm129.73-247.799v72.484h-114.73v-37.143c24.381-6.612 42.371-28.923 42.371-55.368s-17.99-48.756-42.371-55.369v-53.461c64.493 7.46 114.73 62.398 114.73 128.857zm191.566-90.508v74.018h-36.044v-74.018zm-18.022 138.134c-9.938 0-18.022-8.084-18.022-18.022v-16.094h36.044v16.094c0 9.937-8.084 18.022-18.022 18.022z"/>
</symbol>
<symbol id="icon-laptop" viewBox="0 0 512 512">
<title>laptop</title>
<path d="m496.999 333.491h-20.596v-280.356c0-8.284-6.716-15.001-15.001-15.001h-410.805c-8.284 0-15.001 6.716-15.001 15.001v280.356h-20.595c-8.285 0-15.001 6.717-15.001 15.001v68.045c0 31.612 25.718 57.33 57.33 57.33h397.34c31.612 0 57.33-25.718 57.33-57.33v-68.045c0-8.285-6.715-15.001-15.001-15.001zm-431.402-265.355h380.805v265.356h-380.805zm136.513 295.357h107.782v19.249c0 2.68-2.18 4.859-4.86 4.859h-98.063c-2.68 0-4.86-2.18-4.86-4.859zm279.889 53.043c0 15.069-12.259 27.329-27.329 27.329h-397.34c-15.07 0-27.329-12.26-27.329-27.329v-53.044h142.107v19.249c0 19.223 15.639 34.86 34.861 34.86h98.063c19.223 0 34.861-15.639 34.861-34.86v-19.249h142.107z"/><path d="m235.492 124.346h41.017c8.284 0 15.001-6.716 15.001-15.001s-6.716-15.001-15.001-15.001h-41.017c-8.284 0-15.001 6.716-15.001 15.001s6.716 15.001 15.001 15.001z"/><path d="m272.239 278.553c5.661 3.927 13.27 3.491 18.448-1.055l77.08-67.691-.868 8.346c-.857 8.24 5.128 15.615 13.368 16.473.527.055 1.051.081 1.57.081 7.587 0 14.1-5.737 14.902-13.45l4.831-46.444c1.824-16.429-10.223-16.618-14.923-16.551h-51.468c-8.284 0-15.001 6.716-15.001 15.001 0 8.284 6.716 15.001 15.001 15.001h11.658l-67.133 58.956-82.175-56.996c-6.174-4.283-14.562-3.336-19.626 2.21l-72.408 79.288c-5.586 6.117-5.156 15.606.961 21.192 2.877 2.628 6.499 3.924 10.111 3.924 4.067 0 8.122-1.645 11.081-4.885l63.561-69.602z"/>
</symbol>
<symbol id="icon-document" viewBox="0 0 512 512">
<title>document</title>
<path d="m472.466 32.786h-75.21c-.142 0-.279.017-.419.021-.284-.006-.565-.021-.85-.021h-125.632c-.085 0-.166.011-.251.013h-6.216v-10.707c0-12.083-9.783-21.914-21.808-21.914h-129.423c-11.917 0-21.613 9.742-21.613 21.718v10.903h-55.63c-19.527-.001-35.414 15.962-35.414 35.585v407.301c0 19.622 15.887 35.585 35.414 35.585h234.909l125.663.263c.376 0 .748-.018 1.122-.028.05 0 .099.008.149.008l75.078-.009c10.455.139 20.326-3.796 27.797-11.158 7.466-7.357 11.578-17.151 11.578-27.579v-401.932c0-21.336-17.238-38.049-39.244-38.049zm-67.13 440.019c0 4.791-4.195 8.689-9.319 8.689l-41.549-.087c.301-1.864.464-3.774.464-5.722v-407.301c0-1.891-.151-3.747-.435-5.559h41.489c5.156 0 9.35 3.899 9.35 8.69zm-171.342-442.588c-.003 9.983-.002 28.876 0 39.071h-113.055c0-9.849.001-29.222 0-39.071zm-204.1 445.467v-407.3c0-3.059 2.476-5.546 5.52-5.546h55.631v12.733c0 13.099 10.605 23.756 23.641 23.756h125.561c13.036 0 23.642-10.657 23.642-23.756v-12.734h55.631c3.043 0 5.52 2.488 5.52 5.546v407.301c0 3.059-2.476 5.546-5.52 5.546h-284.106c-3.044.001-5.52-2.487-5.52-5.546zm451.922-2.917c0 2.292-.929 4.471-2.615 6.132-1.001.987-3.156 2.634-6.444 2.569-.098-.002-.196-.003-.293-.003l-38.236.004c.648-2.788 1.003-5.685 1.003-8.664v-401.29c0-2.988-.356-5.894-1.009-8.69h38.244c5.331 0 9.351 3.444 9.351 8.01v401.932z"/><path d="m269.203 198.236c9.154-6.434 15.259-16.072 17.19-27.139 1.929-11.05-.537-22.204-6.942-31.405-6.406-9.202-15.987-15.354-26.98-17.322-11.009-1.972-22.112.486-31.265 6.921-18.883 13.272-23.48 39.536-10.247 58.545 3.807 5.469 8.742 9.85 14.422 12.926l-7.09 38.757c-7.138.58-14.217 2.998-20.494 7.411-9.333 6.561-15.169 16.297-17.094 26.76l-44.455 7.344c-.1-.147-.192-.299-.293-.445 0 0 0-.001-.001-.001-13.232-19.009-39.361-23.674-58.245-10.401-18.882 13.274-23.479 39.538-10.246 58.545 8.141 11.695 21.161 17.96 34.375 17.96 2.567 0 5.142-.237 7.689-.717l22.834 32.801c-3.251 4.831-5.49 10.337-6.523 16.259-1.929 11.05.537 22.204 6.942 31.405 6.406 9.202 15.987 15.354 26.98 17.322 2.479.444 4.96.664 7.425.664 8.483-.001 16.747-2.599 23.839-7.585 9.154-6.434 15.259-16.072 17.19-27.139 1.929-11.05-.537-22.204-6.942-31.405-6.406-9.202-15.987-15.354-26.98-17.322-5.891-1.055-11.806-.83-17.437.582l-21.867-31.411c4.379-5.812 7.155-12.659 8.127-19.803l42.992-7.102c.458.754.932 1.501 1.443 2.234 8.141 11.695 21.161 17.961 34.375 17.96 8.264 0 16.604-2.451 23.87-7.559 18.883-13.275 23.479-39.538 10.246-58.546v.001c-2.54-3.649-5.559-6.764-8.907-9.33l7.929-43.341c5.007-1.215 9.795-3.369 14.14-6.424zm-30.861-44.331c4.212-3.038 12.26-3.124 16.613 3.005 1.837 2.64 2.545 5.836 1.993 8.999-1.24 9.006-14.732 14.082-21.494 4.709-3.783-5.437-2.488-12.934 2.888-16.713zm-146.385 157.608c-3.784-5.437-2.489-12.934 2.887-16.713 2.062-1.449 4.428-2.143 6.777-2.143 3.775 0 7.503 1.796 9.836 5.147.473.681.876 1.403 1.198 2.148 2.244 5.199.526 11.325-4.084 14.566-5.377 3.778-12.83 2.431-16.614-3.005zm77.09 79.033c3.146.563 5.891 2.327 7.728 4.967 1.837 2.64 2.545 5.836 1.993 8.999-.549 3.148-2.282 5.887-4.881 7.713-2.598 1.828-5.753 2.524-8.885 1.962-3.146-.563-5.891-2.327-7.729-4.967-1.837-2.64-2.545-5.836-1.993-8.999 1.154-5.099 6.086-11.035 13.767-9.675zm59.612-99.285c-5.377 3.778-12.83 2.431-16.614-3.005-3.784-5.437-2.489-12.934 2.886-16.713 4.255-3.016 11.734-3.292 16.614 3.005v.001c3.785 5.436 2.49 12.933-2.886 16.712z"/>
</symbol>
<symbol id="icon-calendar" viewBox="0 0 512 512">
<title>calendar</title>
<path d="m198.749 220.65h-34.304c-8.284 0-15 6.716-15 15s6.716 15 15 15h19.304v141.921c0 8.284 6.716 15 15 15s15-6.716 15-15v-156.921c0-8.284-6.716-15-15-15z"/><path d="m349.529 220.65h-83.701c-8.284 0-15 6.716-15 15s6.716 15 15 15h63.819l-39.34 137.803c-2.274 7.967 2.34 16.268 10.306 18.542 1.377.393 2.762.58 4.126.58 6.528-.001 12.535-4.297 14.416-10.887l44.798-156.92c1.292-4.526.385-9.396-2.449-13.152-2.835-3.757-7.269-5.966-11.975-5.966z"/><path d="m511.701 394.119v-338.887c0-8.284-6.716-15-15-15h-45.655v-25.002c0-8.284-6.716-15-15-15s-15 6.716-15 15v25.002h-59.778v-25.002c0-8.284-6.716-15-15-15s-15 6.716-15 15v25.002h-59.778v-25.002c0-8.284-6.716-15-15-15s-15 6.716-15 15v25.002h-59.778v-24.637c0-8.284-6.716-15-15-15s-15 6.716-15 15v24.638h-59.777v-24.638c0-8.284-6.716-15-15-15s-15 6.716-15 15v24.638h-46.935c-8.284 0-15 6.716-15 15v441.238c0 8.284 6.716 15 15 15h481.701c8.284 0 15-6.716 15-15v-102.314c0-.013 0-.026 0-.038zm-449.766-323.887v17.118c0 8.284 6.716 15 15 15s15-6.716 15-15v-17.118h59.778v17.118c0 8.284 6.716 15 15 15s15-6.716 15-15v-17.118h59.778v16.753c0 8.284 6.716 15 15 15s15-6.716 15-15v-16.753h59.777v16.753c0 8.284 6.716 15 15 15s15-6.716 15-15v-16.753h59.778v16.753c0 8.284 6.716 15 15 15s15-6.716 15-15v-16.753h30.655v58.784h-451.701v-58.784zm-31.935 88.785h451.701v219.001l-93.684-6.668c-4.346-.31-8.595 1.278-11.669 4.353-3.075 3.073-4.666 7.33-4.359 11.666l6.648 94.103h-348.637zm373.133 243.484 59.807 4.257-55.565 55.773zm27.719 78.97 50.849-51.039v51.039z"/>
</symbol>
<symbol id="icon-analysis" viewBox="0 0 512 512">
<title>analysis</title>
<path d="m471.085 102.673h-123.44l-81.383-81.562c-2.806-2.813-6.613-4.394-10.583-4.394s-7.777 1.58-10.583 4.394l-81.384 81.562h-122.797c-22.561 0-40.915 18.393-40.915 41.003v38.688c0 8.284 6.701 15 14.967 15h4.28v264.801c0 18.262 14.726 33.118 32.827 33.118h409.738c18.244 0 33.088-14.976 33.088-33.384v-264.536h2.133c8.266 0 14.967-6.716 14.967-15v-38.688c0-22.609-18.354-41.002-40.915-41.002zm-215.406-49.742 49.633 49.742h-99.267zm-225.744 90.745c0-6.067 4.926-11.003 10.98-11.003 91.75-.006 342.339.021 430.171 0 6.054 0 10.98 4.936 10.98 11.003v23.688h-452.131zm435.03 318.222c0 1.866-1.415 3.384-3.153 3.384h-409.738c-1.595 0-2.892-1.398-2.892-3.118v-264.801h415.783z"/><path d="m122.218 413.298h269.71c8.266 0 14.967-6.716 14.967-15v-72.851c0-14.139-11.477-25.641-25.585-25.641h-41.643v-24.349c0-14.397-11.687-26.11-26.053-26.11h-47.723c-13.115 0-23.785 10.692-23.785 23.836v50.459h-37.294v-34.233c0-14.397-11.687-26.11-26.053-26.11h-47.723c-13.115 0-23.785 10.693-23.785 23.837v111.162c0 8.284 6.701 15 14.967 15zm254.743-83.491v53.491h-37.294v-53.491zm-104.92-50.459h37.692v103.95h-37.692zm-29.935 74.295v29.655h-37.294v-29.655zm-104.92-60.344h37.692v89.999h-37.692z"/>
</symbol>
<symbol id="icon-folder" viewBox="0 0 512 512">
<title>folder</title>
<path d="m95.241 116.464h168.904c8.284 0 15-6.716 15-15s-6.716-15-15-15h-168.904c-8.284 0-15 6.716-15 15s6.716 15 15 15z"/><path d="m95.241 178.729h168.904c8.284 0 15-6.716 15-15s-6.716-15-15-15h-168.904c-8.284 0-15 6.716-15 15s6.716 15 15 15z"/><path d="m497.21 115.642h-137.823v-41.328c0-.095-.001-.19-.003-.285l-.771-40.587c-.162-17.993-14.9-32.612-32.909-32.612h-292.794c-18.146 0-32.91 14.764-32.91 32.91v462.64c0 8.284 6.716 15 15 15h482.21c8.284 0 15-6.716 15-15v-365.738c0-8.285-6.716-15-15-15zm-15 30v32.863h-122.823v-32.863zm-449.3-114.812h292.793c1.597 0 2.901 1.299 2.91 2.895.001.068.001.137.003.205l.771 40.528v109.945c-.592.776-1.118 1.612-1.558 2.509l-39.021 79.748h-258.808v-232.92c0-1.604 1.306-2.91 2.91-2.91zm449.3 450.55h-452.21v-184.72h268.167c5.728 0 10.956-3.262 13.474-8.407l39.021-79.748h131.548z"/>
</symbol>
<symbol id="icon-folder-2" viewBox="0 0 512 512">
<title>folder</title>
<path d="m497.21 442.292h-482.21c-8.284 0-15-6.716-15-15v-284.386c0-8.284 6.716-15 15-15h291.262l21.284-48.967c2.381-5.478 7.784-9.021 13.757-9.021h155.907c8.284 0 15 6.716 15 15v342.373c0 8.285-6.715 15.001-15 15.001zm-467.21-30h452.21v-312.373h-131.071l-21.147 48.651c-.084.208-.174.414-.268.616l-30.15 69.365c-2.381 5.478-7.784 9.021-13.757 9.021h-255.817zm0-214.72h245.981l17.241-39.666h-263.222z"/>
</symbol>
<symbol id="icon-cabinet" viewBox="0 0 512 512">
<title>cabinet</title>
<path d="m95.419 197.672c-8.284 0-15 6.716-15 15v108.425c0 8.284 6.716 15 15 15s15-6.716 15-15v-108.425c0-8.284-6.716-15-15-15z"/><path d="m256.029 197.672c-8.284 0-15 6.716-15 15v108.425c0 8.284 6.716 15 15 15s15-6.716 15-15v-108.425c0-8.284-6.716-15-15-15z"/><path d="m496.944 0h-481.83c-8.284 0-15 6.716-15 15v482.058c0 8.284 6.716 15 15 15h481.83c8.284 0 15-6.716 15-15v-482.058c0-8.284-6.716-15-15-15zm-15 380.651h-130.61v-350.651h130.61zm-160.61 0h-130.61v-350.651h130.61zm-160.61-350.651v350.651h-130.61v-350.651zm-130.61 380.651h130.61v71.406h-130.61zm160.61 0h130.61v71.406h-130.61zm160.61 71.407v-71.406h130.61v71.406z"/><path d="m416.639 197.672c-8.284 0-15 6.716-15 15v108.425c0 8.284 6.716 15 15 15s15-6.716 15-15v-108.425c0-8.284-6.716-15-15-15z"/><ellipse cx="95.419" cy="120.299" rx="15.099" ry="15.099" transform="matrix(.383 -.924 .924 .383 -52.238 162.418)"/><circle cx="252.892" cy="120.299" r="15.099"/><circle cx="416.639" cy="120.299" r="15.099"/>
</symbol>
<symbol id="icon-reunion" viewBox="0 0 512 512">
<title>reunion</title>
<path d="m454.405 315.725c-12.236 0-23.587 3.834-32.938 10.348-9.809-22.643-32.367-38.529-58.573-38.529h-.394v-59.676h.393c26.207 0 48.764-15.886 58.573-38.53 9.352 6.514 20.703 10.348 32.938 10.348 31.859 0 57.778-25.919 57.778-57.777 0-31.859-25.919-57.778-57.778-57.778-12.236 0-23.587 3.834-32.938 10.348-9.809-22.644-32.367-38.53-58.573-38.53h-.393v-40.949c0-8.284-6.716-15-15-15h-182.635c-8.284 0-15 6.716-15 15v40.949h-.393c-26.206 0-48.764 15.886-58.574 38.53-9.352-6.514-20.703-10.348-32.938-10.348-31.859 0-57.778 25.919-57.778 57.778 0 31.858 25.919 57.777 57.778 57.777 12.235 0 23.586-3.834 32.938-10.348 9.809 22.644 32.367 38.529 58.574 38.529h.393v59.676h-.393c-26.206 0-48.764 15.885-58.574 38.529-9.352-6.514-20.703-10.348-32.938-10.348-31.859 0-57.778 25.919-57.778 57.778s25.919 57.778 57.778 57.778c12.235 0 23.587-3.834 32.938-10.348 9.81 22.643 32.367 38.529 58.574 38.529h.393v37.903c0 8.284 6.716 15 15 15h182.635c8.284 0 15-6.716 15-15v-37.903h.393c26.206 0 48.764-15.885 58.573-38.529 9.352 6.514 20.703 10.348 32.938 10.348 31.859 0 57.778-25.919 57.778-57.778s-25.918-57.777-57.777-57.777zm0-201.594c15.317 0 27.778 12.461 27.778 27.778 0 15.316-12.461 27.777-27.778 27.777-14.678 0-26.725-11.445-27.706-25.877v-3.8c.98-14.434 13.027-25.878 27.706-25.878zm-91.512-28.182c18.641 0 33.806 15.166 33.806 33.807-.009 12.103-.012 31.641 0 44.307 0 18.641-15.165 33.806-33.806 33.806h-.393v-111.92zm-304.933 83.738c-15.317 0-27.778-12.461-27.778-27.777 0-15.317 12.461-27.778 27.778-27.778 14.678 0 26.725 11.445 27.706 25.878v3.8c-.981 14.432-13.028 25.877-27.706 25.877zm91.512 28.181c-18.641 0-33.806-15.165-33.806-33.806.009-12.103.012-31.641 0-44.307 0-18.641 15.166-33.807 33.806-33.807h.393v111.919h-.393zm-91.512 203.413c-15.317 0-27.778-12.461-27.778-27.778s12.461-27.778 27.778-27.778c14.678 0 26.725 11.445 27.706 25.878v3.8c-.981 14.434-13.028 25.878-27.706 25.878zm91.512 28.181c-18.641 0-33.806-15.165-33.806-33.806.009-12.103.012-31.641 0-44.307 0-18.641 15.166-33.806 33.806-33.806h.393v111.918h-.393zm183.028 52.903h-152.635v-452.365h152.635zm30.393-52.903h-.393v-111.918h.393c18.641 0 33.806 15.165 33.806 33.806-.009 12.103-.012 31.641 0 44.307-.001 18.64-15.166 33.805-33.806 33.805zm91.512-28.181c-14.678 0-26.725-11.445-27.706-25.878v-3.8c.981-14.434 13.028-25.878 27.706-25.878 15.317 0 27.778 12.461 27.778 27.778s-12.461 27.778-27.778 27.778z"/>
</symbol>
<symbol id="icon-conversation" viewBox="0 0 512 512">
<title>conversation</title>
<path d="m498.122 196.083h-115.95c.035-1.495.057-2.994.057-4.497 0-105.381-85.733-191.115-191.114-191.115s-191.115 85.734-191.115 191.115c0 29.615 6.935 59.016 20.095 85.364l-13.72 79.944c-.869 5.067.917 10.228 4.734 13.672 3.815 3.445 9.132 4.694 14.084 3.313l67.053-18.723c12.648 7.661 26.067 13.765 39.999 18.273v57.395c0 8.284 6.716 15 15 15h206.538l34.253 59.327c2.68 4.641 7.631 7.5 12.99 7.5s10.311-2.859 12.99-7.5l34.253-59.327h49.853c8.284 0 15-6.716 15-15v-219.741c0-8.284-6.716-15-15-15zm-403.506 127.837c-1.35 0-2.707.183-4.033.553l-50.632 14.137 10.562-61.542c.563-3.288.016-6.671-1.558-9.612-12.4-23.181-18.955-49.416-18.955-75.87 0-88.839 72.276-161.115 161.115-161.115s161.114 72.276 161.114 161.115-72.275 161.114-161.114 161.114c-31.507 0-62.029-9.102-88.269-26.321-2.469-1.62-5.333-2.459-8.23-2.459zm388.506 91.904h-43.513c-5.359 0-10.311 2.859-12.99 7.5l-25.593 44.327-25.593-44.327c-2.68-4.641-7.631-7.5-12.99-7.5h-200.198v-35.325c9.501 1.443 19.143 2.201 28.87 2.201 93.605 0 171.701-67.646 187.987-156.617h104.02z"/><path d="m104.534 173.944h173.162c8.284 0 15-6.716 15-15s-6.716-15-15-15h-173.162c-8.284 0-15 6.716-15 15s6.716 15 15 15z"/><path d="m292.696 224.227c0-8.284-6.716-15-15-15h-173.162c-8.284 0-15 6.716-15 15s6.716 15 15 15h173.162c8.284 0 15-6.716 15-15z"/>
</symbol>
<symbol id="icon-camera" viewBox="0 0 512 512">
<title>camera</title>
<circle cx="440.559" cy="160.159" r="15.099"/><path d="m472.935 91.347h-43.76l-29.343-56.735c-2.576-4.981-7.716-8.109-13.323-8.109h-135.964c-5.607 0-10.747 3.128-13.323 8.109l-29.343 56.735h-81.709v-14.076c0-27.994-22.775-50.769-50.77-50.769s-50.77 22.774-50.77 50.769v14.076h-9.63c-8.284 0-15 6.716-15 15v364.361c0 8.284 6.716 15 15 15h457.935c21.656 0 39.275-17.619 39.275-39.275v-315.81c0-21.657-17.619-39.276-39.275-39.276zm-213.26-34.845h117.703l18.022 34.845h-153.747zm-229.675 180.97h95.314v94.966h-95.314zm95.314-30h-95.314v-76.849c0-5.115 4.161-9.276 9.275-9.276h86.039zm-70.683-130.201c0-11.452 9.317-20.769 20.77-20.769s20.77 9.316 20.77 20.769v14.076h-41.54zm-15.356 378.437c-5.114 0-9.275-4.161-9.275-9.275v-83.995h95.314v93.271h-86.039zm433.66-334.361c5.114 0 9.275 4.161 9.275 9.276v315.81c0 5.114-4.161 9.275-9.275 9.275h-317.62v-334.361z"/><path d="m318.526 166.732c-67.233 0-121.933 54.699-121.933 121.934 0 67.233 54.699 121.933 121.933 121.933s121.933-54.699 121.933-121.933-54.699-121.934-121.933-121.934zm0 213.867c-50.691 0-91.933-41.241-91.933-91.933s41.241-91.934 91.933-91.934 91.933 41.241 91.933 91.934c0 50.691-41.241 91.933-91.933 91.933z"/><path d="m318.526 231.846c-31.331 0-56.82 25.489-56.82 56.82s25.489 56.82 56.82 56.82 56.82-25.489 56.82-56.82-25.489-56.82-56.82-56.82zm0 83.64c-14.789 0-26.82-12.031-26.82-26.82s12.031-26.82 26.82-26.82 26.82 12.031 26.82 26.82-12.031 26.82-26.82 26.82z"/>
</symbol>
<symbol id="icon-video-camera" viewBox="0 0 512 512">
<title>video-camera</title>
<path d="m112.751 190.821c28.786 0 52.205-23.419 52.205-52.204s-23.419-52.204-52.205-52.204-52.205 23.419-52.205 52.204 23.419 52.204 52.205 52.204zm0-74.408c12.244 0 22.205 9.961 22.205 22.204s-9.961 22.204-22.205 22.204-22.205-9.961-22.205-22.204 9.961-22.204 22.205-22.204z"/><path d="m315.25 185.898c30.467 0 55.254-24.787 55.254-55.254s-24.787-55.254-55.254-55.254-55.254 24.787-55.254 55.254 24.786 55.254 55.254 55.254zm0-80.508c13.925 0 25.254 11.329 25.254 25.254s-11.329 25.254-25.254 25.254-25.254-11.329-25.254-25.254 11.328-25.254 25.254-25.254z"/><path d="m503.907 242.328c-4.742-2.653-10.546-2.532-15.175.313l-68.156 41.886v-32.375c0-15.587-11.485-28.542-26.437-30.848 25.318-22.059 41.345-54.522 41.345-90.66 0-66.298-53.938-120.235-120.236-120.235-47.416 0-88.505 27.593-108.066 67.562-19.996-31.028-54.854-51.616-94.433-51.616-61.902 0-112.263 50.36-112.263 112.263 0 32.494 13.882 61.803 36.021 82.321h-5.296c-17.209-.001-31.211 14.002-31.211 31.213v217.812c0 17.211 14.002 31.214 31.213 31.214h358.15c17.211 0 31.213-14.003 31.213-31.214v-32.205l68.179 41.731c2.4 1.469 5.113 2.206 7.831 2.206 2.524 0 5.052-.637 7.332-1.914 4.735-2.653 7.667-7.658 7.667-13.086v-211.276c.001-5.433-2.936-10.441-7.678-13.092zm-188.657-201.919c49.756 0 90.236 40.479 90.236 90.235s-40.479 90.235-90.236 90.235c-49.756 0-90.235-40.479-90.235-90.235s40.479-90.235 90.235-90.235zm-284.762 98.208c0-45.359 36.903-82.263 82.263-82.263s82.263 36.903 82.263 82.263-36.903 82.263-82.263 82.263-82.263-36.904-82.263-82.263zm181.189 53.028c6.508 11.009 14.719 20.895 24.271 29.294h-46.954c9.079-8.416 16.77-18.308 22.683-29.294zm-180.464 59.293h358.15c.669 0 1.213.545 1.213 1.214v155.207h-360.576v-155.207c0-.669.544-1.214 1.213-1.214zm358.15 220.239h-358.15c-.669 0-1.213-.545-1.213-1.214v-32.604h360.577v32.604c0 .67-.545 1.214-1.214 1.214zm92.223-31.249-61.01-37.343v-82.846l61.01-37.494z"/><path d="m66.82 374.247h157.164c8.284 0 15-6.716 15-15v-68.203c0-8.284-6.716-15-15-15h-157.164c-8.284 0-15 6.716-15 15v68.203c0 8.284 6.716 15 15 15zm15-68.203h127.164v38.203h-127.164z"/><path d="m347.653 306.242c8.339 0 15.099-6.76 15.099-15.1 0-8.339-6.76-15.099-15.099-15.099s-15.099 6.76-15.099 15.099c0 8.34 6.76 15.1 15.099 15.1z"/><path d="m290.093 306.242c8.339 0 15.099-6.76 15.099-15.1 0-8.339-6.76-15.099-15.099-15.099s-15.099 6.76-15.099 15.099c0 8.34 6.76 15.1 15.099 15.1z"/>
</symbol>
<symbol id="icon-browser" viewBox="0 0 512 512">
<title>browser</title>
<path d="m462.054 32.599h-412.278c-27.447 0-49.776 22.329-49.776 49.775v347.082c0 27.446 22.329 49.775 49.776 49.775h412.278c27.447 0 49.776-22.329 49.776-49.775v-347.082c0-27.446-22.329-49.775-49.776-49.775zm-412.278 30h412.278c10.904 0 19.776 8.871 19.776 19.775v68.515h-451.83v-68.515c0-10.904 8.872-19.775 19.776-19.775zm412.278 386.632h-412.278c-10.904 0-19.776-8.871-19.776-19.775v-248.567h451.83v248.567c0 10.904-8.872 19.775-19.776 19.775z"/><circle cx="75.308" cy="107.635" r="15.099"/><circle cx="136.704" cy="107.635" r="15.099"/><circle cx="200.883" cy="107.635" r="15.099"/><path d="m164.488 272.691c-7.834-2.69-16.369 1.477-19.062 9.31l-6.206 18.054-7.095-18.539c-3.398-10.795-22.384-14.702-28.195.485l-6.206 18.054-7.095-18.539c-2.961-7.737-11.635-11.612-19.371-8.647-7.737 2.961-11.609 11.634-8.648 19.37l21.861 57.121c2.225 5.813 7.802 9.639 14.007 9.639.086 0 .174-.001.26-.002 6.309-.109 11.876-4.154 13.927-10.122l6.206-18.054 7.095 18.539c2.225 5.813 7.802 9.639 14.007 9.639.086 0 .174-.001.26-.002 6.309-.109 11.876-4.154 13.927-10.122l19.634-57.121c2.697-7.835-1.471-16.369-9.306-19.063z"/><path d="m302.283 272.691c-7.835-2.69-16.368 1.477-19.062 9.31l-6.206 18.054-7.095-18.539c-3.405-10.805-22.397-14.691-28.195.485l-6.206 18.054-7.095-18.539c-2.961-7.737-11.634-11.612-19.371-8.647-7.737 2.961-11.609 11.634-8.648 19.37l21.861 57.121c2.225 5.813 7.802 9.639 14.007 9.639.086 0 .174-.001.26-.002 6.309-.109 11.876-4.154 13.927-10.122l6.206-18.054 7.095 18.539c2.225 5.813 7.802 9.639 14.007 9.639.086 0 .174-.001.26-.002 6.309-.109 11.876-4.154 13.927-10.122l19.634-57.121c2.697-7.835-1.471-16.369-9.306-19.063z"/><path d="m440.079 272.691c-7.834-2.69-16.369 1.477-19.062 9.31l-6.206 18.054-7.095-18.539c-3.4-10.777-22.339-14.729-28.195.485l-6.206 18.055-7.096-18.54c-2.961-7.737-11.633-11.612-19.371-8.647-7.737 2.961-11.608 11.634-8.647 19.37l21.862 57.121c2.225 5.813 7.802 9.639 14.007 9.639.086 0 .174-.001.26-.002 6.309-.109 11.876-4.154 13.927-10.122l6.206-18.054 7.095 18.539c2.225 5.813 7.802 9.639 14.007 9.639.086 0 .174-.001.26-.002 6.309-.109 11.876-4.154 13.927-10.122l19.634-57.121c2.695-7.835-1.473-16.369-9.307-19.063z"/>
</symbol>
<symbol id="icon-mailbox" viewBox="0 0 512 512">
<title>mailbox</title>
<path d="m377.888 128.456v-26.615h119.762c5.308 0 10.221-2.806 12.918-7.376 2.698-4.571 2.779-10.229.213-14.875l-15.86-28.723 15.835-28.438c2.587-4.646 2.521-10.313-.174-14.897s-7.614-7.399-12.932-7.399h-134.762c-8.284 0-15 6.716-15 15v113.262h-219.044c-.016 0-.032.002-.049.002-71.035.104-128.795 57.926-128.795 128.985v170.013c0 8.284 6.716 15 15 15h185.994v14.092c0 31.001 25.221 56.222 56.221 56.222 31.001 0 56.222-25.221 56.222-56.222v-14.092h184.403c8.284 0 15-6.716 15-15v-158.829c0-75.937-60.175-137.959-134.952-140.11zm0-98.324h94.241l-7.466 13.408c-2.517 4.521-2.526 10.019-.025 14.548l7.594 13.753h-94.344zm-15 248.111c9.364 0 16.982 7.618 16.982 16.982s-7.618 16.982-16.982 16.982-16.982-7.618-16.982-16.982 7.618-16.982 16.982-16.982zm-332.888-20.861c0-54.582 44.406-98.988 98.989-98.988s98.989 44.406 98.989 98.988v155.013h-197.978zm253.437 199.105c0 14.459-11.763 26.222-26.222 26.222-14.458 0-26.221-11.763-26.221-26.222v-14.092h52.443zm199.403-44.092h-224.862v-155.013c0-39.725-18.056-75.308-46.386-98.988h136.297v92.319c-18.57 6.275-31.982 23.851-31.982 44.513 0 25.906 21.076 46.982 46.982 46.982s46.982-21.076 46.982-46.982c0-20.661-13.412-38.237-31.982-44.513v-92.237c58.231 2.144 104.952 50.7 104.952 110.089v143.83z"/><path d="m179.847 286.085h-101.717c-8.284 0-15 6.716-15 15v65.01c0 8.284 6.716 15 15 15h101.717c8.284 0 15-6.716 15-15v-65.01c0-8.284-6.716-15-15-15zm-15 65.01h-71.717v-35.01h71.717z"/>
</symbol>
<symbol id="icon-eyeglasses" viewBox="0 0 512 512">
<title>eyeglasses</title>
<path d="m507.247 4.394c-5.857-5.859-15.355-5.857-21.213 0l-40.624 40.623-18.075-18.075c-24.047-24.047-63.174-24.047-87.221 0l-101.64 101.64c-24.047 24.047-24.047 63.174 0 87.221l4.208 4.208c-8.389 3.48-18.671 12.792-22.796 22.751l-4.186-4.186c-24.047-24.047-63.174-24.047-87.221 0l-101.64 101.64c-24.047 24.047-24.047 63.174 0 87.221l18.076 18.076-40.521 40.522c-5.858 5.857-5.858 15.355 0 21.213 2.929 2.929 6.768 4.394 10.606 4.394s7.678-1.465 10.606-4.394l40.618-40.618c24.546 22.492 56.153 34.814 89.656 34.814 35.489 0 68.854-13.82 93.943-38.909l.964-.963c.002-.002.003-.004.005-.006 46.956-46.956 51.349-120.603 13.182-172.554-.014-.018-.027-.036-.04-.053-3.93-5.344-8.31-10.459-13.142-15.29l-3.936-3.936c-5.404-18.589 10.268-26.815 22.791-22.756l3.918 3.918c25.095 25.095 58.459 38.915 93.948 38.915 35.49 0 68.854-13.82 93.949-38.915l.964-.964c25.095-25.095 38.915-58.459 38.915-93.949 0-33.504-12.323-65.11-34.815-89.656l40.72-40.719c5.86-5.858 5.86-15.356.001-21.213zm-277.665 435.956-.967.966c-19.429 19.429-45.26 30.128-72.735 30.128s-53.308-10.699-72.736-30.128l-35.092-35.092c-5.982-5.982-9.277-13.937-9.277-22.397s3.295-16.415 9.277-22.397l101.641-101.64c5.982-5.982 13.937-9.277 22.397-9.277s16.415 3.295 22.397 9.277l30.143 30.143-9.091 2.412c-8.008 2.124-12.776 10.338-10.651 18.345 1.782 6.719 7.851 11.157 14.488 11.157 1.273 0 2.567-.164 3.856-.506l22.267-5.908c23.197 39.422 17.891 91.107-15.917 124.917zm211.632-211.632-.964.964c-33.756 33.755-85.327 39.096-124.726 16.031l5.901-22.237c2.125-8.008-2.644-16.221-10.65-18.346-8.013-2.13-16.222 2.645-18.346 10.65l-2.422 9.129-30.32-30.32c-5.982-5.982-9.277-13.937-9.277-22.397s3.295-16.415 9.277-22.397l101.64-101.64c5.982-5.982 13.937-9.277 22.397-9.277s16.415 3.295 22.397 9.277l35.092 35.092c40.108 40.106 40.108 105.365.001 145.471z"/>
</symbol>
<symbol id="icon-megaphone" viewBox="0 0 512 512">
<title>megaphone</title>
<path d="m456.32 12.205h-4.84c-27.192 0-49.838 19.777-54.348 45.699-.003.018-.016.033-.034.039l-191.566 59.231c-.005.001-.01.002-.015.002h-98.852c-22.199 0-40.194 17.995-40.194 40.194v2.38c0 .028-.023.051-.051.051h-51.37c-8.312 0-15.05 6.739-15.05 15.051v119.658c0 8.312 6.738 15.051 15.051 15.051h51.466c.026 0 .048.02.049.047 1.065 16.316 11.917 29.998 26.732 35.224.02.007.033.026.033.047v106.892c0 26.276 21.301 47.577 47.577 47.577h3.859c26.276 0 47.577-21.301 47.577-47.577v-31.512c0-.028.023-.051.051-.051h7.218c8.103 0 15.098-6.226 15.455-14.321.379-8.593-6.476-15.679-14.985-15.679h-7.689c-.028 0-.051-.023-.051-.051v-42.995c0-.028.023-.051.051-.051h13.335c.005 0 .009.001.014.002l190.643 53.241c.02.006.035.024.036.045 1.812 28.801 25.808 51.683 55.058 51.683h4.841c30.503 0 55.23-24.727 55.23-55.23v-329.416c0-30.504-24.728-55.231-55.231-55.231zm-233.493 131.023 173.408-53.617c.033-.01.065.014.065.048v279.455c0 .033-.032.058-.064.049l-173.408-48.427c-.022-.006-.037-.026-.037-.049v-177.41c0-.023.014-.042.036-.049zm-192.776 46.573h36.37c.028 0 .051.023.051.051v89.658c0 .028-.023.051-.051.051h-36.37c-.028 0-.051-.023-.051-.051v-89.658c0-.028.023-.051.051-.051zm132.293 261.968c0 9.707-7.869 17.577-17.577 17.577h-3.859c-9.707 0-17.577-7.869-17.577-17.577v-104.608c0-.028.023-.051.051-.051h38.912c.028 0 .051.023.051.051v104.608zm30.397-134.658h-86.076c-5.63 0-10.194-4.564-10.194-10.194v-149.547c0-5.63 4.564-10.194 10.194-10.194h86.076c.028 0 .051.023.051.051v169.833c-.001.028-.024.051-.051.051zm288.81 77.345c0 15.257-12.368 27.625-27.625 27.625-15.257 0-27.625-12.368-27.625-27.625v-325.094c0-.055 0-.11 0-.165 0-14.908 12.085-26.993 26.993-26.993h1.266c14.907 0 26.992 12.085 26.992 26.992v325.26z"/>
</symbol>
<symbol id="icon-tv" viewBox="0 0 512 512">
<title>tv</title>
<path d="m496.643 79.206h-331.621v-38.946c0-8.284-6.716-15-15-15s-15 6.716-15 15v38.946h-30.893v-64.206c0-8.284-6.716-15-15-15s-15 6.716-15 15v64.206h-58.668c-8.284 0-15 6.716-15 15v343.909c0 8.284 6.716 15 15 15h36.951v2.62c0 31.082 25.287 56.369 56.369 56.369s56.369-25.287 56.369-56.369v-2.62h181.212v2.62c0 31.082 25.287 56.369 56.369 56.369s56.368-25.287 56.368-56.369v-2.62h37.545c8.284 0 15-6.716 15-15v-343.909c-.001-8.284-6.717-15-15.001-15zm-361.494 376.529c0 14.54-11.829 26.369-26.369 26.369s-26.369-11.829-26.369-26.369v-2.62h52.737v2.62zm293.949 0c0 14.54-11.829 26.369-26.368 26.369-14.54 0-26.368-11.829-26.368-26.369v-2.62h52.737v2.62zm52.545-32.62h-451.182v-313.909h451.182z"/><path d="m62.412 157.93v216.462c0 8.284 6.716 15 15 15h294.146c8.284 0 15-6.716 15-15v-216.462c0-8.284-6.716-15-15-15h-294.146c-8.284 0-15 6.716-15 15zm30 15h264.146v186.462h-264.146z"/><path d="m433.711 389.392c8.339 0 15.099-6.76 15.099-15.1 0-8.339-6.76-15.099-15.099-15.099s-15.099 6.76-15.099 15.099c0 8.34 6.76 15.1 15.099 15.1z"/><circle cx="433.711" cy="318.267" r="15.099"/><path d="m433.711 268.488c8.284 0 15-6.716 15-15v-95.558c0-8.284-6.716-15-15-15s-15 6.716-15 15v95.559c0 8.283 6.716 14.999 15 14.999z"/>
</symbol>
<symbol id="icon-video-player" viewBox="0 0 512 512">
<title>video-player</title>
<path d="m462.054 29.098h-412.278c-27.447 0-49.776 22.329-49.776 49.777v354.081c0 27.446 22.329 49.776 49.776 49.776h412.278c27.447 0 49.776-22.33 49.776-49.776v-354.081c0-27.448-22.329-49.777-49.776-49.777zm-412.278 30h412.278c10.904 0 19.776 8.872 19.776 19.776v72.015h-451.83v-72.014c0-10.905 8.872-19.777 19.776-19.777zm412.278 393.634h-412.278c-10.904 0-19.776-8.872-19.776-19.776v-252.067h451.83v252.066c0 10.905-8.872 19.777-19.776 19.777z"/><path d="m214.368 322.432c3.872 1.982 9.17 2.969 15.2-.36l70.014-43.427c8.909-5.169 9.591-20.032-.482-25.781l-70.014-39.881c-8.404-5.182-22.628 1.055-22.424 13.034v83.308c0 5.443 2.949 10.46 7.706 13.107zm22.294-70.608 25.671 14.623-25.671 15.923z"/><path d="m432.866 366.952h-20.355v-10.11c0-8.284-6.716-15-15-15s-15 6.716-15 15v10.11h-303.547c-8.284 0-15 6.716-15 15s6.716 15 15 15h303.547v10.111c0 8.284 6.716 15 15 15s15-6.716 15-15v-10.111h20.355c8.284 0 15-6.716 15-15s-6.716-15-15-15z"/><path d="m76.174 122.734c8.339 0 15.099-6.76 15.099-15.1 0-8.339-6.76-15.099-15.099-15.099s-15.099 6.76-15.099 15.099c0 8.34 6.76 15.1 15.099 15.1z"/><path d="m137.57 122.734c8.339 0 15.099-6.76 15.099-15.1 0-8.339-6.76-15.099-15.099-15.099s-15.099 6.76-15.099 15.099c0 8.34 6.76 15.1 15.099 15.1z"/><path d="m201.749 122.734c8.339 0 15.099-6.76 15.099-15.1 0-8.339-6.76-15.099-15.099-15.099s-15.099 6.76-15.099 15.099c0 8.34 6.76 15.1 15.099 15.1z"/>
</symbol>
<symbol id="icon-billboard" viewBox="0 0 512 512">
<title>billboard</title>
<path d="m496.763 363.262c8.284 0 15-6.716 15-15v-273.828c0-8.284-6.716-15-15-15h-76.738v-29.417h17.231c8.284 0 15-6.716 15-15s-6.716-15-15-15h-360.99c-8.284 0-15 6.716-15 15s6.716 15 15 15h16.31v29.417h-77.576c-8.284 0-15 6.716-15 15v273.828c0 8.284 6.716 15 15 15h46.266v25.985h-46.266c-8.284 0-15 6.716-15 15s6.716 15 15 15h46.266v62.499h-18.153c-8.284 0-15 6.716-15 15s6.716 15 15 15h64.462c8.284 0 15-6.716 15-15s-6.716-15-15-15h-16.31v-62.499h330.99v62.499h-21.835c-8.284 0-15 6.716-15 15s6.716 15 15 15h69.067c8.284 0 15-6.716 15-15s-6.716-15-15-15h-17.231v-62.499h44.507c8.284 0 15-6.716 15-15s-6.716-15-15-15h-44.507v-25.985zm-106.739-303.828h-119.143v-29.417h119.144v29.417zm-267.448-29.417h118.305v29.417h-118.305zm-92.576 59.417h451.763v243.828h-451.763zm211.156 273.828v25.985h-60.564v-25.985zm30 0h59.931v25.985h-59.931zm-179.89 0h59.327v25.985h-59.327zm330.99 25.985h-61.169v-25.985h61.169z"/>
</symbol>
<symbol id="icon-mupi" viewBox="0 0 512 512">
<title>mupi</title>
<path d="m397.668 481.497h-40.218v-58.112h28.92c8.284 0 15-6.716 15-15v-393.385c0-8.284-6.716-15-15-15h-261.243c-8.284 0-15 6.716-15 15v393.385c0 8.284 6.716 15 15 15h28.92v58.112h-40.218c-8.284 0-15 6.716-15 15s6.716 15 15 15h283.839c8.284 0 15-6.716 15-15s-6.716-15-15-15zm-257.541-451.497h231.243v363.385h-231.243zm43.92 451.497v-58.112h143.403v58.112z"/><path d="m198.779 289.305h113.938c8.284 0 15-6.716 15-15s-6.716-15-15-15h-113.938c-8.284 0-15 6.716-15 15s6.716 15 15 15z"/><path d="m198.779 355.767h113.938c8.284 0 15-6.716 15-15s-6.716-15-15-15h-113.938c-8.284 0-15 6.716-15 15s6.716 15 15 15z"/>
</symbol>
<symbol id="icon-video-conference" viewBox="0 0 512 512">
<title>video-conference</title>
<path d="m463.177.55h-414.156c-27.031 0-49.021 21.99-49.021 49.021v309.189c0 27.03 21.99 49.021 49.021 49.021h122.792l-11.587 73.79h-22.777c-8.284 0-15 6.716-15 15s6.716 15 15 15c50.258.114 187.28.089 237.299 0 8.284 0 15-6.716 15-15s-6.716-15-15-15h-24.831l-10.4-73.79h123.66c27.03 0 49.021-21.99 49.021-49.021v-309.189c-.001-27.031-21.991-49.021-49.021-49.021zm19.02 49.021v139.595h-36.643c-3.547-18.179-14.834-33.615-30.283-42.736 5.563-7.988 8.837-17.684 8.837-28.134 0-27.218-22.143-49.361-49.36-49.361s-49.361 22.144-49.361 49.361c0 10.451 3.274 20.146 8.837 28.134-15.448 9.121-26.736 24.556-30.283 42.736h-32.842v-158.616h192.078c10.488 0 19.02 8.532 19.02 19.021zm-106.312 88.027h-2.274c-10.146-.594-18.224-9.011-18.224-19.303 0-10.676 8.686-19.361 19.361-19.361s19.36 8.686 19.36 19.361c0 10.292-8.077 18.709-18.223 19.303zm-9.329 30c4.618.011 10.668.026 16.384 0 14.326 0 26.6 8.958 31.514 21.567h-79.411c4.913-12.609 17.186-21.567 31.513-21.567zm-317.535-137.048h192.078v158.615h-33.482c-3.547-18.179-14.835-33.615-30.283-42.736 5.563-7.988 8.837-17.684 8.837-28.134 0-27.218-22.143-49.361-49.36-49.361s-49.361 22.144-49.361 49.361c0 10.451 3.274 20.146 8.837 28.134-15.448 9.121-26.736 24.556-30.283 42.736h-36.004v-139.594c0-10.489 8.532-19.021 19.021-19.021zm88.926 107.048h-2.274c-10.146-.594-18.224-9.011-18.224-19.303 0-10.676 8.686-19.361 19.361-19.361s19.36 8.686 19.36 19.361c0 10.292-8.078 18.709-18.223 19.303zm-9.33 30c4.618.011 10.668.026 16.384 0 14.326 0 26.6 8.958 31.514 21.567h-79.411c4.914-12.609 17.187-21.567 31.513-21.567zm-98.617 191.162v-139.595h211.099v158.615h-33.482c-3.547-18.18-14.835-33.615-30.283-42.736 5.563-7.988 8.837-17.684 8.837-28.135 0-27.218-22.143-49.36-49.36-49.36s-49.361 22.143-49.361 49.36c0 10.451 3.274 20.146 8.837 28.135-15.449 9.121-26.736 24.556-30.283 42.736h-16.983c-10.489.001-19.021-8.532-19.021-19.02zm105.672-32.547c-10.146-.594-18.224-9.012-18.224-19.304 0-10.676 8.686-19.36 19.361-19.36s19.36 8.685 19.36 19.36c0 10.292-8.078 18.71-18.223 19.304zm-7.055 30c4.618.011 10.668.026 16.384 0 14.326 0 26.601 8.959 31.514 21.567h-79.411c4.913-12.608 17.187-21.567 31.513-21.567zm61.976 125.358 11.586-73.79h107.04l10.4 73.79zm144.449-103.79c4.913-12.608 17.188-21.567 31.514-21.567 4.618.011 10.668.026 16.384 0 14.326 0 26.601 8.959 31.514 21.567zm40.843-51.568h-2.274c-10.146-.594-18.224-9.012-18.224-19.304 0-10.676 8.686-19.36 19.361-19.36s19.36 8.685 19.36 19.36c0 10.293-8.077 18.711-18.223 19.304zm87.292 51.568h-17.622c-3.547-18.18-14.834-33.615-30.283-42.736 5.563-7.988 8.837-17.684 8.837-28.135 0-27.218-22.143-49.36-49.36-49.36s-49.361 22.143-49.361 49.36c0 10.451 3.274 20.146 8.837 28.135-15.449 9.121-26.736 24.556-30.283 42.736h-32.842v-158.616h211.099v139.595c-.002 10.488-8.534 19.021-19.022 19.021z"/>
</symbol>
<symbol id="icon-phone-call" viewBox="0 0 512 512">
<title>phone-call</title>
<path d="m342.308 313.333c-7.229-7.23-18.993-7.229-26.225 0l-54.73 54.731c-1.556 1.556-4.079 1.556-5.635 0l-107.23-107.23c-.917-.917-.917-2.403 0-3.319l54.608-54.608c3.504-3.503 5.434-8.16 5.434-13.114s-1.93-9.611-5.432-13.112l-98.513-98.514c-3.502-3.501-8.158-5.429-13.109-5.43h-.002c-4.955 0-9.613 1.931-13.126 5.446-63.204 56.625-116.952 120.406-41.389 207.392l188.822 188.822c15.271 15.271 34.238 26.533 54.849 32.568 80.917 19.853 115.525-22.402 160.829-68.257 7.23-7.23 7.23-18.994 0-26.225zm42.332 139.769c-12.869 12.851-29.476 22.423-47.046 26.452-32.063 7.551-66.777-2.548-90.6-26.37l-188.822-188.822c-70.661-83.58 12.106-131.305 33.314-156.869l82.299 82.299-46.509 46.51c-12.612 12.612-12.612 33.133 0 45.745l110.216 110.216c5.621 5.621 13.095 8.717 21.044 8.717s15.423-3.096 21.044-8.717l49.616-49.616 82.95 82.95z"/><path d="m460.939 1.164h-182.878c-28.794 0-52.221 23.426-52.221 52.221v77.447c0 28.795 23.426 52.221 52.221 52.221h9.197l25.027 43.349c2.679 4.641 7.631 7.5 12.99 7.5s10.311-2.859 12.99-7.5l25.027-43.349h97.646c28.794 0 52.221-23.426 52.221-52.221v-77.447c.001-28.795-23.425-52.221-52.22-52.221zm22.221 129.668c0 12.253-9.968 22.221-22.221 22.221h-106.306c-5.359 0-10.311 2.859-12.99 7.5l-16.367 28.349-16.367-28.349c-2.679-4.641-7.631-7.5-12.99-7.5h-17.857c-12.252 0-22.221-9.968-22.221-22.221v-77.447c0-12.253 9.968-22.221 22.221-22.221h182.878c12.252 0 22.221 9.968 22.221 22.221v77.447z"/><circle cx="311.713" cy="91.206" r="15.099"/><circle cx="369" cy="91.206" r="15.099"/><circle cx="426.288" cy="91.206" r="15.099"/>
</symbol>
<symbol id="icon-usb" viewBox="0 0 512 512">
<title>usb</title>
<path d="m313.189 212.633c-8.284 0-15 6.716-15 15v31.355c0 1.669-1.358 3.027-3.027 3.027h-25.019v-55.802c0-8.284-6.716-15-15-15s-15 6.716-15 15v102.209h-23.161c-1.669 0-3.027-1.358-3.027-3.027v-32.545c0-8.284-6.716-15-15-15s-15 6.716-15 15v32.545c0 18.211 14.816 33.027 33.027 33.027h23.161v53.536c0 8.284 6.716 15 15 15s15-6.716 15-15v-99.943h25.019c18.211 0 33.027-14.816 33.027-33.027v-31.355c0-8.284-6.716-15-15-15z"/><path d="m379.771 110.645h-18.177v-95.645c0-8.284-6.716-15-15-15h-180.818c-8.284 0-15 6.716-15 15v95.645h-18.882c-8.284 0-15 6.716-15 15v247.082c0 76.611 62.328 138.938 138.939 138.938s138.938-62.327 138.938-138.938v-247.082c0-8.285-6.716-15-15-15zm-198.995-80.645h29.89v41.866c0 8.284 6.716 15 15 15s15-6.716 15-15v-41.866h31.038v41.866c0 8.284 6.716 15 15 15s15-6.716 15-15v-41.866h29.89v80.645h-150.818zm183.995 342.727c0 60.069-48.87 108.938-108.938 108.938-60.069 0-108.938-48.869-108.938-108.938v-232.082h217.877v232.082z"/>
</symbol>
<symbol id="icon-boss" viewBox="0 0 512 512">
<title>boss</title>
<path d="m480.269 384.839c5.563-7.988 8.836-17.684 8.836-28.134 0-22.063-14.551-40.789-34.56-47.092l-.114-35.979c18.485-6.323 31.819-23.856 31.819-44.457 0-25.906-21.076-46.982-46.982-46.982-20.661 0-38.237 13.412-44.513 31.982h-94.676c-4.66-13.79-15.551-24.725-29.313-29.445l.181-34.501h42.204c8.284 0 15-6.716 15-15v-2.761c0-23.389-12.657-43.866-31.473-54.975 5.563-7.988 8.837-17.684 8.837-28.134-.001-27.217-22.144-49.361-49.362-49.361s-49.361 22.144-49.361 49.361c0 10.451 3.274 20.146 8.837 28.134-18.816 11.109-31.473 31.586-31.473 54.975v2.761c0 8.284 6.716 15 15 15h41.791l-.18 34.366c-13.95 4.644-25.007 15.657-29.712 29.58h-94.676c-6.275-18.57-23.851-31.982-44.512-31.982-25.906 0-46.982 21.076-46.982 46.982 0 20.72 13.487 38.337 32.139 44.566l.118 36.005c-19.802 6.427-34.162 25.042-34.162 46.957 0 10.451 3.274 20.146 8.837 28.134-18.817 11.109-31.474 31.587-31.474 54.975v2.761c0 8.284 6.716 15 15 15h113.996c8.284 0 15-6.716 15-15v-2.761c0-23.389-12.657-43.866-31.473-54.975 5.563-7.988 8.837-17.684 8.837-28.134 0-22.063-14.552-40.79-34.561-47.092l-.118-35.976c13.782-4.712 24.691-15.655 29.355-29.459h94.676c4.695 13.895 15.718 24.892 29.629 29.552l.179 90.56c-19.754 6.453-34.07 25.043-34.07 46.924 0 10.451 3.274 20.146 8.837 28.135-18.817 11.109-31.474 31.586-31.474 54.975v2.762c0 8.284 6.716 15 15 15h113.996c8.284 0 15-6.716 15-15v-2.762c0-23.388-12.657-43.865-31.474-54.974 5.563-7.988 8.837-17.684 8.837-28.135 0-22.097-14.596-40.848-34.653-47.122l-.179-90.441c13.801-4.704 24.727-15.656 29.396-29.473h94.676c4.701 13.911 15.743 24.917 29.676 29.568l.114 36.003c-19.802 6.426-34.162 25.041-34.162 46.956 0 10.45 3.274 20.146 8.837 28.134-18.816 11.109-31.473 31.586-31.473 54.975v2.761c0 8.284 6.716 15 15 15h113.995c8.284 0 15-6.716 15-15v-2.761c0-23.389-12.657-43.867-31.473-54.976zm-224.116-354.839c10.676 0 19.361 8.686 19.361 19.361 0 10.285-8.068 18.699-18.205 19.303h-2.313c-10.137-.603-18.205-9.017-18.205-19.303.001-10.675 8.686-19.361 19.362-19.361zm-8.192 68.664c4.618.011 10.64.027 16.383 0 14.326 0 26.601 8.958 31.515 21.567h-79.412c4.914-12.609 17.188-21.567 31.514-21.567zm-215.326 328.911c4.914-12.609 17.188-21.567 31.514-21.567 4.618.011 10.641.027 16.383 0 14.327 0 26.6 8.958 31.514 21.567zm40.863-51.567h-2.313c-10.137-.603-18.205-9.017-18.205-19.303 0-10.676 8.686-19.361 19.361-19.361s19.361 8.686 19.361 19.361c0 10.285-8.068 18.7-18.204 19.303zm-1.632-129.848c-9.364 0-16.982-7.618-16.982-16.982s7.618-16.982 16.982-16.982 16.982 7.618 16.982 16.982-7.619 16.982-16.982 16.982zm144.581 235.925c4.914-12.608 17.188-21.567 31.515-21.567 4.617.011 10.667.026 16.383 0 14.326 0 26.601 8.959 31.515 21.567zm40.843-51.567h-2.274c-10.146-.594-18.224-9.012-18.224-19.304 0-10.676 8.686-19.36 19.361-19.36s19.361 8.685 19.361 19.36c0 10.292-8.078 18.71-18.224 19.304zm-1.724-184.358c-9.364 0-16.982-7.618-16.982-16.982s7.618-16.982 16.982-16.982 16.982 7.618 16.982 16.982-7.618 16.982-16.982 16.982zm183.701-33.965c9.364 0 16.982 7.618 16.982 16.982s-7.618 16.982-16.982 16.982-16.982-7.618-16.982-16.982 7.618-16.982 16.982-16.982zm.478 125.149c10.676 0 19.36 8.686 19.36 19.361 0 10.285-8.067 18.699-18.204 19.303h-2.313c-10.136-.603-18.205-9.017-18.205-19.303 0-10.676 8.686-19.361 19.362-19.361zm-39.706 90.231c4.914-12.609 17.188-21.567 31.514-21.567 4.618.011 10.641.027 16.384 0 14.326 0 26.6 8.958 31.514 21.567z"/>
</symbol>
<symbol id="icon-payment" viewBox="0 0 512 512">
<title>payment</title>
<path d="m478.388 295.083h-80.328c12.11-26.393 18.872-55.729 18.872-86.617 0-114.948-93.518-208.466-208.466-208.466s-208.466 93.518-208.466 208.466c0 109.701 85.173 199.883 192.863 207.889v62.033c0 18.534 15.078 33.612 33.612 33.612h251.913c18.534 0 33.612-15.078 33.612-33.612v-149.693c0-18.534-15.078-33.612-33.612-33.612zm3.612 33.612v96.69h-259.137v-96.69c0-1.991 1.62-3.611 3.612-3.611h251.913c1.992-.001 3.612 1.619 3.612 3.611zm-197.672-33.612c4.76-20.651 8.073-44.41 8.981-71.617h92.998c-2.158 25.812-9.835 50.079-21.842 71.617zm101.979-101.617h-92.98c-2.587-80.277-26.058-130.565-46.155-159.238 75.121 16.675 132.58 80.835 139.135 159.238zm-177.357-158.684c6.01 6.222 14.554 16.521 23.039 31.709 13.373 23.936 29.129 64.88 31.316 126.976h-108.768c2.258-61.845 17.976-102.765 31.322-126.747 8.507-15.288 17.072-25.668 23.091-31.938zm-37.98-.818c-20.114 28.66-43.77 79.065-46.456 159.502h-93.889c6.59-78.824 64.631-143.25 140.345-159.502zm-140.345 189.502h93.872c2.593 80.493 26.185 130.836 46.317 159.47-75.637-16.307-133.604-80.7-140.189-159.47zm155.209 126.976c-13.373-23.935-29.129-64.879-31.316-126.976h108.768c-1.024 28.059-4.821 51.803-9.909 71.617h-26.902c-18.534 0-33.612 15.078-33.612 33.611v33.288c-2.311-3.481-4.672-7.322-7.029-11.54zm292.554 131.558h-251.913c-1.992 0-3.612-1.62-3.612-3.612v-23.003h259.137v23.003c0 1.992-1.62 3.612-3.612 3.612z"/><path d="m268.346 389.603h59.72c8.284 0 15-6.716 15-15s-6.716-15-15-15h-59.72c-8.284 0-15 6.716-15 15s6.716 15 15 15z"/><ellipse cx="434.913" cy="374.602" rx="16.737" ry="16.737" transform="matrix(.924 -.383 .383 .924 -110.248 194.948)"/>
</symbol>
<symbol id="icon-social-media" viewBox="0 0 512 512">
<title>social-media</title>
<path d="m426.778 6.548h-341.041c-47.275 0-85.737 37.926-85.737 84.543v218.58c0 46.617 38.462 84.543 85.737 84.543h92.277l56.827 97.929c4.965 8.558 14.134 13.825 24.006 13.825.145 0 .289-.001.434-.004 10.037-.156 19.231-5.743 23.996-14.578l52.392-97.172h91.109c47.275 0 85.737-37.926 85.737-84.543v-218.58c.001-46.617-38.461-84.543-85.737-84.543zm55.738 303.123c0 30.075-25.004 54.543-55.737 54.543h-100.064c-5.516 0-10.586 3.026-13.203 7.881l-54.736 101.521-59.148-101.93c-2.684-4.625-7.626-7.472-12.974-7.472h-100.917c-30.733 0-55.737-24.468-55.737-54.543v-218.58c0-30.075 25.004-54.543 55.737-54.543h341.041c30.733 0 55.737 24.468 55.737 54.543v218.58z"/><path d="m394.474 197.301c7.006-9.955 11.137-22.073 11.137-35.145 0-33.76-27.466-61.226-61.227-61.226-33.76 0-61.226 27.466-61.226 61.226 0 13.072 4.131 25.189 11.137 35.145-24.261 9.041-41.59 32.437-41.59 59.809v20.567c0 8.284 6.716 15 15 15h153.358c8.284 0 15-6.716 15-15v-20.567c.001-27.372-17.328-50.768-41.589-59.809zm-50.089-66.37c17.219 0 31.227 14.008 31.227 31.226 0 16.517-12.894 30.072-29.144 31.148h-4.164c-16.25-1.076-29.144-14.631-29.144-31.148-.001-17.219 14.007-31.226 31.225-31.226zm61.679 131.747h-123.358v-5.567c0-18.641 15.165-33.806 33.806-33.806h24.833c1.007.05 2.021.077 3.04.077s2.033-.028 3.04-.077h24.833c18.641 0 33.807 15.165 33.807 33.806v5.567z"/><path d="m171.637 194.277c9.109-9.42 14.732-22.233 14.732-36.341 0-28.852-23.473-52.324-52.324-52.324s-52.324 23.473-52.324 52.324c0 14.108 5.622 26.92 14.732 36.341-12.235 10.57-20.001 26.179-20.001 43.577 0 31.757 25.837 57.594 57.594 57.594s57.594-25.837 57.594-57.594c-.001-17.398-7.767-33.007-20.003-43.577zm-59.916-36.34c0-12.31 10.015-22.324 22.324-22.324s22.324 10.015 22.324 22.324-10.015 22.324-22.324 22.324-22.324-10.015-22.324-22.324zm22.324 107.511c-15.215 0-27.594-12.379-27.594-27.594s12.379-27.594 27.594-27.594 27.594 12.379 27.594 27.594-12.379 27.594-27.594 27.594z"/>
</symbol>
</defs>
</svg>
