<svg aria-hidden="true" style="position: absolute; width: 0; height: 0; overflow: hidden;" version="1.1" xmlns="http://www.w3.org/2000/svg" xmlns:xlink="http://www.w3.org/1999/xlink">
<defs>
<symbol id="coin-security" viewBox="0 0 1080 720">
<title>coin-security</title>
<path d="M488,320h-8V24a8.00039,8.00039,0,0,0-8-8H200a8.00039,8.00039,0,0,0-8,8V80H160a8.00039,8.00039,0,0,0-8,8v88H56a8.00039,8.00039,0,0,0-8,8v40a8.00039,8.00039,0,0,0-8,8v40H24a8.00039,8.00039,0,0,0-8,8v64H32V288h8V448a8.00221,8.00221,0,0,0,1.34375,4.4375l16,24a7.99959,7.99959,0,0,0,13.3125,0l16-24A8.00221,8.00221,0,0,0,88,448V400h64v56a8.00039,8.00039,0,0,0,8,8h80v24a8.00039,8.00039,0,0,0,8,8H488a8.00039,8.00039,0,0,0,8-8V328A8.00039,8.00039,0,0,0,488,320Zm-16,16-72,96a40,40,0,0,1-64,0l-72-96ZM208,32H464V320H440V88a8.00039,8.00039,0,0,0-8-8H208ZM64,192H184v72H88V232a8.00039,8.00039,0,0,0-8-8H64ZM88,296V280h64v16ZM56,240H72v32H56Zm8,217.57812-8-12V288H72V445.57812ZM88,312h96v72H88Zm80,136V400h24a8.00039,8.00039,0,0,0,8-8V304a8.00039,8.00039,0,0,0-8-8H168V280h24a8.00039,8.00039,0,0,0,8-8V184a8.00039,8.00039,0,0,0-8-8H168V96H424V320H248a8.00039,8.00039,0,0,0-8,8V448Zm88,32V352.00049l67.19922,89.59912a56.001,56.001,0,0,0,89.60156,0L480,352.00049V480Z"/><path d="M296,312a79.46156,79.46156,0,0,0,70.60986-42.374c.24854-.12061.498-.23584.74561-.35938l12.22265-6.11133A8.00022,8.00022,0,0,0,384,256V208a7.99951,7.99951,0,0,0-11.57812-7.15527l-2.26319,1.13159a80.01309,80.01309,0,0,0-144.77051-7.59863c-.24756.12036-.49707.23242-.74365.35571l-12.22265,6.11133A8.00022,8.00022,0,0,0,208,208v48a7.99951,7.99951,0,0,0,11.57812,7.15527l2.26319-1.13183A80.13171,80.13171,0,0,0,296,312Zm0-16a64.08933,64.08933,0,0,1-59.7063-40.96045,56.36108,56.36108,0,0,1,54.9065,7.36084,72.46089,72.46089,0,0,0,43.55859,14.61133c2.38965,0,4.78174-.12647,7.16943-.36524A63.57306,63.57306,0,0,1,296,296Zm0-128a64.08913,64.08913,0,0,1,59.70605,40.96,56.36377,56.36377,0,0,1-54.90625-7.36035,72.3441,72.3441,0,0,0-50.73242-14.2417A63.5713,63.5713,0,0,1,296,168Zm-72,44.94434,7.80078-3.90039a56.40781,56.40781,0,0,1,59.39942,5.35644,72.32546,72.32546,0,0,0,76.15527,6.86621L368,220.94434v30.11132l-7.80078,3.90039a56.40763,56.40763,0,0,1-59.39942-5.35644,72.33,72.33,0,0,0-76.15527-6.86621L224,243.05566Z"/>
</symbol>
<symbol id="kenvim" viewBox="0 0 1080 720">
<title>kenvim</title>
<path d="M715.25,326.57v18.34l-17.54,5.23L569.37,388.43l-30.68,9.15L508,388.43,379.68,350.14l-17.55-5.23V133.54l17.55,5.24,159,47.46,159-47.46,17.54-5.24v193Zm-17.54,5.23V157.11L569.37,195.4l-30.68,9.15L508,195.4,379.68,157.11V331.8l159,47.47Z"/><polygon points="428.78 421.33 445.19 409.15 465.12 423.94 465.12 358.77 428.78 358.77 428.78 421.33"/><path d="M693,137.27a27.29,27.29,0,0,0-30.8-11.47l-123.5,36.85L412.27,124.93a27.25,27.25,0,0,0-30.79,11.47,27,27,0,0,0-4.31,14.68L477.32,181l34.61,10.32,26.76,8,26.76-8L600.06,181l97.23-29h0A27.06,27.06,0,0,0,693,137.27Z"/><path d="M282.8,448.06h11.45v60.61l58.29-60.61h14.79l-43.5,44.37,45.38,57.12H354.86l-39-49.15-21.6,21.89v27.26H282.8Z"/><path d="M391.83,516.64a29.69,29.69,0,0,0,2.9,10.58,25.13,25.13,0,0,0,5.94,7.83,25.67,25.67,0,0,0,8.12,4.86,26.91,26.91,0,0,0,9.43,1.67,28.78,28.78,0,0,0,13.4-2.9A39.79,39.79,0,0,0,441.84,531l7,6.23a45.94,45.94,0,0,1-12.91,10.22q-7.25,3.84-18,3.84a37.58,37.58,0,0,1-14.5-2.82,35.82,35.82,0,0,1-11.88-8,37.7,37.7,0,0,1-8.05-12.4,41.62,41.62,0,0,1-3-15.94,43.31,43.31,0,0,1,2.68-15.3,38.37,38.37,0,0,1,7.47-12.47A34.83,34.83,0,0,1,402.05,476a36.17,36.17,0,0,1,29.21.08,32.41,32.41,0,0,1,11,8.48,37,37,0,0,1,6.82,12.61,50.89,50.89,0,0,1,2.32,15.52v1.66a20.1,20.1,0,0,1-.15,2.25Zm48.27-9.13a34.78,34.78,0,0,0-2.17-9.59,27.12,27.12,0,0,0-4.71-8,21.57,21.57,0,0,0-7.25-5.48,22.75,22.75,0,0,0-9.79-2,21.85,21.85,0,0,0-9,1.88,22.76,22.76,0,0,0-7.39,5.26,29.23,29.23,0,0,0-5.29,8,32.1,32.1,0,0,0-2.68,9.95Z"/><path d="M471,474.59h11.17v13.05A35.08,35.08,0,0,1,492,477.28q6.08-4.27,15.8-4.28a31.51,31.51,0,0,1,12.11,2.18,25,25,0,0,1,9,6.16,27.16,27.16,0,0,1,5.66,9.49,36.35,36.35,0,0,1,2,12.18v46.54H525.36V505.86q0-10.41-5.37-16.49t-15.36-6.07a23.67,23.67,0,0,0-8.92,1.66,20.9,20.9,0,0,0-7.18,4.77,21.76,21.76,0,0,0-4.71,7.45,26.49,26.49,0,0,0-1.66,9.55v42.82H471Z"/><path d="M552.91,474.59h12.32l25.23,62.2,25.37-62.2h12l-32.62,75.54h-9.86Z"/><path d="M645.7,445.89h12.75v12.32H645.7Zm.72,28.7h11.16v75H646.42Z"/><path d="M683.54,474.59H694.7v12.62a59.08,59.08,0,0,1,4.13-5.37,25.51,25.51,0,0,1,5.15-4.56,25,25,0,0,1,6.52-3.12,27.75,27.75,0,0,1,8.41-1.16q9.14,0,15.08,4.28a27.67,27.67,0,0,1,9,10.65,46.38,46.38,0,0,1,4.57-5.8,28.88,28.88,0,0,1,5.72-4.78,27.73,27.73,0,0,1,7.18-3.19,32,32,0,0,1,8.92-1.16q13.05,0,20.44,8.05t7.39,22.11v46.39H786V505.86q0-10.85-5.15-16.7t-14.28-5.86a21.16,21.16,0,0,0-8,1.51,18.63,18.63,0,0,0-6.6,4.49,21.81,21.81,0,0,0-4.49,7.3,27.36,27.36,0,0,0-1.67,9.84v43.11h-11v-44q0-10.56-5.15-16.41t-14.13-5.86a19.48,19.48,0,0,0-8.27,1.73,19.88,19.88,0,0,0-6.59,4.92,23.43,23.43,0,0,0-4.43,7.45,26.94,26.94,0,0,0-1.59,9.48v42.67H683.54Z"/><path d="M285.21,564.67h11.61a15.84,15.84,0,0,1,4.77.68,11,11,0,0,1,3.68,1.95,8.51,8.51,0,0,1,2.35,3.09,10,10,0,0,1,.81,4.12v.09a9.42,9.42,0,0,1-1,4.4,9.33,9.33,0,0,1-2.64,3.17A11.43,11.43,0,0,1,301,584.1a16.78,16.78,0,0,1-4.7.65h-7.54v10.94h-3.5ZM296.4,581.6a11.59,11.59,0,0,0,3.49-.49,8.19,8.19,0,0,0,2.71-1.4,6.32,6.32,0,0,0,1.74-2.16,6.5,6.5,0,0,0,.59-2.8v-.09a5.89,5.89,0,0,0-2.29-5,9.79,9.79,0,0,0-6.06-1.72h-7.87v13.7Z"/><path d="M317,564.67h13.35a14.79,14.79,0,0,1,5.12.82,10.26,10.26,0,0,1,3.7,2.28,8.22,8.22,0,0,1,1.77,2.7,9.25,9.25,0,0,1,.62,3.42V574a9.18,9.18,0,0,1-.62,3.47,8,8,0,0,1-1.75,2.66,9.31,9.31,0,0,1-2.68,1.86,13.12,13.12,0,0,1-3.37,1l9.53,12.67h-4.3l-9-12.05h-8.87v12.05H317Zm13.06,15.82a11.25,11.25,0,0,0,3.2-.44,7.91,7.91,0,0,0,2.53-1.27,5.64,5.64,0,0,0,2.27-4.67V574a5.38,5.38,0,0,0-2.09-4.5,9.38,9.38,0,0,0-5.87-1.62h-9.6v12.59Z"/><path d="M351.61,564.67h3.5v31h-3.5Z"/><path d="M363.75,564.67h3.9l11,26.72,11.08-26.72h3.77l-13.34,31.24h-3.1Z"/><path d="M413.34,564.45h3.28l14.14,31.24H427l-3.63-8.2H406.47l-3.68,8.2H399.2Zm8.64,19.9-7-15.83-7.09,15.83Z"/><path d="M447.29,567.9H436.88v-3.23h24.33v3.23H450.79v27.79h-3.5Z"/><path d="M470,564.67h22.42v3.14H473.53V578.5h16.93v3.14H473.53v10.91h19.15v3.14H470Z"/><path d="M525.65,567.9H515.23v-3.23h24.34v3.23H529.15v27.79h-3.5Z"/><path d="M560.8,596.18a15.29,15.29,0,0,1-5.25-.86,11,11,0,0,1-4.08-2.58,11.36,11.36,0,0,1-2.64-4.23,16.72,16.72,0,0,1-.93-5.8v-18h3.5v17.81c0,3.37.84,6,2.5,7.76a10.37,10.37,0,0,0,13.81.13c1.68-1.71,2.53-4.26,2.53-7.66v-18h3.5v17.77a17.55,17.55,0,0,1-.93,6,11.57,11.57,0,0,1-2.64,4.3,11,11,0,0,1-4.08,2.6A15.49,15.49,0,0,1,560.8,596.18Z"/><path d="M592.44,567.9H582v-3.23h24.34v3.23H595.94v27.79h-3.5Z"/><path d="M629.58,596.22a15.74,15.74,0,0,1-6.45-1.28,15.32,15.32,0,0,1-8.2-8.58,16.67,16.67,0,0,1-1.13-6.09v-.09a16.52,16.52,0,0,1,1.16-6.12,16.1,16.1,0,0,1,21.16-8.64,15.32,15.32,0,0,1,8.2,8.58,16.67,16.67,0,0,1,1.13,6.09.06.06,0,0,1,0,.09,16.52,16.52,0,0,1-1.16,6.12,15.49,15.49,0,0,1-14.71,9.92Zm.09-3.23a11.86,11.86,0,0,0,4.9-1,11.46,11.46,0,0,0,3.83-2.72,12.84,12.84,0,0,0,2.5-4,13.29,13.29,0,0,0,.91-5v-.09a13.53,13.53,0,0,0-.91-5,12.25,12.25,0,0,0-2.54-4.05,12.49,12.49,0,0,0-3.88-2.75,12.37,12.37,0,0,0-9.79,0,11.4,11.4,0,0,0-3.84,2.72,12.84,12.84,0,0,0-2.5,4,13.29,13.29,0,0,0-.91,5v.09a13.53,13.53,0,0,0,.91,5,12.25,12.25,0,0,0,2.54,4.05,12.49,12.49,0,0,0,3.88,2.75A11.68,11.68,0,0,0,629.67,593Z"/><path d="M655.06,564.67h13.35a14.79,14.79,0,0,1,5.12.82,10.26,10.26,0,0,1,3.7,2.28,8.22,8.22,0,0,1,1.77,2.7,9.25,9.25,0,0,1,.62,3.42V574a9.18,9.18,0,0,1-.62,3.47,8,8,0,0,1-1.75,2.66,9.31,9.31,0,0,1-2.68,1.86,13.12,13.12,0,0,1-3.37,1l9.53,12.67h-4.3l-9-12.05h-8.87v12.05h-3.5Zm13.06,15.82a11.25,11.25,0,0,0,3.2-.44,7.91,7.91,0,0,0,2.53-1.27,5.64,5.64,0,0,0,2.27-4.67V574a5.38,5.38,0,0,0-2.09-4.5,9.38,9.38,0,0,0-5.87-1.62h-9.6v12.59Z"/><path d="M689.64,564.67h3.5v31h-3.5Z"/><path d="M715.92,564.45h3.28l14.14,31.24h-3.77l-3.64-8.2H709.05l-3.68,8.2h-3.59Zm8.64,19.9-7-15.83-7.09,15.83Z"/><path d="M741.67,564.67h3.5v27.79h17.46v3.23h-21Z"/><path d="M782,596.14a18.37,18.37,0,0,1-6.8-1.22,19.37,19.37,0,0,1-5.87-3.75l2.17-2.57a18,18,0,0,0,4.92,3.3,14,14,0,0,0,5.71,1.09,7.89,7.89,0,0,0,5-1.49,4.61,4.61,0,0,0,1.89-3.78v-.09a5,5,0,0,0-.36-1.93,4,4,0,0,0-1.24-1.57,8.69,8.69,0,0,0-2.47-1.29,33.09,33.09,0,0,0-4-1.11,32,32,0,0,1-4.64-1.33,11.5,11.5,0,0,1-3.27-1.82,6.79,6.79,0,0,1-1.91-2.48,8.26,8.26,0,0,1-.62-3.32v-.09a7.63,7.63,0,0,1,.75-3.37,8,8,0,0,1,2.13-2.68,10.54,10.54,0,0,1,3.24-1.77,12.36,12.36,0,0,1,4.07-.65,16.91,16.91,0,0,1,6,1,18,18,0,0,1,4.94,2.86l-2,2.7a15.09,15.09,0,0,0-4.37-2.57,13.35,13.35,0,0,0-4.59-.8,7.47,7.47,0,0,0-4.83,1.44,4.43,4.43,0,0,0-1.77,3.57v.09a5.28,5.28,0,0,0,.35,2,4,4,0,0,0,1.29,1.6,9.68,9.68,0,0,0,2.57,1.33,33.55,33.55,0,0,0,4.21,1.13,18.19,18.19,0,0,1,7.65,3.19,6.86,6.86,0,0,1,2.46,5.58v.09a8.1,8.1,0,0,1-3,6.38,9.78,9.78,0,0,1-3.34,1.78A14.08,14.08,0,0,1,782,596.14Z"/>
</symbol>
<symbol id="kenvim" viewBox="0 0 1080 720">
<title>kenvim</title>
<path d="M715.25,326.57v18.34l-17.54,5.23L569.37,388.43l-30.68,9.15L508,388.43,379.68,350.14l-17.55-5.23V133.54l17.55,5.24,159,47.46,159-47.46,17.54-5.24v193Zm-17.54,5.23V157.11L569.37,195.4l-30.68,9.15L508,195.4,379.68,157.11V331.8l159,47.47Z"/><polygon points="428.78 421.33 445.19 409.15 465.12 423.94 465.12 358.77 428.78 358.77 428.78 421.33"/><path d="M693,137.27a27.29,27.29,0,0,0-30.8-11.47l-123.5,36.85L412.27,124.93a27.25,27.25,0,0,0-30.79,11.47,27,27,0,0,0-4.31,14.68L477.32,181l34.61,10.32,26.76,8,26.76-8L600.06,181l97.23-29h0A27.06,27.06,0,0,0,693,137.27Z"/><path d="M282.8,448.06h11.45v60.61l58.29-60.61h14.79l-43.5,44.37,45.38,57.12H354.86l-39-49.15-21.6,21.89v27.26H282.8Z"/><path d="M391.83,516.64a29.69,29.69,0,0,0,2.9,10.58,25.13,25.13,0,0,0,5.94,7.83,25.67,25.67,0,0,0,8.12,4.86,26.91,26.91,0,0,0,9.43,1.67,28.78,28.78,0,0,0,13.4-2.9A39.79,39.79,0,0,0,441.84,531l7,6.23a45.94,45.94,0,0,1-12.91,10.22q-7.25,3.84-18,3.84a37.58,37.58,0,0,1-14.5-2.82,35.82,35.82,0,0,1-11.88-8,37.7,37.7,0,0,1-8.05-12.4,41.62,41.62,0,0,1-3-15.94,43.31,43.31,0,0,1,2.68-15.3,38.37,38.37,0,0,1,7.47-12.47A34.83,34.83,0,0,1,402.05,476a36.17,36.17,0,0,1,29.21.08,32.41,32.41,0,0,1,11,8.48,37,37,0,0,1,6.82,12.61,50.89,50.89,0,0,1,2.32,15.52v1.66a20.1,20.1,0,0,1-.15,2.25Zm48.27-9.13a34.78,34.78,0,0,0-2.17-9.59,27.12,27.12,0,0,0-4.71-8,21.57,21.57,0,0,0-7.25-5.48,22.75,22.75,0,0,0-9.79-2,21.85,21.85,0,0,0-9,1.88,22.76,22.76,0,0,0-7.39,5.26,29.23,29.23,0,0,0-5.29,8,32.1,32.1,0,0,0-2.68,9.95Z"/><path d="M471,474.59h11.17v13.05A35.08,35.08,0,0,1,492,477.28q6.08-4.27,15.8-4.28a31.51,31.51,0,0,1,12.11,2.18,25,25,0,0,1,9,6.16,27.16,27.16,0,0,1,5.66,9.49,36.35,36.35,0,0,1,2,12.18v46.54H525.36V505.86q0-10.41-5.37-16.49t-15.36-6.07a23.67,23.67,0,0,0-8.92,1.66,20.9,20.9,0,0,0-7.18,4.77,21.76,21.76,0,0,0-4.71,7.45,26.49,26.49,0,0,0-1.66,9.55v42.82H471Z"/><path d="M552.91,474.59h12.32l25.23,62.2,25.37-62.2h12l-32.62,75.54h-9.86Z"/><path d="M645.7,445.89h12.75v12.32H645.7Zm.72,28.7h11.16v75H646.42Z"/><path d="M683.54,474.59H694.7v12.62a59.08,59.08,0,0,1,4.13-5.37,25.51,25.51,0,0,1,5.15-4.56,25,25,0,0,1,6.52-3.12,27.75,27.75,0,0,1,8.41-1.16q9.14,0,15.08,4.28a27.67,27.67,0,0,1,9,10.65,46.38,46.38,0,0,1,4.57-5.8,28.88,28.88,0,0,1,5.72-4.78,27.73,27.73,0,0,1,7.18-3.19,32,32,0,0,1,8.92-1.16q13.05,0,20.44,8.05t7.39,22.11v46.39H786V505.86q0-10.85-5.15-16.7t-14.28-5.86a21.16,21.16,0,0,0-8,1.51,18.63,18.63,0,0,0-6.6,4.49,21.81,21.81,0,0,0-4.49,7.3,27.36,27.36,0,0,0-1.67,9.84v43.11h-11v-44q0-10.56-5.15-16.41t-14.13-5.86a19.48,19.48,0,0,0-8.27,1.73,19.88,19.88,0,0,0-6.59,4.92,23.43,23.43,0,0,0-4.43,7.45,26.94,26.94,0,0,0-1.59,9.48v42.67H683.54Z"/><path d="M285.21,564.67h11.61a15.84,15.84,0,0,1,4.77.68,11,11,0,0,1,3.68,1.95,8.51,8.51,0,0,1,2.35,3.09,10,10,0,0,1,.81,4.12v.09a9.42,9.42,0,0,1-1,4.4,9.33,9.33,0,0,1-2.64,3.17A11.43,11.43,0,0,1,301,584.1a16.78,16.78,0,0,1-4.7.65h-7.54v10.94h-3.5ZM296.4,581.6a11.59,11.59,0,0,0,3.49-.49,8.19,8.19,0,0,0,2.71-1.4,6.32,6.32,0,0,0,1.74-2.16,6.5,6.5,0,0,0,.59-2.8v-.09a5.89,5.89,0,0,0-2.29-5,9.79,9.79,0,0,0-6.06-1.72h-7.87v13.7Z"/><path d="M317,564.67h13.35a14.79,14.79,0,0,1,5.12.82,10.26,10.26,0,0,1,3.7,2.28,8.22,8.22,0,0,1,1.77,2.7,9.25,9.25,0,0,1,.62,3.42V574a9.18,9.18,0,0,1-.62,3.47,8,8,0,0,1-1.75,2.66,9.31,9.31,0,0,1-2.68,1.86,13.12,13.12,0,0,1-3.37,1l9.53,12.67h-4.3l-9-12.05h-8.87v12.05H317Zm13.06,15.82a11.25,11.25,0,0,0,3.2-.44,7.91,7.91,0,0,0,2.53-1.27,5.64,5.64,0,0,0,2.27-4.67V574a5.38,5.38,0,0,0-2.09-4.5,9.38,9.38,0,0,0-5.87-1.62h-9.6v12.59Z"/><path d="M351.61,564.67h3.5v31h-3.5Z"/><path d="M363.75,564.67h3.9l11,26.72,11.08-26.72h3.77l-13.34,31.24h-3.1Z"/><path d="M413.34,564.45h3.28l14.14,31.24H427l-3.63-8.2H406.47l-3.68,8.2H399.2Zm8.64,19.9-7-15.83-7.09,15.83Z"/><path d="M447.29,567.9H436.88v-3.23h24.33v3.23H450.79v27.79h-3.5Z"/><path d="M470,564.67h22.42v3.14H473.53V578.5h16.93v3.14H473.53v10.91h19.15v3.14H470Z"/><path d="M525.65,567.9H515.23v-3.23h24.34v3.23H529.15v27.79h-3.5Z"/><path d="M560.8,596.18a15.29,15.29,0,0,1-5.25-.86,11,11,0,0,1-4.08-2.58,11.36,11.36,0,0,1-2.64-4.23,16.72,16.72,0,0,1-.93-5.8v-18h3.5v17.81c0,3.37.84,6,2.5,7.76a10.37,10.37,0,0,0,13.81.13c1.68-1.71,2.53-4.26,2.53-7.66v-18h3.5v17.77a17.55,17.55,0,0,1-.93,6,11.57,11.57,0,0,1-2.64,4.3,11,11,0,0,1-4.08,2.6A15.49,15.49,0,0,1,560.8,596.18Z"/><path d="M592.44,567.9H582v-3.23h24.34v3.23H595.94v27.79h-3.5Z"/><path d="M629.58,596.22a15.74,15.74,0,0,1-6.45-1.28,15.32,15.32,0,0,1-8.2-8.58,16.67,16.67,0,0,1-1.13-6.09v-.09a16.52,16.52,0,0,1,1.16-6.12,16.1,16.1,0,0,1,21.16-8.64,15.32,15.32,0,0,1,8.2,8.58,16.67,16.67,0,0,1,1.13,6.09.06.06,0,0,1,0,.09,16.52,16.52,0,0,1-1.16,6.12,15.49,15.49,0,0,1-14.71,9.92Zm.09-3.23a11.86,11.86,0,0,0,4.9-1,11.46,11.46,0,0,0,3.83-2.72,12.84,12.84,0,0,0,2.5-4,13.29,13.29,0,0,0,.91-5v-.09a13.53,13.53,0,0,0-.91-5,12.25,12.25,0,0,0-2.54-4.05,12.49,12.49,0,0,0-3.88-2.75,12.37,12.37,0,0,0-9.79,0,11.4,11.4,0,0,0-3.84,2.72,12.84,12.84,0,0,0-2.5,4,13.29,13.29,0,0,0-.91,5v.09a13.53,13.53,0,0,0,.91,5,12.25,12.25,0,0,0,2.54,4.05,12.49,12.49,0,0,0,3.88,2.75A11.68,11.68,0,0,0,629.67,593Z"/><path d="M655.06,564.67h13.35a14.79,14.79,0,0,1,5.12.82,10.26,10.26,0,0,1,3.7,2.28,8.22,8.22,0,0,1,1.77,2.7,9.25,9.25,0,0,1,.62,3.42V574a9.18,9.18,0,0,1-.62,3.47,8,8,0,0,1-1.75,2.66,9.31,9.31,0,0,1-2.68,1.86,13.12,13.12,0,0,1-3.37,1l9.53,12.67h-4.3l-9-12.05h-8.87v12.05h-3.5Zm13.06,15.82a11.25,11.25,0,0,0,3.2-.44,7.91,7.91,0,0,0,2.53-1.27,5.64,5.64,0,0,0,2.27-4.67V574a5.38,5.38,0,0,0-2.09-4.5,9.38,9.38,0,0,0-5.87-1.62h-9.6v12.59Z"/><path d="M689.64,564.67h3.5v31h-3.5Z"/><path d="M715.92,564.45h3.28l14.14,31.24h-3.77l-3.64-8.2H709.05l-3.68,8.2h-3.59Zm8.64,19.9-7-15.83-7.09,15.83Z"/><path d="M741.67,564.67h3.5v27.79h17.46v3.23h-21Z"/><path d="M782,596.14a18.37,18.37,0,0,1-6.8-1.22,19.37,19.37,0,0,1-5.87-3.75l2.17-2.57a18,18,0,0,0,4.92,3.3,14,14,0,0,0,5.71,1.09,7.89,7.89,0,0,0,5-1.49,4.61,4.61,0,0,0,1.89-3.78v-.09a5,5,0,0,0-.36-1.93,4,4,0,0,0-1.24-1.57,8.69,8.69,0,0,0-2.47-1.29,33.09,33.09,0,0,0-4-1.11,32,32,0,0,1-4.64-1.33,11.5,11.5,0,0,1-3.27-1.82,6.79,6.79,0,0,1-1.91-2.48,8.26,8.26,0,0,1-.62-3.32v-.09a7.63,7.63,0,0,1,.75-3.37,8,8,0,0,1,2.13-2.68,10.54,10.54,0,0,1,3.24-1.77,12.36,12.36,0,0,1,4.07-.65,16.91,16.91,0,0,1,6,1,18,18,0,0,1,4.94,2.86l-2,2.7a15.09,15.09,0,0,0-4.37-2.57,13.35,13.35,0,0,0-4.59-.8,7.47,7.47,0,0,0-4.83,1.44,4.43,4.43,0,0,0-1.77,3.57v.09a5.28,5.28,0,0,0,.35,2,4,4,0,0,0,1.29,1.6,9.68,9.68,0,0,0,2.57,1.33,33.55,33.55,0,0,0,4.21,1.13,18.19,18.19,0,0,1,7.65,3.19,6.86,6.86,0,0,1,2.46,5.58v.09a8.1,8.1,0,0,1-3,6.38,9.78,9.78,0,0,1-3.34,1.78A14.08,14.08,0,0,1,782,596.14Z"/>
</symbol>
<symbol id="lifestar" viewBox="0 0 1080 720">
<title>lifestar</title>
<path d="M324.74,327.93a30.66,30.66,0,1,0-29-29A30.65,30.65,0,0,0,324.74,327.93Z"/><path d="M213.86,403.34c4.48-13.94,38.23-76.27,38.23-76.27-37,119.91,37.29,186.18,37.29,186.18C163,480.92,161.32,379.36,161.32,379.36S210.73,413.1,213.86,403.34Z"/><path d="M189,372.23a26.46,26.46,0,1,0-25-25.05A26.46,26.46,0,0,0,189,372.23Z"/><path d="M358.71,518s-62.95-94.54,35.16-221c0,0-64.36,53.53-75.16,66.93-7.56,9.38-49.44-49.37-49.44-49.37S229.37,427.18,358.71,518Z"/><text class="cls-2" transform="translate(401.72 475.07)"><tspan class="cls-3">E</tspan><tspan x="24.16" y="0">me</tspan><tspan class="cls-4" x="81.25" y="0">r</tspan><tspan x="94.55" y="0">gency </tspan><tspan class="cls-5" x="213.62" y="0">M</tspan><tspan x="245.55" y="0">edical Services</tspan></text><polygon points="263.38 201.99 272.93 221.32 294.26 224.42 278.82 239.47 282.47 260.73 263.38 250.69 244.3 260.73 247.94 239.47 232.5 224.42 253.84 221.32 263.38 201.99"/><polygon points="210.22 241.56 216.46 254.2 230.41 256.23 220.31 266.06 222.69 279.96 210.22 273.4 197.75 279.96 200.13 266.06 190.03 256.23 203.98 254.2 210.22 241.56"/><path d="M407,409.39h49.53v5.77H401.13V330.78H407Z"/><path d="M479.14,415.16h-5.89V330.78h5.89Z"/><path d="M497.17,415.16l.24-84.38h59.25v6h-53.6v33.06H549v5.89H503.06v39.42Z"/><path d="M578.9,409.27h53.61v5.89H573l.24-84.38h59.26v6H578.9v33.06h48.32v5.89H578.9Z"/><path d="M699.11,345.09a27.73,27.73,0,0,0-10.28-6.61,39.8,39.8,0,0,0-13.76-3q-9-.24-15.21,4t-6.31,12.92a17.51,17.51,0,0,0,.6,4.69,14.83,14.83,0,0,0,1.5,3.66,8.93,8.93,0,0,0,2.83,2.77q1.92,1.26,3.36,2a23.92,23.92,0,0,0,4.27,1.62c1.88.57,3.39,1,4.51,1.21l5,1.08,1.92.36q4.7,1.08,8,2a58.89,58.89,0,0,1,7.16,2.59,23.94,23.94,0,0,1,6.49,4,20.26,20.26,0,0,1,4.38,5.53,24,24,0,0,1,2.05,9.5,18.44,18.44,0,0,1-2.23,8.83,26.54,26.54,0,0,1-5.77,7.33,26,26,0,0,1-8.71,5.05,32.07,32.07,0,0,1-10.94,1.87,58.77,58.77,0,0,1-10.34-.85,32.78,32.78,0,0,1-8.53-2.7c-2.56-1.24-4.55-2.26-6-3.07a51.82,51.82,0,0,1-5.47-3.78c-2.24-1.72-3.6-2.75-4.09-3.07l4.45-4.68q12.51,12.38,28,12.14a27.35,27.35,0,0,0,9.91-.85,14.94,14.94,0,0,0,7.52-4.32q8.77-9.85,4.08-17.91t-20.31-10.94q-15.51-2.88-23-8.84a18.71,18.71,0,0,1-7.45-15.32,19.8,19.8,0,0,1,7.15-15.75q7.15-6.12,20.26-6.85a44.88,44.88,0,0,1,7,.06,29.36,29.36,0,0,1,6.07,1.15q2.7.84,4.74,1.68a22.85,22.85,0,0,1,4,2.16c1.32.88,2.3,1.56,3,2s1.42,1.13,2.34,1.93l1.5,1.32Z"/><path d="M746.69,415.16H740.8V336.67H711.11v-5.89H776v5.89H746.69Z"/><path d="M761.53,415.16l38.7-84.38h6l40.15,84.38h-7l-10.82-23.8H779.08L768,415.16ZM826,385.83,803.24,337.4l-21.52,48.43Z"/><path d="M904.07,379.16a25.23,25.23,0,0,1,6.07,3.49,15.3,15.3,0,0,1,4.57,5.89,19.83,19.83,0,0,1,1.68,8.35,88.7,88.7,0,0,0,2.17,18.27h-6.49l-.48-2.76a62.27,62.27,0,0,1-1.09-7.15,76.55,76.55,0,0,1-.48-8,16,16,0,0,0-.66-4.68,17.81,17.81,0,0,0-1.56-3.73,9.12,9.12,0,0,0-2.65-2.82c-1.16-.85-2.2-1.55-3.12-2.11a13.8,13.8,0,0,0-3.79-1.44q-2.4-.6-3.9-.9a42.06,42.06,0,0,0-4.21-.54c-1.8-.16-3.11-.26-3.91-.3s-2-.08-3.72-.12l-3.13-.06H859.78v34.61h-6.13V330.78h34.5a43.68,43.68,0,0,1,7,.61,42.63,42.63,0,0,1,8,2.22,31.41,31.41,0,0,1,7.69,4.09,19,19,0,0,1,5.59,6.67,20,20,0,0,1,2.23,9.49q0,11-6.73,17.31a20.27,20.27,0,0,1-6,3.43,53.13,53.13,0,0,1-8.66,2.82A28.55,28.55,0,0,1,904.07,379.16Zm-44.29-4.5h25.36q14.31-.12,20.86-5.41t6.55-15.39a14.54,14.54,0,0,0-6.67-12.56,27.71,27.71,0,0,0-16.17-4.63H859.78v38Z"/>
</symbol>
<symbol id="quality-pro-b" viewBox="0 0 1080 720">
<title>quality-pro-b</title>
<path d="M251,353.49a42.4,42.4,0,0,1-10.63,4.87A43.91,43.91,0,0,1,212,357.08a39.89,39.89,0,0,1-12.78-8.29,38.4,38.4,0,0,1-8.43-12.3,37.54,37.54,0,0,1-3.06-15.08v-.22a38.08,38.08,0,0,1,11.6-27.54,40.64,40.64,0,0,1,12.89-8.35,44.21,44.21,0,0,1,32.22,0,39.89,39.89,0,0,1,12.78,8.29,38.36,38.36,0,0,1,8.44,12.31A37.47,37.47,0,0,1,268.71,321v.21A38.11,38.11,0,0,1,267,332.64a36.6,36.6,0,0,1-4.94,10.05l7.73,6.52-10.52,11.66Zm-22.69-11.76a21.61,21.61,0,0,0,7.66-1.39l-10.42-8.88,10.52-11.77,10.21,9.2a21.69,21.69,0,0,0,1.18-7.27v-.21a21.78,21.78,0,0,0-1.4-7.76,20.18,20.18,0,0,0-4-6.52,19.09,19.09,0,0,0-6.18-4.5A18.71,18.71,0,0,0,228,301a18,18,0,0,0-7.79,1.65,19.3,19.3,0,0,0-6,4.44,19.55,19.55,0,0,0-3.86,6.42,21.92,21.92,0,0,0-1.35,7.7v.22a21.51,21.51,0,0,0,1.41,7.75,20,20,0,0,0,3.93,6.47,18.78,18.78,0,0,0,6.1,4.44A18.31,18.31,0,0,0,228.29,341.73Z"/><path d="M311.8,360a37.37,37.37,0,0,1-11.2-1.57,21.81,21.81,0,0,1-8.47-4.84,21.39,21.39,0,0,1-5.35-8.26,33.72,33.72,0,0,1-1.87-11.77V301.1h16.43v32.15q0,6.27,2.89,9.29a10.2,10.2,0,0,0,7.74,3,10.48,10.48,0,0,0,7.74-2.89q2.88-2.9,2.88-9V301.1H339v32.06a33.79,33.79,0,0,1-1.95,12.11,21.72,21.72,0,0,1-5.48,8.34,22.06,22.06,0,0,1-8.55,4.84A37.74,37.74,0,0,1,311.8,360Z"/><path d="M374.87,300.69h15.51l24.73,58.25H397.85l-4.23-10.33H371.21l-4.14,10.33H350.14ZM389,336.22l-6.47-16.44-6.56,16.44Z"/><path d="M427,301.1h16.1v43.8h28.13v14H427Z"/><path d="M484.65,301.1h16.18v57.84H484.65Z"/><path d="M531.86,315.15H514.44v-14h50.95v14H548v43.79h-16.1Z"/><path d="M595.43,337.29,573.35,301.1h18.34l11.95,21.07,12-21.07h18l-22.07,35.95v21.89H595.43Z"/><path d="M648.18,283.75h32.23a44.1,44.1,0,0,1,12.89,1.77,28.42,28.42,0,0,1,9.88,5.13,22.58,22.58,0,0,1,6.28,8.29,26.94,26.94,0,0,1,2.21,11.13v.21a26.64,26.64,0,0,1-2.42,11.66,23.83,23.83,0,0,1-6.72,8.45,29.14,29.14,0,0,1-10.25,5.13,46.46,46.46,0,0,1-12.95,1.71H669v21.4H648.18ZM678.9,321c3.73,0,6.64-.88,8.76-2.64a8.81,8.81,0,0,0,3.17-7.15V311q0-4.85-3.17-7.37t-8.86-2.53H669V321Z"/><path d="M728.53,283.75h35.55a44.39,44.39,0,0,1,14.72,2.14,25.26,25.26,0,0,1,9.77,6q6.66,6.42,6.66,17.44v.21q0,8.67-4.18,14.33a26.53,26.53,0,0,1-11.28,8.67l17.93,26.1H773.64L758.5,336h-9.13v22.68H728.53Zm34.59,35.94c3.58,0,6.33-.8,8.27-2.4a8,8,0,0,0,2.9-6.47v-.22c0-3-1-5.22-3-6.68s-4.76-2.2-8.27-2.2H749.37v18Z"/><path d="M851.63,360.12a42.06,42.06,0,0,1-16.12-3,39.89,39.89,0,0,1-12.78-8.29,38.4,38.4,0,0,1-8.43-12.3,37.54,37.54,0,0,1-3.06-15.08v-.22a38.08,38.08,0,0,1,11.6-27.54,40.64,40.64,0,0,1,12.89-8.35,44.21,44.21,0,0,1,32.22,0,39.83,39.83,0,0,1,12.79,8.29,38.33,38.33,0,0,1,8.43,12.31A37.47,37.47,0,0,1,892.23,321v.21a38,38,0,0,1-11.6,27.54,40.64,40.64,0,0,1-12.89,8.35A42,42,0,0,1,851.63,360.12Zm.16-18.71a18.88,18.88,0,0,0,7.86-1.61,18,18,0,0,0,6-4.33,20.13,20.13,0,0,0,3.88-6.36,21.33,21.33,0,0,0,1.4-7.7v-.22a21.29,21.29,0,0,0-1.4-7.7,19.53,19.53,0,0,0-10.12-10.86,19.73,19.73,0,0,0-15.68-.05,18.68,18.68,0,0,0-9.91,10.7,22.15,22.15,0,0,0-1.34,7.7v.21a21.08,21.08,0,0,0,1.4,7.7,20,20,0,0,0,3.93,6.42,19.1,19.1,0,0,0,6.08,4.44A18.31,18.31,0,0,0,851.79,341.41Z"/><path d="M189.18,374.72h26.6a36.43,36.43,0,0,1,10.63,1.46,23.31,23.31,0,0,1,8.16,4.23,18.86,18.86,0,0,1,5.19,6.84,22.29,22.29,0,0,1,1.81,9.18v.18a21.93,21.93,0,0,1-2,9.62,19.81,19.81,0,0,1-5.54,7,24.16,24.16,0,0,1-8.47,4.23,38.64,38.64,0,0,1-10.68,1.41h-8.51v17.66h-17.2Zm25.36,30.72a11,11,0,0,0,7.22-2.18,7.28,7.28,0,0,0,2.62-5.9v-.18a7.3,7.3,0,0,0-2.62-6.07c-1.74-1.4-4.18-2.09-7.31-2.09h-8.07v16.42Z"/><path d="M270.29,374.28h16.58l26.41,62.23H294.85l-4.53-11H266.39l-4.43,11H243.88Zm15.07,38-6.91-17.56-7,17.56Z"/><path d="M319.67,374.72H337v61.79H319.67Z"/><path d="M348.3,374.72h16.08L390,407.38V374.72h16.93v61.79h-15.1l-26.56-33.9v33.9H348.3Z"/><path d="M433,389.73H414.42v-15h54.43v15H450.24v46.78H433Z"/><path d="M476.74,374.72H494v61.79H476.74Z"/><path d="M505.37,374.72h16.08L547,407.38V374.72H564v61.79h-15.1l-26.56-33.9v33.9H505.37Z"/><path d="M606.6,437.74a37.52,37.52,0,0,1-13.43-2.34,31.91,31.91,0,0,1-10.68-6.57,30.24,30.24,0,0,1-7.09-10.11,31.76,31.76,0,0,1-2.57-12.93v-.18A31.49,31.49,0,0,1,575.34,393a31.93,31.93,0,0,1,6.92-10.24A31.21,31.21,0,0,1,592.83,376a35.36,35.36,0,0,1,13.33-2.47,38.31,38.31,0,0,1,14.22,2.38,38.89,38.89,0,0,1,11,6.62l-10.1,12.09a28.34,28.34,0,0,0-6.87-4.33,20.66,20.66,0,0,0-8.11-1.49,14.81,14.81,0,0,0-6.25,1.32,15.58,15.58,0,0,0-5,3.62,17.34,17.34,0,0,0-3.37,5.38,17.56,17.56,0,0,0-1.24,6.62v.18a18.65,18.65,0,0,0,1.24,6.88,15.4,15.4,0,0,0,3.52,5.43,16.48,16.48,0,0,0,5.33,3.53,17.43,17.43,0,0,0,6.81,1.28,17.84,17.84,0,0,0,10-2.56v-7.5H605V400.41h28.55v27.8a45.3,45.3,0,0,1-11.7,6.8A40.32,40.32,0,0,1,606.6,437.74Z"/><rect class="cls-2" x="647.61" y="373.11" width="244.67" height="15.55"/><rect x="647.61" y="388.66" width="244.67" height="15.55"/><rect class="cls-2" x="647.61" y="404.22" width="244.67" height="15.55"/><rect x="647.61" y="419.77" width="244.67" height="15.55"/><path d="M931.35,472.9H148.65V247.1h782.7ZM163.57,458.05H916.43V262H163.57Z"/>
</symbol>
<symbol id="royal-intersec-b" viewBox="0 0 1080 720">
<title>royal-intersec-b</title>
<path d="M255.88,316.47a31,31,0,1,1-31.24,30.7C224.63,330.32,238.74,316.45,255.88,316.47Zm.15,48.89a17.94,17.94,0,0,0,15.44-9.18c4.8-8.87,2-19.07-6.76-24.34-1-.62-1.61-1.18-1.33-2.54a2.26,2.26,0,0,0-1.05-1.89,7.77,7.77,0,0,0-3.31-.69,2.16,2.16,0,0,0-1.68,1.07c-.43,1.38-1.28,1.63-2.56,1.7-10.14.55-17.34,8.65-17,19.07C238.05,357.8,246.33,365.42,256,365.36Z"/><path d="M236.93,318.14c.66-2.72,1.2-5.21,1.86-7.66,1.22-4.48,2.14-9.08,3.85-13.36,4.06-10.17,13.76-15.74,24.7-15.19,14.36.74,24.22,13.61,23.48,25.91-.26,4.3-1.58,8.55-2.52,12.8-.69,3.12-1.54,6.2-2.34,9.38-2.24-2.64-4.43-5.12-6.47-7.73a3.05,3.05,0,0,1-.09-2.19c.74-3.34,1.69-6.64,2.35-10A16.4,16.4,0,0,0,250,302c-1,3.33-1.75,6.77-2.57,10.18a3.32,3.32,0,0,1-2.45,2.59C242.41,315.63,239.91,316.86,236.93,318.14Z"/><path d="M260.43,338.8a20.7,20.7,0,0,0,1.7,2.69A8.71,8.71,0,1,1,249,353a8.63,8.63,0,0,1,3.37-13.53c1.48-.58,3.05-.91,3.14-3a1.31,1.31,0,0,1,1-.83,13.73,13.73,0,0,1,3.71.92c.48.21.61,1.21.9,1.86Z"/><path d="M167.83,319a7.23,7.23,0,0,1,7.28-7.28h23c8.41,0,14.93,2.37,19.28,6.71,3.68,3.69,5.67,8.89,5.67,15.13v.19c0,10.39-5.2,16.82-13.23,20.12l10.11,12.29c1.42,1.8,2.36,3.31,2.36,5.58a6.77,6.77,0,0,1-6.9,6.71,8.71,8.71,0,0,1-7.18-3.78l-14.18-18H182.39v14.46a7.28,7.28,0,1,1-14.56,0Zm29.3,24.86c7.09,0,11.15-3.78,11.15-9.36v-.19c0-6.24-4.34-9.45-11.43-9.45H182.39v19Z"/><path d="M315.36,352.38l-21.36-29a8.63,8.63,0,0,1-1.79-5.2,7.1,7.1,0,0,1,7.27-7c3.31,0,5.39,1.79,7.19,4.44l16.06,23.15,16.35-23.34c1.8-2.65,4-4.35,7-4.35a6.74,6.74,0,0,1,7.09,7.09,9,9,0,0,1-1.89,5.1L329.91,352.1v19.09a7.28,7.28,0,1,1-14.55,0Z"/><path d="M344.75,368.54l23.06-52.07a9,9,0,0,1,8.51-5.76h.85c4,0,6.8,2.17,8.41,5.76l23.06,52.07a7.14,7.14,0,0,1,.75,2.93,6.9,6.9,0,0,1-6.9,7c-3.4,0-5.67-2-7-5l-4.44-10.4H362l-4.63,10.87a7.15,7.15,0,0,1-6.71,4.54,6.7,6.7,0,0,1-6.71-6.81A7.77,7.77,0,0,1,344.75,368.54Zm40.92-18.33-9.17-21.83-9.16,21.83Z"/><path d="M413.27,318.45a7.28,7.28,0,0,1,14.55,0v46.22h26.94a6.62,6.62,0,0,1,0,13.23H420.54a7.22,7.22,0,0,1-7.27-7.28Z"/><path d="M485.66,318.45a7.28,7.28,0,0,1,14.55,0v52.74a7.28,7.28,0,1,1-14.55,0Z"/><path d="M509.19,318.64a7.22,7.22,0,0,1,7.28-7.27H518c3.5,0,5.57,1.7,7.56,4.25l28.07,36.86V318.36a7.18,7.18,0,0,1,14.36,0V371a7.22,7.22,0,0,1-7.27,7.28h-.48c-3.49,0-5.57-1.7-7.56-4.25l-29.11-38.19v35.44a7.18,7.18,0,1,1-14.36,0Z"/><path d="M591.69,325.16h-14a6.71,6.71,0,0,1,0-13.42h42.52a6.71,6.71,0,1,1,0,13.42h-14v46a7.28,7.28,0,1,1-14.56,0Z"/><path d="M630,370.62V319a7.22,7.22,0,0,1,7.28-7.28h36.66a6.54,6.54,0,0,1,6.53,6.53,6.45,6.45,0,0,1-6.53,6.42H644.43v13.42h25.23a6.53,6.53,0,0,1,6.52,6.52,6.46,6.46,0,0,1-6.52,6.43H644.43V365h30a6.53,6.53,0,0,1,6.52,6.52,6.46,6.46,0,0,1-6.52,6.43H637.25A7.22,7.22,0,0,1,630,370.62Z"/><path d="M685.73,319a7.22,7.22,0,0,1,7.27-7.28h23c8.41,0,14.93,2.37,19.28,6.71,3.69,3.69,5.67,8.89,5.67,15.13v.19c0,10.39-5.2,16.82-13.23,20.12l10.11,12.29c1.42,1.8,2.36,3.31,2.36,5.58a6.77,6.77,0,0,1-6.9,6.71,8.72,8.72,0,0,1-7.18-3.78l-14.17-18H700.28v14.46a7.28,7.28,0,1,1-14.55,0ZM715,343.88c7.09,0,11.16-3.78,11.16-9.36v-.19c0-6.24-4.35-9.45-11.44-9.45H700.28v19Z"/><path d="M745.17,370.91a6.8,6.8,0,0,1-2.74-5.48,6.69,6.69,0,0,1,6.81-6.71,7,7,0,0,1,4.15,1.32c5,3.68,10.49,5.95,16.92,5.95,6,0,9.55-2.36,9.55-6.24v-.18c0-3.69-2.27-5.58-13.33-8.42-13.33-3.4-21.93-7.08-21.93-20.22v-.19c0-12,9.64-19.94,23.16-19.94a38.4,38.4,0,0,1,21,5.86,6.61,6.61,0,0,1,3.21,5.76,6.69,6.69,0,0,1-6.8,6.71,6.93,6.93,0,0,1-3.69-1c-4.82-2.83-9.35-4.44-13.89-4.44-5.58,0-8.51,2.55-8.51,5.77v.19c0,4.34,2.84,5.76,14.27,8.69,13.42,3.5,21,8.32,21,19.85v.19c0,13.13-10,20.51-24.29,20.51A42.72,42.72,0,0,1,745.17,370.91Z"/><path d="M799.42,370.62V319a7.22,7.22,0,0,1,7.28-7.28h36.66a6.54,6.54,0,0,1,6.53,6.53,6.45,6.45,0,0,1-6.53,6.42H813.88v13.42h25.23a6.53,6.53,0,0,1,6.52,6.52,6.46,6.46,0,0,1-6.52,6.43H813.88V365h30a6.53,6.53,0,0,1,6.52,6.52,6.46,6.46,0,0,1-6.52,6.43H806.7A7.22,7.22,0,0,1,799.42,370.62Z"/><path d="M852.25,345v-.19c0-18.8,14.17-34.21,34.49-34.21,9.93,0,16.64,2.65,22.12,6.71a7.27,7.27,0,0,1,2.83,5.77,7.09,7.09,0,0,1-7.18,7.08,7.67,7.67,0,0,1-4.35-1.41A21.71,21.71,0,0,0,886.65,324c-11.15,0-19.19,9.26-19.19,20.6v.19c0,11.34,7.85,20.79,19.19,20.79A21.24,21.24,0,0,0,901,360.42a6.74,6.74,0,1,1,8.7,10.3c-6,5.2-13,8.31-23.53,8.31C866.71,379,852.25,364,852.25,345Z"/><path d="M587.45,401.72a15.91,15.91,0,0,1,4.43.6,10.11,10.11,0,0,1,3.62,1.86,8.88,8.88,0,0,1,2.46,3.23,10.94,10.94,0,0,1,.92,4.66v.63h-6.7v-.48a4.92,4.92,0,0,0-1.27-3.54,4.65,4.65,0,0,0-3.51-1.31,5.58,5.58,0,0,0-3.66,1.05,3.31,3.31,0,0,0-1.27,2.68,3.23,3.23,0,0,0,.74,2.18,6.26,6.26,0,0,0,1.93,1.48,16.88,16.88,0,0,0,2.73,1.08c1,.3,2.06.64,3.13,1a26.43,26.43,0,0,1,3.13,1.29,10.7,10.7,0,0,1,2.72,1.87,8.58,8.58,0,0,1,1.94,2.82,10.15,10.15,0,0,1,.74,4.1,13.22,13.22,0,0,1-.91,5.15,9.19,9.19,0,0,1-2.55,3.46,10.54,10.54,0,0,1-3.92,1.95,19.19,19.19,0,0,1-5,.61,15.39,15.39,0,0,1-4.63-.68,11.4,11.4,0,0,1-3.88-2.07,10,10,0,0,1-2.66-3.42,10.81,10.81,0,0,1-1-4.75c0-.2,0-.41,0-.62a5.08,5.08,0,0,0,0-.51h6.83c0,.05,0,.17,0,.35a4.55,4.55,0,0,0,0,.48,6.55,6.55,0,0,0,.38,2.27,4.79,4.79,0,0,0,1.09,1.77,4.93,4.93,0,0,0,1.77,1.13,6.54,6.54,0,0,0,2.39.4,7.64,7.64,0,0,0,2.5-.36,4.69,4.69,0,0,0,1.65-.95,3.35,3.35,0,0,0,.9-1.33,4.33,4.33,0,0,0,.27-1.51,4.48,4.48,0,0,0-.47-2.14,4.73,4.73,0,0,0-1.3-1.52,8.6,8.6,0,0,0-1.91-1.1c-.73-.31-1.5-.6-2.32-.88l-2.52-.84a24.08,24.08,0,0,1-2.53-1,13.91,13.91,0,0,1-2.31-1.34,8.91,8.91,0,0,1-1.92-1.86,8.68,8.68,0,0,1-1.3-2.58,11.7,11.7,0,0,1-.47-3.49,9.33,9.33,0,0,1,1-4.35,9.07,9.07,0,0,1,2.58-3.08,11.24,11.24,0,0,1,3.74-1.82A16.26,16.26,0,0,1,587.45,401.72Z"/><path d="M611.36,409.92q4.88,0,7.3,3.42T621.09,424v1.55H607.4a21.15,21.15,0,0,0,.27,3.2,8.62,8.62,0,0,0,.72,2.37,3.73,3.73,0,0,0,1.27,1.46,3.44,3.44,0,0,0,1.9.5,2.92,2.92,0,0,0,2.51-1.35A6.52,6.52,0,0,0,615,428h6.08a12.83,12.83,0,0,1-.72,4.52,8.46,8.46,0,0,1-2,3.16,8.16,8.16,0,0,1-3,1.86,11.43,11.43,0,0,1-3.8.61c-3.45,0-6.08-1.14-7.87-3.42S601,428.83,601,424s.89-8.39,2.68-10.66A9.16,9.16,0,0,1,611.36,409.92Zm0,5a3,3,0,0,0-2.84,1.6,10.49,10.49,0,0,0-1,4.55h7.15a10.44,10.44,0,0,0-.79-4.55A2.59,2.59,0,0,0,611.36,415Z"/><path d="M632.82,409.92a11.48,11.48,0,0,1,3.9.63,7.22,7.22,0,0,1,3,1.94,8.7,8.7,0,0,1,1.89,3.33,15.75,15.75,0,0,1,.66,4.85h-6.3a8.9,8.9,0,0,0-.77-4.21,2.53,2.53,0,0,0-2.35-1.36,2.84,2.84,0,0,0-2.77,2,16.62,16.62,0,0,0-.81,5.9v2a15.9,15.9,0,0,0,.86,5.91,3,3,0,0,0,2.94,2,2.5,2.5,0,0,0,2.38-1.4,9.55,9.55,0,0,0,.72-4.2h6.1a16.22,16.22,0,0,1-.64,4.86,9.06,9.06,0,0,1-1.85,3.35,7.31,7.31,0,0,1-2.91,1.94,10.86,10.86,0,0,1-3.8.62,11.48,11.48,0,0,1-4.55-.83,7.69,7.69,0,0,1-3.19-2.58,11.84,11.84,0,0,1-1.86-4.4,28.94,28.94,0,0,1-.6-6.29q0-7.25,2.49-10.66T632.82,409.92Z"/><path d="M664.88,437.48h-5.1l-.63-3.33h-.3a10.83,10.83,0,0,1-1.2,1.52,8.37,8.37,0,0,1-1.52,1.25,8.07,8.07,0,0,1-1.88.86,7.2,7.2,0,0,1-2.23.32,8.54,8.54,0,0,1-2.86-.46,5.53,5.53,0,0,1-2.26-1.48,7.31,7.31,0,0,1-1.49-2.69,13.21,13.21,0,0,1-.54-4V410.55H651v17.2a5.79,5.79,0,0,0,.91,3.68,3.29,3.29,0,0,0,2.64,1.07,3.45,3.45,0,0,0,1.66-.4,4,4,0,0,0,1.33-1.1,5.42,5.42,0,0,0,.89-1.67,6.51,6.51,0,0,0,.32-2.1V410.55h6.13Z"/><path d="M679.28,409.92a6.7,6.7,0,0,1,1.05.08l.83.15a4.58,4.58,0,0,1,.67.2v5.92h-2.2a6.06,6.06,0,0,0-1.91.3,3.85,3.85,0,0,0-1.6,1,5,5,0,0,0-1.1,1.9,9.1,9.1,0,0,0-.41,3v15h-6.13V410.55h5.1l.73,3.92h.3a14.63,14.63,0,0,1,.65-1.66,6,6,0,0,1,.93-1.45,4.75,4.75,0,0,1,1.32-1A3.67,3.67,0,0,1,679.28,409.92Z"/><path d="M691.87,409.92q4.88,0,7.3,3.42T701.59,424v1.55H687.91a21.15,21.15,0,0,0,.27,3.2,8.62,8.62,0,0,0,.72,2.37,3.73,3.73,0,0,0,1.27,1.46,3.43,3.43,0,0,0,1.89.5,2.92,2.92,0,0,0,2.52-1.35,6.52,6.52,0,0,0,.94-3.78h6.07a13.08,13.08,0,0,1-.71,4.52,8.46,8.46,0,0,1-2,3.16,8.16,8.16,0,0,1-3,1.86,11.44,11.44,0,0,1-3.81.61c-3.44,0-6.07-1.14-7.86-3.42s-2.69-5.85-2.69-10.68.89-8.39,2.68-10.66A9.16,9.16,0,0,1,691.87,409.92Zm0,5a3,3,0,0,0-2.84,1.6,10.49,10.49,0,0,0-1,4.55h7.15a10.44,10.44,0,0,0-.79-4.55A2.59,2.59,0,0,0,691.87,415Z"/><path d="M727.46,424.22v13.26H720.9V424.22l-10.75-21.88h6.91l7.17,15.43h.2l7.13-15.43h6.6Z"/><path d="M745.89,409.92q5.37,0,8.07,3.42T756.64,424c0,4.83-.9,8.4-2.68,10.68s-4.49,3.42-8.07,3.42-6.27-1.14-8.06-3.42-2.7-5.85-2.7-10.68.9-8.39,2.7-10.66S742.31,409.92,745.89,409.92Zm0,5.18a3.44,3.44,0,0,0-3.36,2,13.82,13.82,0,0,0-1,5.88v2a13.94,13.94,0,0,0,1,5.91,3.79,3.79,0,0,0,6.72,0,13.94,13.94,0,0,0,1-5.91v-2a13.82,13.82,0,0,0-1-5.88A3.44,3.44,0,0,0,745.89,415.1Z"/><path d="M779.47,437.48h-5.1l-.62-3.33h-.3a10.9,10.9,0,0,1-1.21,1.52,7.74,7.74,0,0,1-1.52,1.25,8.07,8.07,0,0,1-1.88.86,7.18,7.18,0,0,1-2.22.32,8.45,8.45,0,0,1-2.86-.46,5.63,5.63,0,0,1-2.27-1.48,7.31,7.31,0,0,1-1.49-2.69,13.56,13.56,0,0,1-.53-4V410.55h6.12v17.2a5.72,5.72,0,0,0,.92,3.68,3.27,3.27,0,0,0,2.63,1.07,3.49,3.49,0,0,0,1.67-.4,4.07,4.07,0,0,0,1.32-1.1,5.21,5.21,0,0,0,.89-1.67,6.51,6.51,0,0,0,.33-2.1V410.55h6.12Z"/><path d="M793.88,409.92a6.7,6.7,0,0,1,1,.08l.83.15a4.58,4.58,0,0,1,.67.2v5.92h-2.2a6.06,6.06,0,0,0-1.91.3,3.85,3.85,0,0,0-1.6,1,5,5,0,0,0-1.1,1.9,9.1,9.1,0,0,0-.41,3v15h-6.13V410.55h5.1l.72,3.92h.31a13,13,0,0,1,.65-1.66,6,6,0,0,1,.93-1.45,4.75,4.75,0,0,1,1.32-1A3.67,3.67,0,0,1,793.88,409.92Z"/><path d="M836.13,437.48h-6.61l-4.77-22.38c-.1-.45-.2-1-.28-1.53s-.16-1.11-.23-1.62-.13-1.21-.19-1.83h-.23c-.1.67-.18,1.31-.25,1.93s-.16,1.08-.22,1.65a12.74,12.74,0,0,1-.23,1.4l-4.72,22.38h-6.61l-7.63-35.14h6.51l4.2,21.61c.08.38.16.86.23,1.43s.15,1.1.22,1.62.14,1.24.23,1.88h.19c.07-.65.14-1.29.2-1.9s.14-1.08.22-1.63a13.79,13.79,0,0,1,.24-1.4l4.25-21.61h7.42L832.28,424c.06.35.14.81.22,1.36s.16,1.11.22,1.64.15,1.26.23,1.93h.2l.2-1.8q.1-.75.21-1.62a14.43,14.43,0,0,1,.27-1.51l4.29-21.61h5.63Z"/><path d="M853.88,409.92q5.37,0,8.07,3.42T864.63,424c0,4.83-.89,8.4-2.68,10.68s-4.49,3.42-8.07,3.42-6.27-1.14-8.06-3.42-2.69-5.85-2.69-10.68.89-8.39,2.69-10.66S850.3,409.92,853.88,409.92Zm0,5.18a3.44,3.44,0,0,0-3.36,2,13.82,13.82,0,0,0-1,5.88v2a13.94,13.94,0,0,0,1,5.91,3.79,3.79,0,0,0,6.72,0,13.94,13.94,0,0,0,1-5.91v-2a13.82,13.82,0,0,0-1-5.88A3.44,3.44,0,0,0,853.88,415.1Z"/><path d="M878.27,409.92a6.56,6.56,0,0,1,1,.08l.83.15a5.18,5.18,0,0,1,.68.2v5.92h-2.2a6.12,6.12,0,0,0-1.92.3,3.85,3.85,0,0,0-1.6,1,5.18,5.18,0,0,0-1.1,1.9,9.38,9.38,0,0,0-.41,3v15h-6.13V410.55h5.11l.72,3.92h.3a14.63,14.63,0,0,1,.65-1.66,5.74,5.74,0,0,1,.94-1.45,4.56,4.56,0,0,1,1.31-1A3.68,3.68,0,0,1,878.27,409.92Z"/><path d="M887.82,437.48H881.7v-37h6.12Z"/><path d="M911.38,437.48h-5.1l-.63-3.33h-.24a7.38,7.38,0,0,1-2.59,3,6.44,6.44,0,0,1-3.52,1,7.76,7.76,0,0,1-3.6-.83,7.36,7.36,0,0,1-2.73-2.58,13.75,13.75,0,0,1-1.72-4.4,29.23,29.23,0,0,1-.6-6.34,27.13,27.13,0,0,1,.64-6.33,14,14,0,0,1,1.75-4.36,7.35,7.35,0,0,1,2.63-2.53,7,7,0,0,1,3.33-.81,7.45,7.45,0,0,1,3.64.88,5.16,5.16,0,0,1,2.34,2.5h.28V400.44h6.12Zm-10.23-22a3.24,3.24,0,0,0-3.16,1.95,13.13,13.13,0,0,0-.94,5.57v2a13.17,13.17,0,0,0,.94,5.59,3.56,3.56,0,0,0,6.33,0,13.32,13.32,0,0,0,.94-5.59v-1.83a20.93,20.93,0,0,0-.23-3.25,8.42,8.42,0,0,0-.71-2.4,3.75,3.75,0,0,0-1.27-1.49A3.37,3.37,0,0,0,901.15,415.5Z"/>
</symbol>
<symbol id="transcare-b" viewBox="0 0 1080 720">
<title>transcare-b</title>
<path d="M522.85,256.65a74.35,74.35,0,0,0,5.4-13.22,78.38,78.38,0,0,1,6.07-14.61A40.81,40.81,0,0,1,547.82,215a3.17,3.17,0,0,0,1.46-2.67V178.76a12,12,0,0,0-12-12H508.45a12,12,0,0,0-12,12v39.49a3.16,3.16,0,0,1-3.17,3.17H453.82a12,12,0,0,0-12,12v28.86a12,12,0,0,0,12,12H495.9l.44,0A36.14,36.14,0,0,0,522.85,256.65Z"/><path d="M591.94,221.42H550.42a3.08,3.08,0,0,0-1.9.63,34.2,34.2,0,0,0-8.8,9.91c-2.4,4.11-3.93,8.66-5.55,13.47a80.11,80.11,0,0,1-5.9,14.31,42.51,42.51,0,0,1-29.13,20.35,3.19,3.19,0,0,0-2.67,3.12v33.67a12,12,0,0,0,12,12h28.86a12,12,0,0,0,12-12V277.39a3.17,3.17,0,0,1,3.17-3.17h39.49a12,12,0,0,0,12-12V233.39A12,12,0,0,0,591.94,221.42Z"/><path class="cls-2" d="M546.67,175a3.15,3.15,0,0,0,1-4.49,8.8,8.8,0,0,0-7.21-3.76h-32a12,12,0,0,0-12,12v39.49a3.16,3.16,0,0,1-3.17,3.17H453.82a12,12,0,0,0-12,12v32.06a3.15,3.15,0,0,0,3.3,3.06c19.68-.75,39-10.29,51.16-25.83,5.49-7,9.57-15,13.88-23.51,4.48-8.81,9.12-17.92,15.54-26A77,77,0,0,1,546.67,175Z"/><path d="M509.84,360.24c41.6-3.05,108.61-16.37,131.63-69.24,32.36-74.3-47.91-118.93-47.91-118.93,32,31.22,41.23,78.54,27.5,113.32C609,316.05,554.49,351.29,509.84,360.24Z"/><path d="M509.84,360.24a271.66,271.66,0,0,1-34.68.51C485.1,363.21,497.07,362.8,509.84,360.24Z"/><path d="M536.73,152c-41.59,3-108.6,16.36-131.63,69.24C372.74,295.53,453,340.16,453,340.16c-32-31.22-41.24-78.54-27.51-113.32C437.62,196.18,492.09,160.94,536.73,152Z"/><path d="M536.73,152a271.63,271.63,0,0,1,34.68-.51C561.47,149,549.5,149.43,536.73,152Z"/><path d="M225.47,521.85h10.59v2.49H225.47v9h10.59v2.44H223V510.55h13.08V513H225.47Z"/><path d="M236.8,536.48H222.25V509.81H236.8v3.95H226.21v7.35H236.8v4H226.21v7.48H236.8ZM223.72,535h11.61v-1H224.74V523.6h10.59v-1H224.74v-10.3h10.59v-1H223.72Z"/><path d="M244.45,535.74V510.55h3.66l8.71,21.9,8.68-21.9h3.66v25.19h-2.37V513.49l-8.86,22.25H255.7l-8.86-22.25v22.25Z"/><path d="M258.43,536.48H255.2l-7.62-19.14v19.14h-3.87V509.81h2.39v-.17l.07.17h2.44l8.21,20.63L265,509.81h2.46l.07-.17v.17h2.37v26.67h-3.85V517.34ZM256.2,535h1.23l9.44-23.72H266l-9.17,23.16-9.22-23.16h-.85Zm11.33,0h.89V511.28h-.89Zm-22.34,0h.91V511.28h-.91Z"/><path d="M279.63,521.85h10.59v2.49H279.63v9h10.59v2.44H277.13V510.55h13.09V513H279.63Z"/><path d="M291,536.48H276.4V509.81H291v3.95H280.36v7.35H291v4H280.36v7.48H291ZM277.87,535h11.61v-1H278.89V523.6h10.59v-1H278.89v-10.3h10.59v-1H277.87Z"/><path d="M300.56,513v22.72h-2.44V510.55h6.76a15.57,15.57,0,0,1,3.62.33,7,7,0,0,1,2.44,1.12,7.25,7.25,0,0,1,2.37,2.8,8.34,8.34,0,0,1,.88,3.76,7.64,7.64,0,0,1-1.74,5,7,7,0,0,1-2,1.7,4.8,4.8,0,0,1-2.36.61l6.1,9.84h-2.95l-7.47-12.15h2.39a5.42,5.42,0,0,0,3.87-1.4,4.7,4.7,0,0,0,1.51-3.6,6.24,6.24,0,0,0-.45-2.39,5.47,5.47,0,0,0-1.37-1.93,4.11,4.11,0,0,0-1.8-1,16.5,16.5,0,0,0-3.72-.29Z"/><path d="M310.84,536.48l-8.38-13.63h3.71a4.72,4.72,0,0,0,3.37-1.2,4,4,0,0,0,1.27-3.06,5.31,5.31,0,0,0-.4-2.1,4.59,4.59,0,0,0-1.18-1.68,3.44,3.44,0,0,0-1.49-.79,16.23,16.23,0,0,0-3.53-.26H301.3v22.72h-3.92V509.81h7.5a16,16,0,0,1,3.8.35,8,8,0,0,1,2.69,1.24,7.89,7.89,0,0,1,2.6,3.08,9,9,0,0,1,1,4.08,8.37,8.37,0,0,1-1.92,5.51,7.62,7.62,0,0,1-2.19,1.86,4.94,4.94,0,0,1-1.48.57l6.18,10Zm-12-1.48h1V512.28h4.39a16.8,16.8,0,0,1,3.91.31,4.81,4.81,0,0,1,2.11,1.14,6.14,6.14,0,0,1,1.55,2.19,7.09,7.09,0,0,1,.5,2.67,5.41,5.41,0,0,1-1.74,4.14,6.19,6.19,0,0,1-4.37,1.6H305.1L311.66,535h1.21l-6.1-9.84h1.33a4,4,0,0,0,2-.51,6.32,6.32,0,0,0,1.78-1.53,6.86,6.86,0,0,0,1.58-4.56,7.72,7.72,0,0,0-.81-3.43,6.38,6.38,0,0,0-2.13-2.52,6.58,6.58,0,0,0-2.2-1,15.14,15.14,0,0,0-3.44-.31h-6Z"/><path d="M330.51,523.66h15.66a11.87,11.87,0,0,1-1,4.94,13.61,13.61,0,0,1-2.94,4.1,12.36,12.36,0,0,1-9,3.52,12.17,12.17,0,0,1-9.13-3.8,13.05,13.05,0,0,1-3.67-9.44,12.66,12.66,0,0,1,3.91-9.26,12.72,12.72,0,0,1,4.19-2.78,13.53,13.53,0,0,1,5-.9,12.4,12.4,0,0,1,6.57,1.78,13.08,13.08,0,0,1,4.7,5.06h-3.05a12,12,0,0,0-3.81-3.35,9.55,9.55,0,0,0-4.55-1.08,9.82,9.82,0,0,0-7.32,3.1,10.3,10.3,0,0,0-3,7.46,10.65,10.65,0,0,0,3,7.73,9.9,9.9,0,0,0,7.39,3.1,9.63,9.63,0,0,0,6.2-2.21,10.14,10.14,0,0,0,3.57-5.74H330.51Z"/><path d="M333.24,537a12.94,12.94,0,0,1-9.66-4A13.83,13.83,0,0,1,319.7,523a13.55,13.55,0,0,1,1.05-5.3,13.86,13.86,0,0,1,3.08-4.49,13.5,13.5,0,0,1,4.44-2.93,14.37,14.37,0,0,1,5.28-.95,13.14,13.14,0,0,1,6.95,1.88,13.8,13.8,0,0,1,5,5.34l.59,1.09h-4.65l-.22-.29a11.5,11.5,0,0,0-3.57-3.15,8.9,8.9,0,0,0-4.21-1,9,9,0,0,0-6.79,2.88A9.48,9.48,0,0,0,323.8,523a9.91,9.91,0,0,0,2.79,7.22,9.09,9.09,0,0,0,6.86,2.87,8.83,8.83,0,0,0,5.74-2.05,9.33,9.33,0,0,0,3.06-4.42H329.77v-3.71H346.9v.74a12.45,12.45,0,0,1-1.09,5.24,14.31,14.31,0,0,1-3.09,4.33A13.14,13.14,0,0,1,333.24,537Zm.31-26.18a12.93,12.93,0,0,0-4.74.85,12.61,12.61,0,0,0-6.7,6.62,12.17,12.17,0,0,0-.94,4.73,12.41,12.41,0,0,0,3.47,8.93,11.38,11.38,0,0,0,8.6,3.58,11.72,11.72,0,0,0,8.45-3.32,12.92,12.92,0,0,0,2.78-3.88,11.11,11.11,0,0,0,.94-3.89H331.25v.76h12.91l-.22.9a10.9,10.9,0,0,1-3.82,6.14,10.37,10.37,0,0,1-6.67,2.37,10.62,10.62,0,0,1-7.92-3.31,11.47,11.47,0,0,1-3.2-8.25,11,11,0,0,1,3.23-8,10.57,10.57,0,0,1,7.85-3.33,10.28,10.28,0,0,1,4.9,1.17,12.75,12.75,0,0,1,3.82,3.26h1.38a11.94,11.94,0,0,0-3.77-3.69A11.69,11.69,0,0,0,333.55,510.78Z"/><path d="M355.64,521.85h10.59v2.49H355.64v9h10.59v2.44H353.15V510.55h13.08V513H355.64Z"/><path d="M367,536.48H352.42V509.81H367v3.95H356.38v7.35H367v4H356.38v7.48H367ZM353.89,535H365.5v-1H354.91V523.6H365.5v-1H354.91v-10.3H365.5v-1H353.89Z"/><path d="M391.23,532.72l-.29-22.17h2.44v25.19h-3l-13.82-22.22.27,22.22h-2.44V510.55h3Z"/><path d="M390,536.48l-12.64-20.32.25,20.32h-3.92V509.81h4.12l12.66,20.28-.27-20.28h3.93v26.67Zm-13.94-25.2L390.81,535h1L377,511.28Zm15.64,0L392,535h.64V511.28ZM375.15,535h1l-.3-23.72h-.66Z"/><path d="M421.75,517.07a11.18,11.18,0,0,0-3.78-3.43,9.93,9.93,0,0,0-4.78-1.14,9.59,9.59,0,0,0-7.18,3.12,10.31,10.31,0,0,0-3,7.39,10.77,10.77,0,0,0,3,7.69,9.56,9.56,0,0,0,7.21,3.14,10.14,10.14,0,0,0,4.7-1.09,10.46,10.46,0,0,0,3.69-3.24h2.94a12.87,12.87,0,0,1-20.42,2.92,13.19,13.19,0,0,1,.23-18.74,12.27,12.27,0,0,1,8.89-3.65,12.55,12.55,0,0,1,11.51,7Z"/><path d="M413.36,537a13.21,13.21,0,0,1-9.78-4,13.75,13.75,0,0,1-3.93-10,13.55,13.55,0,0,1,1.05-5.3,13.71,13.71,0,0,1,3.11-4.52,13,13,0,0,1,9.41-3.85,13.48,13.48,0,0,1,7.13,1.92,13.62,13.62,0,0,1,5,5.5l.56,1.08h-4.57l-.22-.31a10.43,10.43,0,0,0-3.53-3.21,9.2,9.2,0,0,0-4.43-1,8.84,8.84,0,0,0-6.65,2.89,9.52,9.52,0,0,0-2.79,6.88,10,10,0,0,0,2.77,7.18,8.75,8.75,0,0,0,6.67,2.91,9.44,9.44,0,0,0,4.37-1,9.74,9.74,0,0,0,3.42-3l.22-.3h4.55l-.58,1.09a13,13,0,0,1-11.81,7.1Zm-.14-26.18a11.87,11.87,0,0,0-4.58.88,11.55,11.55,0,0,0-3.79,2.56,12.62,12.62,0,0,0-.22,17.69,11.61,11.61,0,0,0,8.73,3.58,11.79,11.79,0,0,0,6.14-1.65,11.48,11.48,0,0,0,3.72-3.59H422a11.33,11.33,0,0,1-3.72,3.16,10.93,10.93,0,0,1-5,1.16,10.33,10.33,0,0,1-7.75-3.36,11.55,11.55,0,0,1-3.16-8.2,11.07,11.07,0,0,1,3.19-7.9,10.38,10.38,0,0,1,7.72-3.35,10.74,10.74,0,0,1,5.13,1.22,11.82,11.82,0,0,1,3.8,3.35h1.33a12,12,0,0,0-3.86-3.84A12.12,12.12,0,0,0,413.22,510.78Z"/><path d="M439.16,526.48v9.26h-2.44v-9.29l-8.05-15.9h2.83L438,523.63l6.51-13.09h2.78Z"/><path d="M439.89,536.48H436v-9.86l-8.51-16.81H432L438,522,444,509.81h4.43l-8.55,16.85ZM437.45,535h1v-8.7l7.61-15h-1.11l-7,14-6.9-14h-1.17l7.58,15Z"/><path d="M466.06,535.74V510.55h3.65l8.72,21.9,8.68-21.9h3.65v25.19h-2.37V513.49l-8.86,22.25H477.3l-8.86-22.25v22.25Z"/><path d="M480,536.48H476.8l-7.62-19.14v19.14h-3.86V509.81h2.38v-.17l.07.17h2.44l8.22,20.63,8.18-20.63h2.45l.07-.17v.17h2.37v26.67h-3.84V517.34ZM477.8,535H479l9.45-23.72h-.87l-9.18,23.16-9.22-23.16h-.85Zm11.33,0h.9V511.28h-.9Zm-22.34,0h.91V511.28h-.91Z"/><path d="M501.23,521.85h10.59v2.49H501.23v9h10.59v2.44H498.74V510.55h13.08V513H501.23Z"/><path d="M512.56,536.48H498V509.81h14.56v3.95H502v7.35h10.59v4H502v7.48h10.59ZM499.47,535h11.61v-1H500.49V523.6h10.59v-1H500.49v-10.3h10.59v-1H499.47Z"/><path d="M520.07,510.55h7.16a24.49,24.49,0,0,1,2.71.13,15.32,15.32,0,0,1,2.26.45,9.55,9.55,0,0,1,3.56,1.89,12.43,12.43,0,0,1,3.35,4.44,13.46,13.46,0,0,1,1.2,5.63,14,14,0,0,1-1.31,6.09,11.52,11.52,0,0,1-3.72,4.47,10.67,10.67,0,0,1-3.47,1.61,24.83,24.83,0,0,1-5.69.48h-6Zm2.44,2.4v20.42h5.14q4.77,0,7.39-2.7t2.61-7.65a11.75,11.75,0,0,0-.88-4.55,9.58,9.58,0,0,0-2.53-3.53,7.51,7.51,0,0,0-2.73-1.52,16.15,16.15,0,0,0-4.45-.47Z"/><path d="M526.12,536.48h-6.79V509.81h7.9A25.85,25.85,0,0,1,530,510a14.44,14.44,0,0,1,2.39.48,10.26,10.26,0,0,1,3.83,2,13.09,13.09,0,0,1,3.54,4.69,14.27,14.27,0,0,1,1.27,5.94,14.75,14.75,0,0,1-1.39,6.41,12.21,12.21,0,0,1-3.95,4.75A11.26,11.26,0,0,1,532,536,25,25,0,0,1,526.12,536.48ZM520.81,535h5.31a23.75,23.75,0,0,0,5.5-.46,9.72,9.72,0,0,0,3.23-1.5,10.77,10.77,0,0,0,3.48-4.18,13.15,13.15,0,0,0,1.24-5.77,12.76,12.76,0,0,0-1.13-5.32,11.7,11.7,0,0,0-3.15-4.18,8.79,8.79,0,0,0-3.29-1.75,14,14,0,0,0-2.14-.42,23,23,0,0,0-2.63-.14h-6.42Zm6.84-.89h-5.88v-21.9h5.29a16.77,16.77,0,0,1,4.66.5,8.3,8.3,0,0,1,3,1.67,10.34,10.34,0,0,1,2.73,3.8,12.5,12.5,0,0,1,.94,4.84c0,3.48-.95,6.23-2.82,8.16A10.57,10.57,0,0,1,527.65,534.11Zm-4.4-1.48h4.4c3,0,5.27-.83,6.85-2.47s2.41-4,2.41-7.14a10.86,10.86,0,0,0-.83-4.26,8.74,8.74,0,0,0-2.33-3.26,6.73,6.73,0,0,0-2.46-1.38,15.84,15.84,0,0,0-4.23-.43h-3.81Z"/><path d="M549.69,535.74h-2.48V510.55h2.48Z"/><path d="M550.43,536.48h-4V509.81h4ZM548,535h1V511.28h-1Z"/><path d="M578,517.07a11.27,11.27,0,0,0-3.78-3.43,9.94,9.94,0,0,0-4.79-1.14,9.61,9.61,0,0,0-7.18,3.12,10.35,10.35,0,0,0-3,7.39,10.77,10.77,0,0,0,3,7.69,9.56,9.56,0,0,0,7.2,3.14,10.21,10.21,0,0,0,4.71-1.09,10.46,10.46,0,0,0,3.69-3.24h2.94a12.87,12.87,0,0,1-20.42,2.92,13.18,13.18,0,0,1,.22-18.74,12.45,12.45,0,0,1,4-2.71,12.58,12.58,0,0,1,4.87-.94,12.52,12.52,0,0,1,11.5,7Z"/><path d="M569.62,537a13.23,13.23,0,0,1-9.79-4,13.92,13.92,0,0,1,.24-19.79,13.11,13.11,0,0,1,4.25-2.86,13.33,13.33,0,0,1,5.16-1,13.48,13.48,0,0,1,7.13,1.92,13.76,13.76,0,0,1,5,5.5l.56,1.08h-4.57l-.22-.31a10.52,10.52,0,0,0-3.53-3.21,9.24,9.24,0,0,0-4.44-1,8.82,8.82,0,0,0-6.64,2.89A9.52,9.52,0,0,0,560,523a10,10,0,0,0,2.76,7.18,8.75,8.75,0,0,0,6.67,2.91,9.38,9.38,0,0,0,4.37-1,9.77,9.77,0,0,0,3.43-3l.22-.3H582l-.58,1.09a13,13,0,0,1-11.81,7.1Zm-.14-26.18a11.92,11.92,0,0,0-4.59.88,11.51,11.51,0,0,0-3.78,2.56,12.62,12.62,0,0,0-.22,17.69,11.6,11.6,0,0,0,8.73,3.58,11.79,11.79,0,0,0,6.14-1.65,11.58,11.58,0,0,0,3.72-3.59H578.2a11.19,11.19,0,0,1-3.71,3.16,11,11,0,0,1-5,1.16,10.31,10.31,0,0,1-7.74-3.36,11.56,11.56,0,0,1-3.17-8.2,11.08,11.08,0,0,1,3.2-7.9,10.36,10.36,0,0,1,7.71-3.35,10.81,10.81,0,0,1,5.14,1.22,11.93,11.93,0,0,1,3.8,3.35h1.33a11.74,11.74,0,0,0-10.23-5.55Z"/><path d="M587.51,535.74h-2.62l9.78-25.19h3l9.75,25.19h-2.66l-3-7.91H590.52Zm13.34-10.17-4.76-12.66-4.73,12.66Z"/><path d="M604.22,536.48l-3-7.91H591l-3,7.91h-4.21l10.35-26.67h4l10.31,26.67ZM590,527.09h12.23l3,7.91h1.07l-9.17-23.72h-.87l5.65,15H590.3l5.61-15h-.74L586,535h1Zm2.42-2.26h7.36l-3.7-9.82Z"/><path d="M624.17,535.74H612.82V510.55h2.49V533.3h8.86Z"/><path d="M624.9,536.48H612.08V509.81h4v22.75h8.86ZM613.55,535h9.88v-1h-8.86V511.28h-1Z"/><path d="M643.18,528.52h2.38a6.37,6.37,0,0,0,.32,2.09,4.76,4.76,0,0,0,1,1.63,4.2,4.2,0,0,0,3.3,1.39,4.53,4.53,0,0,0,3.48-1.38,5.16,5.16,0,0,0,1.3-3.72c0-2.27-1.77-4-5.3-5.17l-.62-.21a8.72,8.72,0,0,1-4-2.4,5.81,5.81,0,0,1-1.22-3.82A6.79,6.79,0,0,1,645.7,512a6.49,6.49,0,0,1,4.86-1.92,5.94,5.94,0,0,1,4.5,1.75,6.61,6.61,0,0,1,1.35,2.14,7.27,7.27,0,0,1,.5,2.77h-2.33a5.25,5.25,0,0,0-1.23-3.18,3.63,3.63,0,0,0-2.79-1.11,4.09,4.09,0,0,0-3.06,1.22,4.3,4.3,0,0,0-1.18,3.1,3.67,3.67,0,0,0,.36,1.71,3.74,3.74,0,0,0,1.13,1.28,11.58,11.58,0,0,0,3.05,1.34l2,.67a7.65,7.65,0,0,1,3.53,2.41,6.41,6.41,0,0,1,1.09,3.9,8.51,8.51,0,0,1-2,5.91,6.76,6.76,0,0,1-5.31,2.23,6.47,6.47,0,0,1-5-2.11,7.14,7.14,0,0,1-1.47-2.46A9.06,9.06,0,0,1,643.18,528.52Z"/><path d="M650.15,537a7.24,7.24,0,0,1-5.55-2.35A8.29,8.29,0,0,1,643,531.9a10,10,0,0,1-.54-3.38v-.73h3.86v.73a5.39,5.39,0,0,0,.28,1.84,4,4,0,0,0,.84,1.38,3.49,3.49,0,0,0,2.76,1.15,3.79,3.79,0,0,0,2.94-1.14,4.46,4.46,0,0,0,1.1-3.22c0-1.94-1.57-3.4-4.79-4.47l-.62-.21a9.43,9.43,0,0,1-4.33-2.63,6.54,6.54,0,0,1-1.39-4.29,7.52,7.52,0,0,1,2.08-5.45,7.24,7.24,0,0,1,5.39-2.14,6.71,6.71,0,0,1,5,2,7.42,7.42,0,0,1,1.5,2.38,8.06,8.06,0,0,1,.55,3v.74H653.9l-.06-.67a4.56,4.56,0,0,0-1-2.75,2.9,2.9,0,0,0-2.25-.87,3.34,3.34,0,0,0-2.53,1,3.56,3.56,0,0,0-1,2.59,3,3,0,0,0,.28,1.38,3,3,0,0,0,.92,1,10.27,10.27,0,0,0,2.83,1.22l2,.68a8.38,8.38,0,0,1,3.88,2.67,7.15,7.15,0,0,1,1.24,4.34,9.29,9.29,0,0,1-2.18,6.41A7.52,7.52,0,0,1,650.15,537Zm-6.21-7.7a7.89,7.89,0,0,0,.43,2.14,6.67,6.67,0,0,0,1.33,2.22,5.73,5.73,0,0,0,4.45,1.87,6,6,0,0,0,4.76-2,7.85,7.85,0,0,0,1.8-5.42,5.77,5.77,0,0,0-.94-3.46,7,7,0,0,0-3.2-2.16l-2-.67a11.78,11.78,0,0,1-3.25-1.44,4.58,4.58,0,0,1-1.35-1.53,4.44,4.44,0,0,1-.43-2.05,5,5,0,0,1,1.38-3.61,4.78,4.78,0,0,1,3.59-1.45,4.37,4.37,0,0,1,3.33,1.34,5.61,5.61,0,0,1,1.34,3h.91a6.4,6.4,0,0,0-.41-1.75,6.32,6.32,0,0,0-1.2-1.92,5.24,5.24,0,0,0-4-1.51,5.72,5.72,0,0,0-4.33,1.69,6,6,0,0,0-1.66,4.42,5,5,0,0,0,1,3.35,8,8,0,0,0,3.66,2.17l.62.21c3.85,1.28,5.8,3.25,5.8,5.87a6,6,0,0,1-1.5,4.23,5.29,5.29,0,0,1-4,1.61,5,5,0,0,1-3.85-1.63,5.32,5.32,0,0,1-1.14-1.89,6.4,6.4,0,0,1-.33-1.59Z"/><path d="M667,521.85H677.6v2.49H667v9H677.6v2.44H664.52V510.55H677.6V513H667Z"/><path d="M678.34,536.48H663.79V509.81h14.55v3.95H667.75v7.35h10.59v4H667.75v7.48h10.59ZM665.26,535h11.61v-1H666.28V523.6h10.59v-1H666.28v-10.3h10.59v-1H665.26Z"/><path d="M688,513v22.72h-2.44V510.55h6.76a15.57,15.57,0,0,1,3.62.33,7,7,0,0,1,2.44,1.12,7.25,7.25,0,0,1,2.37,2.8,8.34,8.34,0,0,1,.88,3.76,7.59,7.59,0,0,1-1.75,5,7,7,0,0,1-2,1.7,4.8,4.8,0,0,1-2.36.61l6.1,9.84h-3l-7.47-12.15h2.38a5.44,5.44,0,0,0,3.88-1.4,4.7,4.7,0,0,0,1.51-3.6,6.24,6.24,0,0,0-.45-2.39,5.47,5.47,0,0,0-1.37-1.93,4.23,4.23,0,0,0-1.8-1,16.5,16.5,0,0,0-3.72-.29Z"/><path d="M698.23,536.48l-8.38-13.63h3.7a4.73,4.73,0,0,0,3.38-1.2,4,4,0,0,0,1.27-3.06,5.31,5.31,0,0,0-.4-2.1,4.59,4.59,0,0,0-1.18-1.68,3.44,3.44,0,0,0-1.49-.79,16.23,16.23,0,0,0-3.53-.26h-2.91v22.72h-3.92V509.81h7.5a16,16,0,0,1,3.8.35,8,8,0,0,1,2.69,1.24,7.89,7.89,0,0,1,2.6,3.08,9,9,0,0,1,1,4.08,8.37,8.37,0,0,1-1.92,5.51,7.62,7.62,0,0,1-2.19,1.86,4.94,4.94,0,0,1-1.48.57l6.18,10Zm-12-1.48h1V512.28h4.39a16.86,16.86,0,0,1,3.91.31,4.81,4.81,0,0,1,2.11,1.14,6.14,6.14,0,0,1,1.55,2.19,7.09,7.09,0,0,1,.5,2.67,5.41,5.41,0,0,1-1.74,4.14,6.2,6.2,0,0,1-4.38,1.6h-1.06L699.05,535h1.21l-6.1-9.84h1.33a4,4,0,0,0,2-.51,6.15,6.15,0,0,0,1.77-1.53,6.82,6.82,0,0,0,1.59-4.56,7.72,7.72,0,0,0-.81-3.43,6.46,6.46,0,0,0-2.13-2.52,6.58,6.58,0,0,0-2.2-1,15.14,15.14,0,0,0-3.44-.31h-6Z"/><path d="M706.06,510.55h2.48l8,21.48,8-21.48H727l-9.48,25.19h-2Z"/><path d="M715.05,536.48l-10-26.67h4l7.46,20.1,7.5-20.1h4l-10,26.67Zm-7.92-25.2L716.07,535H717l8.93-23.72H725l-8.52,22.87L708,511.28Z"/><path d="M734.8,535.74h-2.48V510.55h2.48Z"/><path d="M735.54,536.48h-3.95V509.81h3.95ZM733.06,535h1V511.28h-1Z"/><path d="M763.12,517.07a11.27,11.27,0,0,0-3.78-3.43,9.94,9.94,0,0,0-4.79-1.14,9.61,9.61,0,0,0-7.18,3.12,10.35,10.35,0,0,0-3,7.39,10.77,10.77,0,0,0,3,7.69,9.56,9.56,0,0,0,7.2,3.14,10.21,10.21,0,0,0,4.71-1.09,10.46,10.46,0,0,0,3.69-3.24h2.94a12.87,12.87,0,0,1-20.42,2.92,13,13,0,0,1-3.72-9.45,12.72,12.72,0,0,1,4-9.29,12.3,12.3,0,0,1,4-2.71,12.58,12.58,0,0,1,4.87-.94,12.79,12.79,0,0,1,6.75,1.82,13,13,0,0,1,4.76,5.21Z"/><path d="M754.73,537a13.24,13.24,0,0,1-9.79-4,13.92,13.92,0,0,1,.24-19.79,13.11,13.11,0,0,1,4.25-2.86,13.33,13.33,0,0,1,5.16-1,13.48,13.48,0,0,1,7.13,1.92,13.69,13.69,0,0,1,5,5.5l.56,1.08h-4.57l-.22-.31a10.52,10.52,0,0,0-3.53-3.21,9.24,9.24,0,0,0-4.44-1,8.82,8.82,0,0,0-6.64,2.89,9.52,9.52,0,0,0-2.79,6.88,10,10,0,0,0,2.76,7.18,8.77,8.77,0,0,0,6.67,2.91,9.38,9.38,0,0,0,4.37-1,9.77,9.77,0,0,0,3.43-3l.22-.3h4.55l-.58,1.09a13,13,0,0,1-11.81,7.1Zm-.14-26.18a11.92,11.92,0,0,0-4.59.88,11.51,11.51,0,0,0-3.78,2.56,12,12,0,0,0-3.73,8.76,12.29,12.29,0,0,0,3.51,8.93,11.6,11.6,0,0,0,8.73,3.58,11.79,11.79,0,0,0,6.14-1.65,11.58,11.58,0,0,0,3.72-3.59h-1.28a11.19,11.19,0,0,1-3.71,3.16,11,11,0,0,1-5.05,1.16,10.32,10.32,0,0,1-7.74-3.36,11.56,11.56,0,0,1-3.17-8.2,11.08,11.08,0,0,1,3.2-7.9,10.36,10.36,0,0,1,7.71-3.35,10.78,10.78,0,0,1,5.14,1.22,11.82,11.82,0,0,1,3.8,3.35h1.33a11.74,11.74,0,0,0-10.23-5.55Z"/><path d="M775.71,521.85H786.3v2.49H775.71v9H786.3v2.44H773.22V510.55H786.3V513H775.71Z"/><path d="M787,536.48H772.48V509.81H787v3.95H776.45v7.35H787v4H776.45v7.48H787ZM774,535h11.6v-1H775V523.6h10.59v-1H775v-10.3h10.59v-1H774Z"/><path d="M793.22,528.52h2.39a6.12,6.12,0,0,0,.32,2.09,4.58,4.58,0,0,0,1,1.63,4.21,4.21,0,0,0,3.31,1.39,4.56,4.56,0,0,0,3.48-1.38,5.2,5.2,0,0,0,1.29-3.72c0-2.27-1.76-4-5.29-5.17l-.62-.21a8.61,8.61,0,0,1-4-2.4,5.76,5.76,0,0,1-1.22-3.82,6.75,6.75,0,0,1,1.87-4.93,6.46,6.46,0,0,1,4.86-1.92,5.94,5.94,0,0,1,4.5,1.75,7,7,0,0,1,1.35,2.14,7.46,7.46,0,0,1,.5,2.77h-2.34a5.13,5.13,0,0,0-1.23-3.18,3.62,3.62,0,0,0-2.78-1.11,4.06,4.06,0,0,0-3.06,1.22,4.26,4.26,0,0,0-1.18,3.1,3.33,3.33,0,0,0,1.49,3,11.47,11.47,0,0,0,3,1.34l2,.67a7.6,7.6,0,0,1,3.53,2.41,6.41,6.41,0,0,1,1.09,3.9,8.55,8.55,0,0,1-2,5.91,6.77,6.77,0,0,1-5.32,2.23,6.47,6.47,0,0,1-5-2.11,7.46,7.46,0,0,1-1.47-2.46A9.3,9.3,0,0,1,793.22,528.52Z"/><path d="M800.19,537a7.22,7.22,0,0,1-5.54-2.35A8.12,8.12,0,0,1,793,531.9a10,10,0,0,1-.55-3.38v-.73h3.87v.73a5.66,5.66,0,0,0,.27,1.84,4,4,0,0,0,.84,1.38,3.49,3.49,0,0,0,2.77,1.15,3.82,3.82,0,0,0,2.94-1.14,4.46,4.46,0,0,0,1.09-3.22c0-1.94-1.56-3.4-4.79-4.47l-.62-.21a9.39,9.39,0,0,1-4.32-2.63,6.54,6.54,0,0,1-1.39-4.29,7.52,7.52,0,0,1,2.08-5.45,7.22,7.22,0,0,1,5.39-2.14,6.69,6.69,0,0,1,5,2,7.42,7.42,0,0,1,1.5,2.38,8.06,8.06,0,0,1,.56,3v.74H804l-.06-.67a4.56,4.56,0,0,0-1-2.75,2.92,2.92,0,0,0-2.25-.87,3.31,3.31,0,0,0-2.53,1,3.52,3.52,0,0,0-1,2.59,3.08,3.08,0,0,0,.27,1.38,3,3,0,0,0,.92,1,10.44,10.44,0,0,0,2.83,1.22l2,.68a8.47,8.47,0,0,1,3.89,2.67,7.15,7.15,0,0,1,1.23,4.34,9.34,9.34,0,0,1-2.17,6.41A7.52,7.52,0,0,1,800.19,537Zm-6.21-7.7a7.89,7.89,0,0,0,.44,2.14,6.65,6.65,0,0,0,1.32,2.22,5.73,5.73,0,0,0,4.45,1.87,6,6,0,0,0,4.76-2,7.85,7.85,0,0,0,1.81-5.42,5.7,5.7,0,0,0-1-3.46,6.92,6.92,0,0,0-3.2-2.16l-2-.67a11.93,11.93,0,0,1-3.25-1.44,4.54,4.54,0,0,1-1.34-1.53,4.43,4.43,0,0,1-.44-2.05,5,5,0,0,1,1.38-3.61,4.81,4.81,0,0,1,3.6-1.45,4.35,4.35,0,0,1,3.32,1.34,5.46,5.46,0,0,1,1.34,3h.92a6.06,6.06,0,0,0-.42-1.75,6.13,6.13,0,0,0-1.2-1.92,5.23,5.23,0,0,0-4-1.51,5.71,5.71,0,0,0-4.33,1.69,6,6,0,0,0-1.66,4.42,5,5,0,0,0,1,3.35,8,8,0,0,0,3.65,2.17l.62.21c3.85,1.28,5.8,3.25,5.8,5.87a5.91,5.91,0,0,1-1.5,4.23,5.25,5.25,0,0,1-4,1.61,5,5,0,0,1-3.86-1.63,5.47,5.47,0,0,1-1.14-1.89,6.4,6.4,0,0,1-.33-1.59Z"/><path d="M206.9,409.58v68.63H190.25V409.58H168.16V395.52H229v14.06Z"/><path d="M279.67,443.24l20.43,35h-19l-19.6-33.67H257v33.67H240.33V395.52h28.12c18.42,0,28.23,8.74,28.23,23.51C296.68,432.26,290.77,440.29,279.67,443.24ZM257,409.58v20.9h11.46c7.79,0,11.57-2.48,11.57-11,0-5.91-3.78-9.92-11.57-9.92Z"/><path d="M358.1,460.37H328.57l-6.38,17.84h-18l30.24-82.69h17.72l30.24,82.69H364.48Zm-24.22-14.06h18.79l-9.45-26.69Z"/><path d="M406.53,395.52l33.19,50.08V395.52h16.66v82.69H441.26l-33.2-50v50H391.41V395.52Z"/><path d="M498.43,479.39a62,62,0,0,1-30.48-8l6.5-13.35c8.74,5.67,14.29,7.32,23.86,7.32,8.39,0,14.53-2.72,14.53-10.75,0-17.72-42.76-2.71-42.76-38,0-15.24,12.87-22.21,28.82-22.21a64.28,64.28,0,0,1,28.7,6.5l-5.55,13.23a49.65,49.65,0,0,0-23.15-5.67c-6.85,0-12.17,2.59-12.17,8.15,0,20.08,42.76,3.54,42.76,37.56C529.49,473.25,515.55,479.39,498.43,479.39Z"/><path d="M566.94,440.88v14.06H537.76V440.88Z"/><path d="M646.79,453.4c-5.08,19-18.9,26-34.85,26-20.2,0-36.62-10-36.62-42.41s16.42-42.64,36.62-42.64c15.47,0,28.71,6.5,34.26,23.74l-15.71,5.08c-2.72-11.34-10.63-14.76-18.55-14.76-11,0-20,6.14-20,28.58s9,28.35,20,28.35c8.27,0,16.07-4.25,18.78-16.42Z"/><path d="M704.31,460.37H674.78l-6.38,17.84H650.45l30.24-82.69h17.72l30.24,82.69h-18ZM680.1,446.31h18.78l-9.45-26.69Z"/><path d="M777,443.24l20.43,35h-19l-19.61-33.67h-4.49v33.67H737.62V395.52h28.12c18.42,0,28.23,8.74,28.23,23.51C794,432.26,788.06,440.29,777,443.24Zm-22.68-33.66v20.9h11.46c7.79,0,11.57-2.48,11.57-11,0-5.91-3.78-9.92-11.57-9.92Z"/><path d="M823.14,443.83v20.32h38.27v14.06H806.49V395.52h53.74v14.06H823.14v20.2h35.32v14.05Z"/>
</symbol>
</defs>
</svg>